<?xml version="1.0" encoding="iso-8859-1"?>
<!-- Generator: Adobe Illustrator 19.0.0, SVG Export Plug-In . SVG Version: 6.00 Build 0)  -->
<svg version="1.1" id="Capa_1" xmlns="http://www.w3.org/2000/svg" xmlns:xlink="http://www.w3.org/1999/xlink" x="0px" y="0px"
	 viewBox="0 0 422.88 422.88" style="enable-background:new 0 0 422.88 422.88;" xml:space="preserve">
<g>
	<g>
		<g>
			<path d="M72.56,162.34c32.386,0,58.64-26.254,58.64-58.64s-26.254-58.64-58.64-58.64c-32.386,0-58.64,26.254-58.64,58.64
				S40.174,162.34,72.56,162.34z M72.52,69.22c0.013,0,0.027,0,0.04,0l0,0.04c19.021,0,34.44,15.419,34.44,34.44
				s-15.419,34.44-34.44,34.44c-19.021,0-34.44-15.419-34.44-34.44C38.098,84.679,53.499,69.242,72.52,69.22z"/>
			<path d="M341.68,224.58c-3.138-3.286-7.457-5.186-12-5.28c-0.772-0.056-1.548-0.056-2.32,0l-36.8,5.32v111l36.8,5.32
				c0.772,0.056,1.548,0.056,2.32,0c4.544-0.089,8.864-1.99,12-5.28c2.981-3.038,4.914-6.947,5.52-11.16
				c0.132-0.914,0.199-1.836,0.2-2.76v-83.28c-0.001-0.924-0.068-1.846-0.2-2.76C346.573,231.506,344.642,227.615,341.68,224.58z"/>
			<path d="M267.52,190.58c-4.976-5.075-11.772-7.955-18.88-8H26.84c-7.094,0.056-13.873,2.935-18.84,8
				c-5.075,4.976-7.955,11.772-8,18.88v141.52c0.056,7.094,2.935,13.873,8,18.84c4.976,5.075,11.772,7.955,18.88,8h221.88
				c7.094-0.056,13.873-2.935,18.84-8c5.075-4.976,7.955-11.772,8-18.88V209.42c-0.056-7.094-2.935-13.873-8-18.84H267.52z
				 M100.24,334.58c0,2.342-1.898,4.24-4.24,4.24H45.76c-2.342,0-4.24-1.898-4.24-4.24v-32c0-2.342,1.898-4.24,4.24-4.24h50.36
				c2.342,0,4.24,1.898,4.24,4.24L100.24,334.58z"/>
			<path d="M375.52,304.98c-3.159-3.159-8.281-3.159-11.44,0s-3.159,8.281,0,11.44l31.68,31.68c3.159,3.159,8.281,3.159,11.44,0
				s3.159-8.281,0-11.44L375.52,304.98z"/>
			<path d="M414.88,272.1h-44.8c-4.418,0-8,3.582-8,8s3.582,8,8,8h44.8c4.418,0,8-3.582,8-8S419.298,272.1,414.88,272.1z"/>
			<path d="M206.68,162.3c23.77-0.066,42.986-19.39,42.92-43.16c-0.066-23.692-19.268-42.876-42.96-42.92
				c-23.77-0.044-43.076,19.19-43.12,42.96c0,0.067,0,0.133,0,0.2C163.586,143.15,182.91,162.366,206.68,162.3z M206.56,101.34
				c9.963-0.044,18.076,7.997,18.12,17.96c0,0.027,0,0.053,0,0.08h-0.08c0,9.963-8.077,18.04-18.04,18.04
				c-9.963,0-18.04-8.077-18.04-18.04C188.52,109.417,196.597,101.34,206.56,101.34z"/>
			<path d="M364.08,255.38c3.089,3.159,8.154,3.216,11.313,0.127c0.043-0.042,0.085-0.084,0.127-0.127l31.68-31.68
				c3.159-3.159,3.159-8.281,0-11.44s-8.281-3.159-11.44,0l-31.68,31.68c-3.159,3.089-3.216,8.154-0.127,11.313
				C363.995,255.296,364.037,255.338,364.08,255.38z"/>
		</g>
	</g>
</g>
<g>
</g>
<g>
</g>
<g>
</g>
<g>
</g>
<g>
</g>
<g>
</g>
<g>
</g>
<g>
</g>
<g>
</g>
<g>
</g>
<g>
</g>
<g>
</g>
<g>
</g>
<g>
</g>
<g>
</g>
</svg>
