<?xml version="1.0" encoding="iso-8859-1"?>
<!-- Generator: Adobe Illustrator 19.0.0, SVG Export Plug-In . SVG Version: 6.00 Build 0)  -->
<svg version="1.1" id="Capa_1" xmlns="http://www.w3.org/2000/svg" xmlns:xlink="http://www.w3.org/1999/xlink" x="0px" y="0px"
	 viewBox="0 0 492.425 492.425" style="enable-background:new 0 0 492.425 492.425;" xml:space="preserve">
<linearGradient id="SVGID_1_" gradientUnits="userSpaceOnUse" x1="-44.3779" y1="588.4708" x2="25.3751" y2="588.4708" gradientTransform="matrix(8 0 0 -8 368.024 4953.9795)">
	<stop  offset="0" style="stop-color:#E93E3A"/>
	<stop  offset="0.347" style="stop-color:#ED683C"/>
	<stop  offset="0.714" style="stop-color:#F3903F"/>
	<stop  offset="1" style="stop-color:#FDC70C"/>
</linearGradient>
<path style="fill:url(#SVGID_1_);" d="M484.425,177.442h-403.2L470.689,73.074c4.268-1.144,6.8-5.53,5.656-9.798
	c0-0.001,0-0.001,0-0.002l-12.424-46.36c-1.144-4.268-5.53-6.8-9.798-5.656c-0.001,0-0.001,0-0.002,0L5.929,131.354
	c-4.264,1.144-6.796,5.526-5.656,9.792l12.152,45.344v286.952c0,4.418,3.582,8,8,8h464c4.418,0,8-3.582,8-8v-288
	C492.425,181.024,488.843,177.442,484.425,177.442z M476.425,225.442h-65.056l21.336-32h43.72V225.442z M392.145,225.442h-44.8
	l21.328-32h44.8L392.145,225.442z M328.145,225.442h-44.8l21.328-32h44.8L328.145,225.442z M264.145,225.442h-44.8l21.328-32h44.8
	L264.145,225.442z M200.145,225.442h-44.8l21.328-32h44.8L200.145,225.442z M157.473,193.442l-21.328,32h-44.8l21.328-32H157.473z
	 M28.425,225.442v-32h65.056l-21.336,32H28.425z M102.369,122.074l19.48-5.216l28.888,25.384l-43.248,11.584l-28.888-25.384
	L102.369,122.074z M354.769,87.57l-28.888-25.384l43.24-11.584l28.904,25.384L354.769,87.57z M307.305,67.162l28.888,25.384
	l-43.2,11.592l-28.896-25.384L307.305,67.162z M202.241,95.314l43.24-11.584l28.896,25.384l-43.248,11.584L202.241,95.314z
	 M183.665,100.29l28.896,25.384l-43.248,11.592l-28.888-25.384L183.665,100.29z M458.825,59.69l-42.24,11.352l-28.888-25.424
	l62.84-16.84L458.825,59.69z M60.033,133.442l28.888,25.392l-62.84,16.8l-8.28-30.896L60.033,133.442z M476.425,465.442h-448v-224
	h448V465.442z"/>
<g>
	
		<linearGradient id="SVGID_2_" gradientUnits="userSpaceOnUse" x1="-44.3779" y1="579.0671" x2="25.3751" y2="579.0671" gradientTransform="matrix(8 0 0 -8 368.024 4953.9795)">
		<stop  offset="0" style="stop-color:#E93E3A"/>
		<stop  offset="0.347" style="stop-color:#ED683C"/>
		<stop  offset="0.714" style="stop-color:#F3903F"/>
		<stop  offset="1" style="stop-color:#FDC70C"/>
	</linearGradient>
	<path style="fill:url(#SVGID_2_);" d="M68.425,281.442v80c0,4.418,3.582,8,8,8h352c4.418,0,8-3.582,8-8v-80c0-4.418-3.582-8-8-8
		h-352C72.007,273.442,68.425,277.024,68.425,281.442z M84.425,289.442h336v64h-336V289.442z"/>
	
		<linearGradient id="SVGID_3_" gradientUnits="userSpaceOnUse" x1="-44.3779" y1="568.0671" x2="25.3751" y2="568.0671" gradientTransform="matrix(8 0 0 -8 368.024 4953.9795)">
		<stop  offset="0" style="stop-color:#E93E3A"/>
		<stop  offset="0.347" style="stop-color:#ED683C"/>
		<stop  offset="0.714" style="stop-color:#F3903F"/>
		<stop  offset="1" style="stop-color:#FDC70C"/>
	</linearGradient>
	<path style="fill:url(#SVGID_3_);" d="M428.425,385.442h-352c-4.418,0-8,3.582-8,8v32c0,4.418,3.582,8,8,8h352c4.418,0,8-3.582,8-8
		v-32C436.425,389.024,432.843,385.442,428.425,385.442z M420.425,417.442h-336v-16h336V417.442z"/>
</g>
<g>
</g>
<g>
</g>
<g>
</g>
<g>
</g>
<g>
</g>
<g>
</g>
<g>
</g>
<g>
</g>
<g>
</g>
<g>
</g>
<g>
</g>
<g>
</g>
<g>
</g>
<g>
</g>
<g>
</g>
</svg>
