<?xml version="1.0" encoding="iso-8859-1"?>
<!-- Generator: Adobe Illustrator 19.0.0, SVG Export Plug-In . SVG Version: 6.00 Build 0)  -->
<svg version="1.1" id="Capa_1" xmlns="http://www.w3.org/2000/svg" xmlns:xlink="http://www.w3.org/1999/xlink" x="0px" y="0px"
	 viewBox="0 0 480 480" style="enable-background:new 0 0 480 480;" xml:space="preserve">
<g>
	
		<linearGradient id="SVGID_1_" gradientUnits="userSpaceOnUse" x1="-26.875" y1="557.295" x2="-26.875" y2="617.591" gradientTransform="matrix(8 0 0 -8 455 4941)">
		<stop  offset="0" style="stop-color:#006DF0"/>
		<stop  offset="1" style="stop-color:#00E7F0"/>
	</linearGradient>
	<path style="fill:url(#SVGID_1_);" d="M400,144H272c-4.418,0-8,3.582-8,8s3.582,8,8,8h120v304H88V160h120c4.418,0,8-3.582,8-8
		s-3.582-8-8-8H80c-4.418,0-8,3.582-8,8v320c0,4.418,3.582,8,8,8h320c4.418,0,8-3.582,8-8V152C408,147.582,404.418,144,400,144z"/>
	
		<linearGradient id="SVGID_2_" gradientUnits="userSpaceOnUse" x1="-26.875" y1="557.295" x2="-26.875" y2="617.591" gradientTransform="matrix(8 0 0 -8 455 4941)">
		<stop  offset="0" style="stop-color:#006DF0"/>
		<stop  offset="1" style="stop-color:#00E7F0"/>
	</linearGradient>
	<path style="fill:url(#SVGID_2_);" d="M155.152,231.832c-3.126-3.126-8.194-3.126-11.32,0c-3.126,3.126-3.126,8.194,0,11.32
		l90.504,90.496c3.12,3.128,8.186,3.135,11.314,0.014c0.005-0.005,0.01-0.01,0.014-0.014l90.504-90.496
		c3.126-3.126,3.126-8.194,0-11.32s-8.194-3.126-11.32,0L248,308.688V8c0-4.418-3.582-8-8-8s-8,3.582-8,8v300.688L155.152,231.832z"
		/>
</g>
<g>
</g>
<g>
</g>
<g>
</g>
<g>
</g>
<g>
</g>
<g>
</g>
<g>
</g>
<g>
</g>
<g>
</g>
<g>
</g>
<g>
</g>
<g>
</g>
<g>
</g>
<g>
</g>
<g>
</g>
</svg>
