<svg height="512pt" viewBox="0 0 512 512" width="512pt" xmlns="http://www.w3.org/2000/svg"><path d="m477.863281 0h-290.132812c-18.851563 0-34.132813 15.28125-34.132813 34.132812v94.71875l-23.40625 23.417969-22.675781-22.671875c13.546875-18.09375 15.710937-42.285156 5.59375-62.492187-10.117187-20.210938-30.777344-32.972657-53.378906-32.972657-24.160157.003907-45.9375 14.558594-55.183594 36.878907-9.242187 22.320312-4.132813 48.011719 12.953125 65.09375.128906.128906.273438.238281.402344.367187l64.015625 64.0625-64 64.066406c-.128907.121094-.273438.230469-.402344.359376-15.089844 15.089843-20.984375 37.085937-15.460937 57.699218 5.523437 20.617188 21.625 36.71875 42.242187 42.242188 20.613281 5.523437 42.609375-.371094 57.699219-15.460938 11.203125-11.203125 17.496094-26.398437 17.496094-42.242187s-6.292969-31.035157-17.496094-42.238281l22.1875-22.1875 29.414062 29.441406v121c-30.796875 4.691406-52.820312 32.261718-50.585937 63.332031 2.230469 31.074219 27.96875 55.214844 59.117187 55.453125h290.136719c32.972656-.039062 59.695313-26.757812 59.730469-59.734375v-418.132813c0-18.851562-15.28125-34.132812-34.132813-34.132812zm-448.296875 63.691406c16.722656-16.183594 43.335938-15.980468 59.8125.460938 16.472656 16.441406 16.730469 43.054687.578125 59.8125l-.078125.050781-.050781.074219c-16.582031 16.542968-43.402344 16.59375-60.050781.121094l-.195313-.195313-.078125-.050781c-16.597656-16.671875-16.570312-43.632813.0625-60.273438zm29.566406 89.910156h.597657c12.890625.007813 25.4375-4.1875 35.730469-11.949218l22.664062 22.664062-24.105469 24.125zm43.265626 153.597657c.007812 19.304687-12.945313 36.207031-31.589844 41.222656-18.640625 5.011719-38.324219-3.117187-48-19.820313-9.671875-16.703124-6.925782-37.824218 6.695312-51.5l.078125-.050781.195313-.195312c12.246094-12.070313 30.539062-15.609375 46.402344-8.980469 15.867187 6.628906 26.199218 22.132812 26.21875 39.324219zm-42.667969-59.734375c-.203125 0-.402344 0-.597657 0l40.902344-40.898438 36.179688-36.179687v-.054688l103.851562-103.773437c4.804688 4.792968 7.5 11.304687 7.484375 18.09375-.007812 6.789062-2.699219 13.300781-7.484375 18.113281l-85.617187 85.609375-.101563.066406-36.179687 36.179688-.042969.0625-29.96875 29.941406c-8.730469-4.722656-18.5-7.183594-28.425781-7.160156zm76.492187-16.792969 17.375-17.339844v34.765625zm25.90625 264.261719c-23.5625 0-42.664062-19.101563-42.664062-42.667969 0-23.5625 19.101562-42.664063 42.664062-42.664063h248.414063c-11.515625 11.207032-18.011719 26.59375-18.011719 42.664063s6.496094 31.460937 18.011719 42.667969zm290.136719 0c-23.566406 0-42.667969-19.101563-42.667969-42.667969 0-23.5625 19.101563-42.664063 42.667969-42.664063 4.710937 0 8.53125-3.820312 8.53125-8.535156 0-4.710937-3.820313-8.53125-8.53125-8.53125h-281.601563v-196.269531l81.511719-81.457031c16.617188-16.679688 16.617188-43.65625 0-60.332032-6.710937-6.601562-17.476562-6.601562-24.183593 0l-57.328126 57.308594v-77.652344c0-9.425781 7.640626-17.066406 17.066407-17.066406h290.132812c9.425781 0 17.066407 7.640625 17.066407 17.066406v418.132813c-.027344 23.554687-19.113282 42.640625-42.664063 42.667969zm0 0"/><path d="m196.265625 34.132812c-4.714844 0-8.535156 3.820313-8.535156 8.535157v17.066406c0 4.710937 3.820312 8.53125 8.535156 8.53125 4.710937 0 8.53125-3.820313 8.53125-8.53125v-17.066406c0-4.714844-3.820313-8.535157-8.53125-8.535157zm0 0"/><path d="m469.332031 34.132812c-4.714843 0-8.535156 3.820313-8.535156 8.535157v17.066406c0 4.710937 3.820313 8.53125 8.535156 8.53125 4.710938 0 8.53125-3.820313 8.53125-8.53125v-17.066406c0-4.714844-3.820312-8.535157-8.53125-8.535157zm0 0"/><path d="m469.332031 85.332031c-4.714843 0-8.535156 3.820313-8.535156 8.535157v17.066406c0 4.710937 3.820313 8.53125 8.535156 8.53125 4.710938 0 8.53125-3.820313 8.53125-8.53125v-17.066406c0-4.714844-3.820312-8.535157-8.53125-8.535157zm0 0"/><path d="m469.332031 136.535156c-4.714843 0-8.535156 3.820313-8.535156 8.53125v17.066406c0 4.714844 3.820313 8.535157 8.535156 8.535157 4.710938 0 8.53125-3.820313 8.53125-8.535157v-17.066406c0-4.710937-3.820312-8.53125-8.53125-8.53125zm0 0"/><path d="m196.265625 238.933594c-4.714844 0-8.535156 3.820312-8.535156 8.53125v17.070312c0 4.710938 3.820312 8.53125 8.535156 8.53125 4.710937 0 8.53125-3.820312 8.53125-8.53125v-17.070312c0-4.710938-3.820313-8.53125-8.53125-8.53125zm0 0"/><path d="m469.332031 238.933594c-4.714843 0-8.535156 3.820312-8.535156 8.53125v17.070312c0 4.710938 3.820313 8.53125 8.535156 8.53125 4.710938 0 8.53125-3.820312 8.53125-8.53125v-17.070312c0-4.710938-3.820312-8.53125-8.53125-8.53125zm0 0"/><path d="m196.265625 290.132812c-4.714844 0-8.535156 3.820313-8.535156 8.535157v17.066406c0 4.710937 3.820312 8.53125 8.535156 8.53125 4.710937 0 8.53125-3.820313 8.53125-8.53125v-17.066406c0-4.714844-3.820313-8.535157-8.53125-8.535157zm0 0"/><path d="m469.332031 290.132812c-4.714843 0-8.535156 3.820313-8.535156 8.535157v17.066406c0 4.710937 3.820313 8.53125 8.535156 8.53125 4.710938 0 8.53125-3.820313 8.53125-8.53125v-17.066406c0-4.714844-3.820312-8.535157-8.53125-8.535157zm0 0"/><path d="m196.265625 341.332031c-4.714844 0-8.535156 3.820313-8.535156 8.535157v17.066406c0 4.710937 3.820312 8.53125 8.535156 8.53125 4.710937 0 8.53125-3.820313 8.53125-8.53125v-17.066406c0-4.714844-3.820313-8.535157-8.53125-8.535157zm0 0"/><path d="m469.332031 341.332031c-4.714843 0-8.535156 3.820313-8.535156 8.535157v17.066406c0 4.710937 3.820313 8.53125 8.535156 8.53125 4.710938 0 8.53125-3.820313 8.53125-8.53125v-17.066406c0-4.714844-3.820312-8.535157-8.53125-8.535157zm0 0"/><path d="m59.730469 119.464844c14.140625 0 25.601562-11.460938 25.601562-25.597656 0-14.140626-11.460937-25.601563-25.601562-25.601563-14.136719 0-25.601563 11.460937-25.601563 25.601563 0 14.136718 11.464844 25.597656 25.601563 25.597656zm0-34.132813c4.714843 0 8.535156 3.820313 8.535156 8.535157 0 4.710937-3.820313 8.53125-8.535156 8.53125-4.710938 0-8.53125-3.820313-8.53125-8.53125 0-4.714844 3.820312-8.535157 8.53125-8.535157zm0 0"/><path d="m59.730469 281.601562c-14.136719 0-25.601563 11.460938-25.601563 25.597657 0 14.140625 11.464844 25.601562 25.601563 25.601562 14.140625 0 25.601562-11.460937 25.601562-25.601562 0-14.136719-11.460937-25.597657-25.601562-25.597657zm0 34.132813c-4.710938 0-8.53125-3.820313-8.53125-8.535156 0-4.710938 3.820312-8.53125 8.53125-8.53125 4.714843 0 8.535156 3.820312 8.535156 8.53125 0 4.714843-3.820313 8.535156-8.535156 8.535156zm0 0"/><path d="m469.332031 204.800781c0-4.714843-3.820312-8.535156-8.535156-8.535156h-256c-4.710937 0-8.53125 3.820313-8.53125 8.535156 0 4.710938 3.820313 8.53125 8.53125 8.53125h256c4.714844 0 8.535156-3.820312 8.535156-8.53125zm0 0"/><path d="m255.996094 426.667969h-102.398438c-4.714844 0-8.535156 3.820312-8.535156 8.53125 0 4.714843 3.820312 8.535156 8.535156 8.535156h102.398438c4.714844 0 8.535156-3.820313 8.535156-8.535156 0-4.710938-3.820312-8.53125-8.535156-8.53125zm0 0"/><path d="m307.199219 426.667969h-17.070313c-4.710937 0-8.53125 3.820312-8.53125 8.53125 0 4.714843 3.820313 8.535156 8.53125 8.535156h17.070313c4.710937 0 8.53125-3.820313 8.53125-8.535156 0-4.710938-3.820313-8.53125-8.53125-8.53125zm0 0"/><path d="m426.664062 238.933594h-187.734374c-9.425782 0-17.066407 7.640625-17.066407 17.066406v102.398438c0 9.425781 7.640625 17.066406 17.066407 17.066406h187.734374c9.425782 0 17.066407-7.640625 17.066407-17.066406v-102.398438c0-9.425781-7.640625-17.066406-17.066407-17.066406zm-187.734374 119.464844v-102.398438h187.734374v102.398438zm0 0"/><path d="m238.929688 170.667969h187.734374c9.425782 0 17.066407-7.640625 17.066407-17.066407v-102.402343c0-9.425781-7.640625-17.066407-17.066407-17.066407h-153.601562c-4.710938 0-8.53125 3.820313-8.53125 8.535157 0 4.710937 3.820312 8.53125 8.53125 8.53125h153.601562v102.402343h-187.734374c-4.710938 0-8.53125 3.820313-8.53125 8.53125 0 4.714844 3.820312 8.535157 8.53125 8.535157zm0 0"/><path d="m303.398438 288.699219c3.921874-2.613281 4.980468-7.914063 2.367187-11.835938-2.617187-3.921875-7.917969-4.980469-11.835937-2.363281l-25.601563 17.066406c-3.921875 2.617188-4.980469 7.914063-2.363281 11.835938 2.613281 3.921875 7.914062 4.980468 11.835937 2.363281zm0 0"/><path d="m353.660156 274.5-76.796875 51.199219c-3.921875 2.617187-4.980469 7.914062-2.367187 11.835937 2.617187 3.921875 7.917968 4.980469 11.835937 2.363282l76.800781-51.199219c3.921876-2.613281 4.980469-7.914063 2.363282-11.835938-2.613282-3.921875-7.914063-4.980469-11.835938-2.363281zm0 0"/></svg>