<?xml version="1.0" encoding="iso-8859-1"?>
<!-- Generator: Adobe Illustrator 19.0.0, SVG Export Plug-In . SVG Version: 6.00 Build 0)  -->
<svg version="1.1" id="Capa_1" xmlns="http://www.w3.org/2000/svg" xmlns:xlink="http://www.w3.org/1999/xlink" x="0px" y="0px"
	 viewBox="0 0 512 512" style="enable-background:new 0 0 512 512;" xml:space="preserve">
<g>
	<g>
		<rect x="150" y="90" width="272" height="210"/>
	</g>
</g>
<g>
	<g>
		<path d="M467,0H45C20.186,0,0,20.186,0,45v300c0,24.814,20.186,45,45,45h422c24.814,0,45-20.186,45-45V45
			C512,20.186,491.814,0,467,0z M85.607,325.605c-5.859,5.859-15.355,5.859-21.215,0c-5.858-5.858-5.858-15.355,0-21.213
			c5.859-5.858,15.355-5.858,21.215,0C91.465,310.25,91.465,319.748,85.607,325.605z M85.607,265.605
			c-5.859,5.859-15.355,5.859-21.215,0c-5.858-5.858-5.858-15.355,0-21.213c5.859-5.858,15.355-5.858,21.215,0
			C91.465,250.25,91.465,259.748,85.607,265.605z M85.607,205.605c-5.859,5.859-15.355,5.859-21.215,0
			c-5.858-5.858-5.858-15.355,0-21.213c5.859-5.858,15.355-5.858,21.215,0C91.465,190.25,91.465,199.748,85.607,205.605z
			 M85.607,145.605c-5.859,5.859-15.355,5.859-21.215,0c-5.858-5.858-5.858-15.355,0-21.213c5.859-5.858,15.355-5.858,21.215,0
			C91.465,130.25,91.465,139.748,85.607,145.605z M85.607,85.605c-5.859,5.859-15.355,5.859-21.215,0
			c-5.858-5.858-5.858-15.355,0-21.213c5.859-5.858,15.355-5.858,21.215,0C91.465,70.25,91.465,79.748,85.607,85.605z M452,315
			c0,8.291-6.709,15-15,15H135c-8.291,0-15-6.709-15-15V75c0-8.291,6.709-15,15-15h302c8.291,0,15,6.709,15,15V315z"/>
	</g>
</g>
<g>
	<g>
		<path d="M75,422c-24.814,0-45,20.186-45,45c0,24.814,20.186,45,45,45h45v-90H75z"/>
	</g>
</g>
<g>
	<g>
		<rect x="150" y="422" width="212" height="90"/>
	</g>
</g>
<g>
	<g>
		<path d="M471.746,452.776L392,426.195v81.61l79.746-26.581C477.869,479.188,482,473.46,482,467
			C482,460.54,477.869,454.813,471.746,452.776z"/>
	</g>
</g>
<g>
</g>
<g>
</g>
<g>
</g>
<g>
</g>
<g>
</g>
<g>
</g>
<g>
</g>
<g>
</g>
<g>
</g>
<g>
</g>
<g>
</g>
<g>
</g>
<g>
</g>
<g>
</g>
<g>
</g>
</svg>
