<svg height="512pt" viewBox="0 -8 512 512" width="512pt" xmlns="http://www.w3.org/2000/svg" xmlns:xlink="http://www.w3.org/1999/xlink"><linearGradient id="a"><stop offset="0" stop-color="#e93e3a"/><stop offset=".354" stop-color="#ed683c"/><stop offset=".705" stop-color="#f3903f"/><stop offset="1" stop-color="#fdc70c"/></linearGradient><linearGradient id="b" gradientTransform="matrix(.670906 0 0 -.670906 0 503.668327)" gradientUnits="userSpaceOnUse" x1="0" x2="947.7567" xlink:href="#a" y1="464.5492" y2="464.5492"/><linearGradient id="c" gradientTransform="matrix(.670906 0 0 -.670906 0 503.668327)" gradientUnits="userSpaceOnUse" x1="-.3577" x2="947.3989" xlink:href="#a" y1="214.1391" y2="214.1391"/><path d="m464 64h-199.441406c-.640625-.96875-1.386719-1.863281-2.222656-2.671875l-54.59375-52.382813c-5.933594-5.75-13.878907-8.9570308-22.140626-8.945312h-137.601562c-26.507812 0-48 21.488281-48 48v288c0 26.507812 21.492188 48 48 48h144c8.835938 0 16-7.164062 16-16s-7.164062-16-16-16h-144c-8.835938 0-16-7.164062-16-16v-288c0-8.835938 7.164062-16 16-16h137.601562l53.550782 51.40625c6.046875 7.925781 15.4375 12.582031 25.40625 12.59375h199.441406c8.835938 0 16 7.164062 16 16v224c0 8.835938-7.164062 16-16 16h-144c-8.835938 0-16 7.164062-16 16s7.164062 16 16 16h144c26.507812 0 48-21.492188 48-48v-224c0-26.511719-21.492188-48-48-48zm0 0" fill="url(#b)"/><path d="m312.558594 319.199219c6.140625 6.355469 16.269531 6.53125 22.625.394531 6.355468-6.140625 6.53125-16.269531.394531-22.625-.128906-.132812-.261719-.265625-.394531-.394531l-67.871094-67.886719c-6.25-6.246094-16.375-6.246094-22.625 0l-67.886719 67.886719c-6.355469 6.140625-6.53125 16.269531-.394531 22.625 6.140625 6.355469 16.269531 6.53125 22.625.394531.132812-.128906.265625-.261719.394531-.394531l40.574219-40.574219v201.375c0 8.835938 7.164062 16 16 16s16-7.164062 16-16v-201.375zm0 0" fill="url(#c)"/></svg>