<?xml version="1.0" standalone="no"?>
<!DOCTYPE svg PUBLIC "-//W3C//DTD SVG 20010904//EN"
 "http://www.w3.org/TR/2001/REC-SVG-20010904/DTD/svg10.dtd">
<svg version="1.0" xmlns="http://www.w3.org/2000/svg"
 width="686.000000pt" height="568.000000pt" viewBox="0 0 686.000000 568.000000"
 preserveAspectRatio="xMidYMid meet">
<metadata>
Created by potrace 1.15, written by Peter Selinger 2001-2017
</metadata>
<g transform="translate(0.000000,568.000000) scale(0.100000,-0.100000)"
fill="#000000" stroke="none">
<path d="M114 5393 c46 -137 96 -279 111 -318 33 -82 123 -196 223 -282 37
-32 255 -181 483 -332 l416 -275 196 -393 c109 -216 194 -393 191 -393 -3 0
-273 181 -601 401 -327 221 -602 403 -612 406 -14 4 -3 -39 61 -229 43 -128
92 -267 110 -308 40 -94 124 -213 186 -263 26 -21 301 -209 612 -417 589 -394
630 -425 728 -561 46 -64 360 -685 340 -673 -7 4 -361 241 -786 527 -426 286
-782 521 -792 524 -16 4 -8 -29 59 -228 43 -129 94 -266 114 -306 48 -100 127
-202 211 -276 39 -34 420 -292 846 -574 l775 -512 220 -440 c121 -243 223
-441 227 -441 5 0 108 200 230 443 l221 444 771 509 c424 280 803 538 843 572
82 72 155 166 203 262 28 56 190 519 190 543 0 5 -7 6 -16 3 -9 -3 -364 -240
-789 -526 -425 -286 -776 -520 -779 -520 -11 0 275 563 330 651 88 140 157
195 759 597 297 198 561 378 587 399 113 91 197 250 297 559 39 122 71 227 71
234 0 7 -7 10 -16 6 -9 -3 -282 -185 -608 -404 -325 -219 -597 -402 -604 -406
-19 -11 280 582 342 677 32 50 80 106 122 143 38 33 227 166 419 294 193 128
380 260 418 293 87 77 170 180 197 242 24 55 200 573 200 588 0 5 -7 6 -16 3
-28 -11 -1444 -976 -1527 -1040 -43 -34 -96 -88 -120 -121 -23 -32 -139 -249
-257 -480 -118 -232 -496 -970 -840 -1641 l-625 -1220 -877 1701 -878 1700
-811 553 c-447 303 -818 552 -825 552 -8 0 16 -85 70 -247z"/>
<path d="M3235 4353 c-53 -11 -257 -108 -268 -127 -6 -12 -70 -174 -142 -361
l-130 -340 365 -787 c201 -433 370 -786 375 -784 11 3 725 1552 725 1572 0 18
-248 662 -267 695 -13 21 -47 41 -144 84 l-126 55 -184 -1 c-101 -1 -193 -3
-204 -6z m-125 -978 c40 -148 75 -276 78 -282 2 -7 0 -13 -6 -13 -13 0 -251
382 -262 420 -8 27 -3 36 47 95 31 36 59 62 63 58 4 -4 40 -129 80 -278z m778
224 c33 -39 52 -70 52 -87 0 -15 -50 -106 -127 -229 -113 -182 -155 -237 -139
-185 3 9 37 134 76 277 76 279 77 285 83 285 2 0 27 -27 55 -61z"/>
</g>
</svg>
