<?xml version="1.0" encoding="utf-8"?>

<!DOCTYPE svg PUBLIC "-//W3C//DTD SVG 1.1//EN" "http://www.w3.org/Graphics/SVG/1.1/DTD/svg11.dtd">
<svg version="1.1" id="Layer_1" xmlns="http://www.w3.org/2000/svg" xmlns:xlink="http://www.w3.org/1999/xlink" x="0px" y="0px"
	 viewBox="0 0 1783.951 1757.519" enable-background="new 0 0 1783.951 1757.519" xml:space="preserve">
<path d="M1685.666,190.053c5.341,16.827-2.697,22.943-0.539,34.206c1.949,5.94,6.201,10.72,8.873,16.312
	c2.128,4.02,3.648,8.313,5.425,12.493c2.029,4.797,5.182,8.338,4.49,17.317c-2.352,19.509-24.196,2.563-22.301,18.853
	c1.03,10.885-3.715,12.416-8.477,16.039c3.802,9.651,1.513,9.647-5.009,16.958c-1.639,2.299-1.739,1.222,0.123,9.441
	c0.911,5.113-0.894,17.683-8.554,22.628c-12.85,9.055-25.407,0.163-52.679,6.152c-7.871,1.591-19.02,9.498-22.346,11.582
	c-35.051,23.157-7.497,3.761-45.567,38.078c-9.731,8.268-19.482,16.688-30.66,22.967c-2.968,5.713-17.636,24.335-18.322,25.349
	c-4.895,8.183-8.818,23.234-12.975,31.571c-3.925,7.508-7.494,38.207-23.6,59.726c-52.657,74.579-62.68,80.978-63.517,81.978
	c-0.159,0.049-0.482,0.147-0.646,0.196c-5.512,6.26-22.321,17.387-49.264,19.433c-34.16,2.511-55.277,26.159-64.485,30.582
	c-8.52,5.266-15.219,6.04-23.004,8.832c-8.047,2.463-14.635,9.75-30.823,16.251c-23.898,9.393-28.822,15.884-38.442,23.964
	c-8.185,6.518-11.926,4.352-20.308,13.992c-3.33,4.355-21.812,25.818-29.675,36.935c-13.475,18.311-6.266,11.593-32.825,42.654
	c4.833,0.703,9.682,1.34,14.535,1.867c67.233,26.288,66.011,8.023,277.113,87.558c0,0,21.594,12.797,31.542,20.018
	c15.987,11.797,25.283,20.904,25.283,20.904c14.734,17.462,23.969,20.818,35.648,66.418c10.168,38.451,2.945,57.757-6.843,73.963
	c-6.229,10.706-30.363,33.175-47.576,37.502c-17.832,6.26-30.326,12.412-32.375,13.346c-89.521,41.379-58.867,33.421-144.016,85.52
	c-52.33,35.623-70.437,38.313-114.174,66.413c-71.093,50.574-70.732,53.203-73.697,61.25c-2.196,14.785-6.077,19.056-8.947,47.278
	c-4.407,41.478-2.453,32.919-3.767,47.368c-0.888,12.922-4.709,34.847-3.477,38.916c5.313,16.681,25.818,20.265,32.747,44.198
	c0.746,2.566,6.609,5.066,7.582,9.604c-0.147,0.176-0.445,0.519-0.596,0.69c0.801,2.974-0.829,5.801-2.484,8.154
	c0.024,0.707,0.041,1.414,0.033,2.149c-2.866,2.893-0.298,4.086-5.601,7.688c-4.424,0.695-8.75-1.785-11.651-4.984
	c-0.829-1.107-2.255-1.299-3.481-1.691c-8.746-2.566-20.278-14.297-25.847-20.957c-1.105-0.571-13.902-2.931-14.903-3.142
	c-6.905-0.967-20.143-11.84-22.473-16.145c-8.938-15.354-5.786-7.587-10.74-24.683c-2.724-14.666-2.279-23.062-3.799-29.867
	c-27.846-60.974-30.921-38.998-61.973-90.328c-42.263-72.013,89.578-44.306,192.528-194.146
	c20.085-26.46,21.524-50.421,35.006-66.287c26.123-31.597,34.094-30.6,44.831-39.851c-37.421-11.021-84.243-18.19-126.074-33.049
	c-71.048-24.808-27.088-15.846-95.986-35.778c-52.393-11.57-61.419-16.951-82.828-26.072
	c-131.166,89.283-62.727,36.73-170.219,108.087c-27.442,18.107-73.176,43.959-111.441,56.364
	c-23.78,7.993-5.838-2.222-49.345,19.797c-89.202,47.304-22.337-18.786-247.573,191.16
	c-106.03,107.732-96.882,136.346-105.889,180.236c-2.256,10.67-10.513,39.92-10.752,67.198c-0.121,1-1.418,20.757-1.087,23.813
	c16.65,9.598,26.718,24.388,29.119,26.574c1,0.627,12.135,4.87,12.807,9.143c0.092,3.057,2.952,8.077-0.919,13.506
	c-3.924,6.743-15.267,4.3-22.644,2.909c-5.56-1.422-9.907-5.343-14.768-8.162c-2.292-1.732-3.587-4.412-5.638-6.389
	c-2.61-0.168-12.664,3.45-13.665,3.873c-1.605,0.772-3.387-0.049-5.033-0.323c-2.418-0.686-4.972-0.335-7.419-0.854
	c-1.446-0.65-2.586-1.818-3.893-2.704c-2.157-1.679-4.698-2.721-7.116-3.954c-2.624-1.242-2.501-5.239-18.42-10.916
	c-18.582-6.414-23.856-12.868-27.326-14.715c-14.445-20.223-8.579-10.983-16.929-87.391c-4.153-47.352-15.994-59.367-15.994-88.008
	c0-15.953,21.175-36.666,35.66-41.412c24.857-9.523,20.339-9.456,34.234-16.888c44.085-27.477,102.247-140.805,106.428-149.674
	c22.153-40.813,17.786-71.146,58.431-107.004c82.214-69.154,141.118-34.999,219.826-144.613
	c0.019-0.027,26.467-33.143,35.644-44.831C683.179,817.55,727.409,825.874,759.751,798.371
	c21.013-20.857,14.958-23.608,27.824-51.437c6.325-9.914,38.858-48.022,47.907-54.979c12.381-9.503,4.65-4.75,72.729-40.889
	c53.934-24.812,45.879-8.751,130.502-95.03c74.548-67.871,30.441-62.421,123.451-142.423c2.725-2.504,5.678-4.935,7.57-8.15
	c-32.7-11.832-24.784-9.783-79.87,24.454c-104.507,64.796-76.977,45.172-106.277,85.745c-15.028,25.104-1.116,19.803-24.336,48.802
	c-10.182,11.756-9.648,20.86-24.691,25.104c-0.211,0.058-27.707,13.46-32.424,15.405c-4.641,1.969-10.013,2.002-14.233,4.959
	c-5.495,3.027-14.51,8.634-16.451,4.253c-0.989-1.94-2.684-3.505-3.101-5.723c-6.985,4.079-39.752,20.23-47.466,19.082
	c-1.703-0.061-3.178-1.111-4.894-1.152c-4.167-1.835-5.871-4.784-5.474-8.955c0.944-1.646,1.373-3.583,2.643-5.033
	c2.332-3.155,10.351-5.852,17.088-9.903c7.823-3.722,42.896-28.258,45.093-30.022c-0.016-0.298-0.041-0.891-0.057-1.189
	c-0.547-0.029-1.111-0.045-1.683-0.057c-0.572-0.56-1.144-1.115-1.712-1.679c-3.353,0.555-45.269,29.656-53.304,34.422
	c-5.173,3.039-14.71,15.166-26.885,10.197c-4.255-1.736-6.488-7.423-0.184-16.263c-5.859-9.86,11.135-24.12,14.249-29.242
	c-0.409-0.56-1.095-0.743-1.704-1.025c-0.67-0.752-1.467-1.503-1.605-2.557c-0.593-4.021,14.034-29.503,17.329-33.07
	c5.167-5.518,35.789-35.192,40.856-37.968c9.72-4.38,66.961-16.968,99.287-56.744c0,0,18.111-24.982,51.486-67.59
	c-68.6-26.97-35.92-34.255-111.179,6.659c-112.743,54.046-127.883,52.541-172.641,93.274c-15.418,15.918-7.715,3.973-14.123,23.106
	c-4.724,13.555-8.429,15.151-12.027,21.031c-10.557,16.303-4.082,10.183-28.903,31.975c-0.907,1.307-1.438,2.852-2.353,4.179
	c-1.413,2.582-3.865,4.432-5.09,7.141c-1.044,2.173-7.909,15.45-13.771,14.731c-7.133-4.787-10.222-4.789-6.508-20.643
	c2.451-11.343,13.263-22.989,13.265-22.996c-7.368,0.534-12.608,7.525-25.1,8.554c-13.252,1.253-11.825,8.997-39.627,13.624
	c-14.206,1.392-18.994-12.599-12.578-17.411c2.056-0.708,12.631-2.927,15.945-5.405c7.61-5.433,11.197-5.426,16.292-8.767
	c0.274-0.837,0.568-1.663,0.85-2.484c-3.382-2.611-9.526,2.105-21.023,6.986c-3.162,1.074-5.744,3.264-8.657,4.845
	c-2.611,1.569-5.65,2.316-8.228,3.942c-5.151,5.073-10.285,0.166-11.586-0.605c-4.01-4.693-2.628-7.862-2.039-11.806
	c0.176-1.172,1.205-1.896,1.769-2.856c0.003-1.011-2.892-12.434,12.133-26.484c7.331-6.836,5.565-6.108,6.687-8.767
	c0.135-1.757-0.253-3.587,0.355-5.27c0.057-0.498,0.094-0.993,0.106-1.479c10.781-19.346,8.277-12.452,14.637-17.873
	c19.194-16.338,18.137-13.73,25.684-15.532c8.633-1.305,46.45-10.794,62.859-18.91c37.059-20.842,98.06-84.279,156.607-121.968
	c21.805-13.972,64.252-32.204,64.252-32.204c23.034-13.962,23.673-9.751,77.309-9.355c64.61,2.481,128.27-17.784,167.233-5.086
	c38.228,14.583,36.497-0.701,113.389,6.377c4.843,1.223,11.741,4.512,20.851,3.926c9.633-0.882,51.163-20.624,65.78-20.463
	c0.131-0.098,0.384-0.294,0.511-0.392c0.764-0.012,1.52-0.037,2.271-0.078c12.676-4.968,45.629,1.699,57.246,6.422
	c10.316,6.738,13.271,10.457,14.597,11.508c1,0.798,21.596,21.809,24.205,22.428c2.655-3.624,5.139-7.394,8.203-10.695
	c21.97-25.151-16.564-28.172-14.368-82.954c1.336-15.092,1.375-37.98,17.558-62.561c26.723-37.71,57.825-54.989,103.082-46.535
	C1691.545,103.189,1680.482,174.334,1685.666,190.053z"/>
</svg>
