<svg height="480pt" viewBox="0 -97 480.00002 480" width="480pt" xmlns="http://www.w3.org/2000/svg" xmlns:xlink="http://www.w3.org/1999/xlink"><linearGradient id="a"><stop offset="0" stop-color="#e93e3a"/><stop offset=".356" stop-color="#ed683c"/><stop offset=".705" stop-color="#f3903f"/><stop offset="1" stop-color="#fdc70c"/></linearGradient><linearGradient id="b" gradientUnits="userSpaceOnUse" x1="270.584" x2="270.584" xlink:href="#a" y1="286.974119" y2="-35.657881"/><linearGradient id="c" gradientUnits="userSpaceOnUse" x1="72" x2="72" xlink:href="#a" y1="286.974119" y2="-35.657881"/><linearGradient id="d" gradientUnits="userSpaceOnUse" x1="12" x2="12" xlink:href="#a" y1="286.974119" y2="-35.657881"/><linearGradient id="e" gradientUnits="userSpaceOnUse" x1="48" x2="48" xlink:href="#a" y1="286.974119" y2="-35.657881"/><linearGradient id="f" gradientUnits="userSpaceOnUse" x1="80" x2="80" xlink:href="#a" y1="286.974119" y2="-35.657881"/><linearGradient id="g" gradientUnits="userSpaceOnUse" x1="64" x2="64" xlink:href="#a" y1="286.974119" y2="-35.657881"/><path d="m480 181.582031c0-13.253906-10.746094-24-24-24h-53.320312l-32.535157-30.832031 3.511719-3.511719c3.03125-3.140625 2.988281-8.128906-.097656-11.214843-3.085938-3.085938-8.074219-3.128907-11.214844-.097657l-3.808594 3.808594-13.03125-12.34375 4.152344-4.152344c3.03125-3.140625 2.988281-8.128906-.097656-11.214843-3.085938-3.085938-8.074219-3.128907-11.214844-.097657l-4.457031 4.457031-13.023438-12.351562 4.800781-4.800781c3.03125-3.140625 2.988282-8.128907-.097656-11.214844-3.085937-3.085937-8.074218-3.128906-11.214844-.097656l-5.09375 5.097656-37.496093-35.546875c-4.1875-3.960938-10.179688-5.371094-15.691407-3.683594-5.507812 1.6875-9.6875 6.210938-10.933593 11.835938l-9.375 42.167968c-.460938 2.109376-1.761719 3.941407-3.601563 5.074219-1.839844 1.132813-4.054687 1.476563-6.152344.957031l-66.3125-16.558593c-3.945312-.980469-6.527343-4.769531-6-8.800781l6.242188-49.925782c.472656-3.785156-1.789062-7.378906-5.410156-8.585937l-15.398438-5.128907c-4.347656-1.449218-9.109375-.964843-13.074218 1.328126-3.96875 2.296874-6.761719 6.183593-7.671876 10.671874l-29.847656 149.203126-23.863281 29.839843c-3.242187 4.050781-4.316406 9.421875-2.886719 14.40625 1.429688 4.988281 5.191406 8.972657 10.085938 10.6875l205.601562 68.144531c.8125.292969 1.664063.457032 2.527344.480469h184c8.835938 0 16-7.164062 16-16v-24c-.015625-3.917969-1.476562-7.6875-4.105469-10.59375 2.683594-3.957031 4.113281-8.625 4.105469-13.40625zm-345.9375-165.535156 9.183594 3.046875-5.421875 43.425781c-1.503907 12.042969 6.222656 23.3125 18 26.253907l66.304687 16.59375c6.28125 1.570312 12.933594.53125 18.441406-2.875 5.507813-3.40625 9.402344-8.890626 10.804688-15.214844l9.378906-42.175782 37.175782 35.25-15.585938 15.582032c-2.078125 2.007812-2.914062 4.984375-2.179688 7.78125.730469 2.796875 2.914063 4.980468 5.710938 5.710937 2.796875.734375 5.773438-.101562 7.78125-2.179687l15.886719-15.886719 13.03125 12.34375-16.230469 16.230469c-2.078125 2.007812-2.914062 4.984375-2.179688 7.78125.730469 2.796875 2.914063 4.980468 5.710938 5.710937 2.796875.734375 5.773438-.101562 7.78125-2.179687l16.535156-16.535156 13.007813 12.34375-16.871094 16.871093c-2.078125 2.007813-2.914063 4.984375-2.183594 7.78125.734375 2.796875 2.917969 4.980469 5.714844 5.710938 2.796875.734375 5.773437-.101563 7.78125-2.179688l17.175781-17.175781 35.199219 33.328125c1.488281 1.40625 3.457031 2.191406 5.503906 2.191406h56.480469c4.417969 0 8 3.582031 8 8v40c0 4.417969-3.582031 8-8 8h-174.398438l-176.441406-69.007812zm329.9375 253.535156h-182.710938l-204.121093-67.648437 21.398437-26.75 178.523438 69.855468c.925781.359376 1.914062.542969 2.910156.542969h184zm0 0" fill="url(#b)"/><path d="m48 29.582031h48c4.417969 0 8-3.582031 8-8s-3.582031-8-8-8h-48c-4.417969 0-8 3.582031-8 8s3.582031 8 8 8zm0 0" fill="url(#c)"/><path d="m8 29.582031h8c4.417969 0 8-3.582031 8-8s-3.582031-8-8-8h-8c-4.417969 0-8 3.582031-8 8s3.582031 8 8 8zm0 0" fill="url(#d)"/><path d="m8 77.582031h80c4.417969 0 8-3.582031 8-8s-3.582031-8-8-8h-80c-4.417969 0-8 3.582031-8 8s3.582031 8 8 8zm0 0" fill="url(#e)"/><path d="m152 269.582031h-144c-4.417969 0-8 3.582031-8 8s3.582031 8 8 8h144c4.417969 0 8-3.582031 8-8s-3.582031-8-8-8zm0 0" fill="url(#f)"/><path d="m8 245.582031h8c4.417969 0 8-3.582031 8-8s-3.582031-8-8-8h-8c-4.417969 0-8 3.582031-8 8s3.582031 8 8 8zm0 0" fill="url(#d)"/><path d="m40 245.582031h48c4.417969 0 8-3.582031 8-8s-3.582031-8-8-8h-48c-4.417969 0-8 3.582031-8 8s3.582031 8 8 8zm0 0" fill="url(#g)"/></svg>