<?xml version="1.0" encoding="iso-8859-1"?>
<!-- Generator: Adobe Illustrator 19.0.0, SVG Export Plug-In . SVG Version: 6.00 Build 0)  -->
<svg version="1.1" id="Capa_1" xmlns="http://www.w3.org/2000/svg" xmlns:xlink="http://www.w3.org/1999/xlink" x="0px" y="0px"
	 viewBox="0 0 480 480" style="enable-background:new 0 0 480 480;" xml:space="preserve">
<linearGradient id="SVGID_1_" gradientUnits="userSpaceOnUse" x1="-57.125" y1="592.125" x2="3.104" y2="592.125" gradientTransform="matrix(8 0 0 -8 455 4977)">
	<stop  offset="0" style="stop-color:#FC4A1A"/>
	<stop  offset="1" style="stop-color:#F7B733"/>
</linearGradient>
<path style="fill:url(#SVGID_1_);" d="M472,92H8c-4.418,0-8,3.582-8,8v280c0,4.418,3.582,8,8,8h464c4.418,0,8-3.582,8-8V100
	C480,95.582,476.418,92,472,92z M16,108h448v32H16V108z M432,372v-16c0-4.418-3.582-8-8-8s-8,3.582-8,8v16h-16v-16
	c0-4.418-3.582-8-8-8s-8,3.582-8,8v16H16V156h448v216H432z"/>
<g>
	
		<linearGradient id="SVGID_2_" gradientUnits="userSpaceOnUse" x1="-57.125" y1="589.625" x2="3.104" y2="589.625" gradientTransform="matrix(8 0 0 -8 455 4977)">
		<stop  offset="0" style="stop-color:#FC4A1A"/>
		<stop  offset="1" style="stop-color:#F7B733"/>
	</linearGradient>
	<path style="fill:url(#SVGID_2_);" d="M424,188H56c-4.418,0-8,3.582-8,8v128c0,4.418,3.582,8,8,8h368c4.418,0,8-3.582,8-8V196
		C432,191.582,428.418,188,424,188z M64,316V204h42.848c-30.928,24.839-35.864,70.046-11.026,100.974
		c3.264,4.064,6.961,7.762,11.026,11.026H64z M96,260c0.035-30.913,25.087-55.965,56-56h8v112h-8
		C121.087,315.965,96.035,290.913,96,260z M176,204h128v112H176V204z M320,316V204h8c30.928,0,56,25.072,56,56s-25.072,56-56,56l0,0
		H320z M416,316h-42.848c30.928-24.839,35.864-70.046,11.026-100.974c-3.264-4.064-6.961-7.761-11.026-11.026H416V316z"/>
	
		<linearGradient id="SVGID_3_" gradientUnits="userSpaceOnUse" x1="-57.125" y1="593.625" x2="3.104" y2="593.625" gradientTransform="matrix(8 0 0 -8 455 4977)">
		<stop  offset="0" style="stop-color:#FC4A1A"/>
		<stop  offset="1" style="stop-color:#F7B733"/>
	</linearGradient>
	<path style="fill:url(#SVGID_3_);" d="M192,220h16v16h-16V220z"/>
	
		<linearGradient id="SVGID_4_" gradientUnits="userSpaceOnUse" x1="-57.125" y1="593.625" x2="3.104" y2="593.625" gradientTransform="matrix(8 0 0 -8 455 4977)">
		<stop  offset="0" style="stop-color:#FC4A1A"/>
		<stop  offset="1" style="stop-color:#F7B733"/>
	</linearGradient>
	<path style="fill:url(#SVGID_4_);" d="M224,220h64v16h-64V220z"/>
</g>
<g>
</g>
<g>
</g>
<g>
</g>
<g>
</g>
<g>
</g>
<g>
</g>
<g>
</g>
<g>
</g>
<g>
</g>
<g>
</g>
<g>
</g>
<g>
</g>
<g>
</g>
<g>
</g>
<g>
</g>
</svg>
