<svg height="512pt" viewBox="-50 0 512 512" width="512pt" xmlns="http://www.w3.org/2000/svg"><path d="m73.769531 496.214844h265.066407l57.980468-57.984375v-364.464844l-57.980468-57.984375h-265.066407l-57.984375 57.984375v364.464844zm0 0" fill="#a53535"/><path d="m372.816406 62.046875h24v387.898437h-24zm0 0" fill="#8c2727"/><path d="m73.769531 462.953125h265.066407l24.847656-24.722656v-364.464844l-24.847656-24.851563h-265.066407l-24.851562 24.851563v364.464844zm0 0" fill="#ffe2b8"/><path d="m73.769531 462.953125h265.066407l24.847656-24.722656v-364.464844l-24.847656-24.851563h-265.066407l-24.851562 24.851563v364.464844zm0 0" fill="#c3ddf4"/><path d="m339.683594 462.109375 24-23.882813v-364.460937l-24-24zm0 0" fill="#9cc2ed"/><path d="m371.964844 73.765625c-18.296875 0-33.128906-14.832031-33.128906-33.132813v-27.132812c0-3.3125 2.683593-6 6-6h54.265624c3.3125 0 6 2.6875 6 6v54.265625c0 3.3125-2.6875 6-6 6zm0 0" fill="#ffaf10"/><path d="m399.101562 7.5h-24c3.3125 0 6 2.6875 6 6v54.265625c0 3.3125-2.6875 6-6 6h-7.160156.023438 31.136718c3.3125 0 6-2.6875 6-6v-54.265625c0-3.3125-2.6875-6-6-6zm0 0" fill="#ff890a"/><path d="m40.632812 73.765625c18.300782 0 33.132813-14.832031 33.132813-33.132813v-27.132812c0-3.3125-2.6875-6-6-6h-54.265625c-3.3125 0-6 2.6875-6 6v54.265625c0 3.3125 2.6875 6 6 6zm0 0" fill="#ffaf10"/><path d="m67.765625 7.5h-23.996094c3.3125 0 6 2.6875 6 6v27.132812c0 18.292969-14.824219 33.121094-33.109375 33.132813h23.972656c18.300782 0 33.132813-14.832031 33.132813-33.128906v-27.136719c0-3.3125-2.6875-6-6-6zm0 0" fill="#ff890a"/><path d="m371.964844 438.234375c-18.296875 0-33.128906 14.832031-33.128906 33.128906v27.136719c0 3.3125 2.683593 6 6 6h54.265624c3.3125 0 6-2.6875 6-6v-54.265625c0-3.3125-2.6875-6-6-6zm0 0" fill="#ffaf10"/><path d="m399.125 504.5h-24c3.3125 0 6-2.6875 6-6v-54.265625c0-3.3125-2.6875-6-6-6h-7.15625.019531 31.136719c3.3125 0 6 2.6875 6 6v54.265625c0 3.3125-2.6875 6-6 6zm0 0" fill="#ff890a"/><path d="m40.632812 438.234375c18.300782 0 33.132813 14.832031 33.132813 33.128906v27.136719c0 3.3125-2.6875 6-6 6h-54.265625c-3.3125 0-6-2.6875-6-6v-54.265625c0-3.3125 2.6875-6 6-6zm0 0" fill="#ffaf10"/><path d="m67.765625 504.5h-23.996094c3.3125 0 6-2.6875 6-6v-27.132812c0-18.292969-14.824219-33.121094-33.109375-33.132813h23.972656c18.300782 0 33.132813 14.832031 33.132813 33.132813v27.132812c0 3.3125-2.6875 6-6 6zm0 0" fill="#ff890a"/><path d="m140.03125 289.128906c-18.109375 0-32.789062 14.679688-32.789062 32.789063v61.535156c0 2.929687 2.121093 5.433594 5.011718 5.917969l93.058594 15.5625c.652344.109375 1.320312.109375 1.976562 0l93.371094-15.5625c2.90625-.484375 5.027344-3.003906 5.015625-5.949219l-.320312-61.503906c0-18.109375-14.679688-32.789063-32.789063-32.789063zm0 0" fill="#fe3745"/><path d="m231.148438 288.527344v-46.863282h-49.699219v46.863282l24.851562 25.453125zm0 0" fill="#ffcaa1"/><path d="m289.132812 233.433594v-59.230469c0-45.671875-36.53125-83.53125-82.203124-83.867187-46.039063-.34375-83.460938 36.875-83.460938 82.828124v60.269532c0 3.3125 2.683594 6 6 6h153.664062c3.3125 0 6-2.6875 6-6zm0 0" fill="#293d7c"/><path d="m255.996094 131.75v74.546875c0 27.449219-22.25 49.699219-49.695313 49.699219-27.449219 0-49.699219-22.25-49.699219-49.699219v-74.546875l49.699219-8.285156zm0 0" fill="#ffe2b8"/><path d="m148.316406 156.597656h8.285156c18.296876 0 33.132813-14.832031 33.132813-33.132812v-15.78125h-15.785156l-25.632813 27.980468zm0 0" fill="#293d7c"/><path d="m264.28125 156.597656h-8.28125c-18.300781 0-33.132812-14.832031-33.132812-33.132812v-10.964844h23.058593l18.355469 24zm0 0" fill="#293d7c"/><path d="m206.300781 313.980469-24.851562-33.132813-19.160157 6.386719c-3.140624 1.046875-4.839843 4.445313-3.792968 7.589844l12.035156 36.109375c1.296875 3.886718 6.019531 5.359375 9.292969 2.902344zm0 0" fill="#fff"/><path d="m206.300781 313.980469 24.847657-33.132813 19.160156 6.386719c3.144531 1.046875 4.84375 4.445313 3.796875 7.589844l-12.039063 36.109375c-1.292968 3.886718-6.015625 5.359375-9.292968 2.902344zm0 0" fill="#fff"/><path d="m405.101562 81.265625c4.140626 0 7.5-3.359375 7.5-7.5v-66.265625c0-4.140625-3.359374-7.5-7.5-7.5h-66.265624c-4.144532 0-7.5 3.359375-7.5 7.5v.78125h-250.070313v-.78125c0-4.140625-3.359375-7.5-7.5-7.5h-66.265625c-4.140625 0-7.5 3.359375-7.5 7.5v66.265625c0 4.140625 3.359375 7.5 7.5 7.5h.785156v349.46875h-.785156c-4.140625 0-7.5 3.359375-7.5 7.5v66.265625c0 4.140625 3.359375 7.5 7.5 7.5h66.265625c4.140625 0 7.5-3.359375 7.5-7.5v-.785156h250.066406v.785156c0 4.140625 3.359375 7.5 7.5 7.5h66.269531c4.140626 0 7.5-3.359375 7.5-7.5v-66.265625c0-4.140625-3.359374-7.5-7.5-7.5h-.785156v-349.46875zm-58.765624-66.265625h51.265624v51.265625h-.773437c-.003906 0-.007813 0-.011719 0s-.007812 0-.007812 0h-24.839844c-14.136719 0-25.632812-11.5-25.632812-25.632813zm-15 8.28125v17.351562c0 .261719.011718.523438.019531.78125h-192.863281c-4.144532 0-7.5 3.359376-7.5 7.5 0 4.144532 3.355468 7.5 7.5 7.5h196.03125c4.117187 9.734376 11.925781 17.542969 21.660156 21.660157v355.851562c-9.691406 4.097657-17.46875 11.855469-21.601563 21.527344h-256.566406c-4.132813-9.671875-11.910156-17.429687-21.597656-21.527344v-355.851562c9.730469-4.117188 17.539062-11.925781 21.65625-21.660157h30.367187c4.144532 0 7.5-3.355468 7.5-7.5 0-4.140624-3.355468-7.5-7.5-7.5h-27.195312c.003906-.257812.019531-.519531.019531-.78125v-17.351562zm-316.335938-8.28125h51.265625v25.632812c0 14.136719-11.496094 25.632813-25.632813 25.632813h-24.835937c-.003906 0-.007813 0-.011719 0s-.007812 0-.011718 0h-.773438zm8.285156 66.265625h17.347656c.265626 0 .523438-.015625.785157-.019531v349.507812c-.261719-.007812-.523438-.019531-.785157-.019531h-17.347656zm42.980469 415.734375h-51.265625v-51.265625h25.632812c14.136719 0 25.632813 11.496094 25.632813 25.628906zm15-8.285156v-17.347656c0-.308594-.015625-.609376-.023437-.914063h250.113281c-.003907.304687-.019531.605469-.019531.914063v17.347656zm316.335937 8.285156h-51.265624v-25.632812c0-14.136719 11.496093-25.632813 25.628906-25.632813h25.636718zm-8.285156-66.265625h-17.351562c-.261719 0-.519532.015625-.78125.019531v-349.507812c.261718.003906.519531.019531.78125.019531h17.351562zm0 0"/><path d="m379.734375 40.632812c0 4.289063-3.476563 7.765626-7.765625 7.765626s-7.769531-3.476563-7.769531-7.765626c0-4.289062 3.480469-7.765624 7.769531-7.765624s7.765625 3.476562 7.765625 7.765624zm0 0"/><path d="m48.398438 40.632812c0 4.289063-3.476563 7.765626-7.765626 7.765626-4.289062 0-7.765624-3.476563-7.765624-7.765626 0-4.289062 3.476562-7.765624 7.765624-7.765624 4.289063 0 7.765626 3.476562 7.765626 7.765624zm0 0"/><path d="m379.734375 471.367188c0 4.289062-3.476563 7.765624-7.765625 7.765624s-7.769531-3.476562-7.769531-7.765624c0-4.289063 3.480469-7.765626 7.769531-7.765626s7.765625 3.476563 7.765625 7.765626zm0 0"/><path d="m48.398438 471.367188c0 4.289062-3.476563 7.765624-7.765626 7.765624-4.289062 0-7.765624-3.476562-7.765624-7.765624 0-4.289063 3.476562-7.765626 7.765624-7.765626 4.289063 0 7.765626 3.476563 7.765626 7.765626zm0 0"/><path d="m189.734375 197.230469c4.140625 0 7.5-3.359375 7.5-7.5v-8.28125c0-4.144531-3.359375-7.5-7.5-7.5s-7.5 3.355469-7.5 7.5v8.28125c0 4.144531 3.359375 7.5 7.5 7.5zm0 0"/><path d="m222.867188 197.230469c4.140624 0 7.5-3.359375 7.5-7.5v-8.28125c0-4.144531-3.359376-7.5-7.5-7.5-4.144532 0-7.5 3.355469-7.5 7.5v8.28125c0 4.144531 3.355468 7.5 7.5 7.5zm0 0"/><path d="m123.46875 246.933594h42.625c2.417969 2.390625 5.046875 4.570312 7.855469 6.503906v22.003906l-18.5625 6.1875h-15.355469c-22.214844 0-40.289062 18.074219-40.289062 40.289063v66.613281c0 3.664062 2.648437 6.792969 6.265624 7.398438l99.054688 16.566406c.039062.007812.078125.003906.117188.007812.367187.054688.738281.09375 1.121093.09375.382813 0 .753907-.039062 1.121094-.09375.039063-.003906.074219 0 .113281-.007812l99.398438-16.566406c3.632812-.605469 6.285156-3.753907 6.265625-7.4375l-.34375-66.574219c0-22.214844-18.074219-40.289063-40.289063-40.289063h-15.351562l-18.5625-6.1875v-22.007812c2.808594-1.933594 5.441406-4.109375 7.855468-6.503906h42.625c4.144532 0 7.5-3.355469 7.5-7.5v-66.265626c0-49.808593-40.523437-90.332031-90.332031-90.332031-49.808593 0-90.332031 40.523438-90.332031 90.332031v66.265626c0 4.144531 3.355469 7.503906 7.5 7.503906zm73.058594-115.96875h19.542968c3.074219 16.398437 16.027344 29.351562 32.429688 32.425781v42.90625c0 23.269531-18.929688 42.199219-42.199219 42.199219s-42.199219-18.929688-42.199219-42.199219v-42.90625c16.402344-3.074219 29.351563-16.027344 32.425782-32.425781zm-17.832032 158.707031 17.105469 22.808594-18.808593 14.109375-10.90625-32.714844zm-63.953124 32.246094c0-13.945313 11.347656-25.289063 25.289062-25.289063h11.164062l14.855469 44.574219c.765625 2.285156 2.578125 4.066406 4.878907 4.785156.734374.230469 1.488281.339844 2.238281.339844 1.601562 0 3.183593-.511719 4.5-1.5l21.132812-15.847656v67.257812l-84.054687-14.058593v-60.261719zm146.664062-25.289063h11.160156c13.945313 0 25.289063 11.34375 25.289063 25.328125l.3125 60.226563-84.367188 14.0625v-67.265625l21.132813 15.851562c1.3125.984375 2.894531 1.5 4.5 1.5.75 0 1.503906-.113281 2.234375-.339843 2.300781-.71875 4.117187-2.5 4.878906-4.789063zm-25.796875 29.960938-18.808594-14.109375 17.105469-22.808594 12.609375 4.203125zm-11.957031-48.242188-17.351563 23.132813-17.351562-23.132813v-17.546875c5.476562 1.746094 11.304687 2.695313 17.351562 2.695313s11.875-.949219 17.351563-2.695313zm-92.683594-105.183594c0-41.539062 33.792969-75.332031 75.332031-75.332031 41.539063 0 75.332031 33.792969 75.332031 75.332031v58.769532h-24.222656c3.886719-7.71875 6.085938-16.421875 6.085938-25.636719v-42.199219h.785156c4.144531 0 7.5-3.359375 7.5-7.5 0-4.144531-3.355469-7.5-7.5-7.5h-8.28125c-11.53125 0-21.308594-7.65625-24.515625-18.152344 3.984375-.171874 7.167969-3.453124 7.167969-7.480468 0-4.144532-3.359375-7.5-7.5-7.5h-17.351563v-.78125c0-4.144532-3.359375-7.5-7.5-7.5-4.144531 0-7.5 3.355468-7.5 7.5v.78125h-17.351562c-4.140625 0-7.5 3.355468-7.5 7.5 0 4.027344 3.179687 7.304687 7.167969 7.480468-3.210938 10.496094-12.984376 18.152344-24.515626 18.152344h-8.285156c-4.140625 0-7.5 3.355469-7.5 7.5 0 4.140625 3.359375 7.5 7.5 7.5h.785156v42.199219c0 9.214844 2.203126 17.917969 6.089844 25.636719h-24.222656zm0 0"/></svg>