<svg height="512pt" viewBox="-41 0 512 512" width="512pt" xmlns="http://www.w3.org/2000/svg"><path d="m189.734375 67.769531v-54.269531c0-3.3125 2.683594-6 6-6h54.261719c3.316406 0 6 2.6875 6 6v54.269531c0 3.3125-2.683594 6-6 6h-54.261719c-3.316406 0-6-2.6875-6-6zm0 0" fill="#a53535"/><path d="m249.996094 7.5h-24c3.316406 0 6 2.6875 6 6v54.269531c0 3.3125-2.683594 6-6 6h24c3.316406 0 6-2.6875 6-6v-54.269531c0-3.3125-2.683594-6-6-6zm0 0" fill="#8c2727"/><path d="m405.097656 449h-381.035156v-394.082031c0-3.316407 2.6875-6 6-6h369.035156c3.316406 0 6 2.683593 6 6zm0 0" fill="#c3ddf4"/><path d="m399.097656 48.917969h-24c3.316406 0 6 2.683593 6 6v394.082031h24v-394.082031c0-3.3125-2.683594-6-6-6zm0 0" fill="#9cc2ed"/><path d="m214.582031 454.796875h190.515625v-89.652344c-34.789062-32.742187-95.578125-89.953125-111.859375-105.277343-2.308593-2.175782-5.910156-2.171876-8.21875.003906l-57.496093 54.113281zm0 0" fill="#0e958f"/><path d="m381.097656 449h24v-83.855469c-6.011718-5.660156-16.796875-15.8125-24-22.585937zm0 0" fill="#0b736e"/><path d="m144.203125 243.304688-120.140625 113.066406v92.628906h271.523438l71.660156-3.511719s-184.777344-173.910156-214.824219-202.1875c-2.3125-2.175781-5.910156-2.167969-8.21875.003907zm0 0" fill="#02af8e"/><path d="m415.664062 504.5h-402.164062c-3.316406 0-6-2.6875-6-6v-54.265625c0-3.3125 2.683594-6 6-6h402.164062c3.3125 0 6 2.6875 6 6v54.265625c0 3.3125-2.6875 6-6 6zm0 0" fill="#a53535"/><path d="m289.132812 438.230469v27.132812c0 3.316407 2.683594 6 6 6h79.117188c3.3125 0 6-2.683593 6-6v-27.132812zm0 0" fill="#717b99"/><g fill="#ffaf10"><path d="m24.0625 98.617188v-43.699219c0-3.316407 2.6875-6 6-6h43.703125zm0 0"/><path d="m355.398438 48.917969h43.703124c3.3125 0 6 2.683593 6 6v43.699219zm0 0"/><path d="m405.101562 388.53125v49.703125h-49.703124zm0 0"/><path d="m73.765625 438.234375h-49.703125v-49.703125zm0 0"/><path d="m371.964844 156.601562c0 18.296876-14.832032 33.132813-33.132813 33.132813-18.296875 0-33.132812-14.835937-33.132812-33.132813 0-18.300781 14.835937-33.132812 33.132812-33.132812 18.300781 0 33.132813 14.832031 33.132813 33.132812zm0 0"/></g><path d="m24.0625 115.183594h82.835938c9.148437 0 16.566406 7.417968 16.566406 16.570312 0 9.148438-7.417969 16.566406-16.566406 16.566406l-33.136719-.003906c-9.148438 0-16.566407 7.417969-16.566407 16.570313 0 9.148437 7.417969 16.566406 16.566407 16.566406h66.269531c9.148438 0 16.566406 7.417969 16.566406 16.566406 0 9.152344-7.417968 16.566407-16.566406 16.566407h-115.96875zm0 0" fill="#fff"/><path d="m415.664062 438.234375h-24c3.316407 0 6 2.6875 6 6v54.265625c0 3.3125-2.683593 6-6 6h24c3.316407 0 6-2.6875 6-6v-54.265625c0-3.3125-2.6875-6-6-6zm0 0" fill="#8c2727"/><path d="m356.246094 438.230469v27.132812c0 3.316407-2.683594 6-6 6h24.003906c3.3125 0 6-2.683593 6-6v-27.132812zm0 0" fill="#5c647d"/><path d="m399.097656 48.917969h-24c3.316406 0 6 2.683593 6 6v19.699219l24 24v-43.699219c0-3.3125-2.683594-6-6-6zm0 0" fill="#ff890a"/><path d="m405.097656 438.234375v-49.699219l-24 24v25.695313zm0 0" fill="#ff890a"/><path d="m421.664062 430.734375h-9.0625v-381.816406c0-4.144531-3.359374-7.5-7.5-7.5h-141.605468v-33.917969c0-4.144531-3.355469-7.5-7.5-7.5h-66.261719c-4.140625 0-7.5 3.355469-7.5 7.5v33.917969h-23.035156c-4.140625 0-7.5 3.355469-7.5 7.5 0 4.140625 3.359375 7.5 7.5 7.5h193.09375l45.308593 45.308593v246.058594l-103.328124-97.246094c-2.890626-2.71875-7.394532-2.71875-10.28125 0l-56.46875 53.144532c-35.507813-33.417969-72.257813-68.007813-74-69.644532-.300782-.292968-.632813-.5625-.992188-.808593-2.910156-1.976563-6.796875-1.664063-9.355469.742187l-111.609375 105.042969v-116.929687h108.464844c13.273438 0 24.066406-10.796876 24.066406-24.066407 0-13.273437-10.792968-24.066406-24.066406-24.066406l-66.269531-.003906c-4.996094 0-9.066407-4.066407-9.066407-9.0625 0-5 4.070313-9.066407 9.066407-9.066407h33.136719c13.269531 0 24.066406-10.796874 24.066406-24.066406 0-13.273437-10.796875-24.066406-24.066406-24.066406h-75.332032v-5.960938l45.304688-45.308593h52.277344c4.140624 0 7.5-3.355469 7.5-7.5 0-4.140625-3.359376-7.5-7.5-7.5h-105.082032c-4.144531 0-7.5 3.359375-7.5 7.5v381.820312h-9.066406c-4.140625 0-7.5 3.355469-7.5 7.5v66.261719c0 4.144531 3.359375 7.5 7.5 7.5h414.164062c4.144532 0 7.5-3.355469 7.5-7.5v-66.265625c0-4.140625-3.355468-7.5-7.5-7.5zm-125.03125 15h76.117188v18.128906h-76.117188zm100.964844-15h-17.289062c-.023438 0-.039063-.003906-.058594-.003906s-.039062.003906-.058594.003906h-6.6875l24.09375-24.09375zm-200.363281-415.734375h51.261719v26.417969h-18.132813v-9.070313c0-4.140625-3.355469-7.5-7.5-7.5-4.140625 0-7.5 3.359375-7.5 7.5v9.070313h-18.128906zm176.273437 41.417969h24.09375v24.09375zm-225.195312 193.316406 135.679688 127.695313c1.449218 1.359374 3.292968 2.035156 5.140624 2.035156 1.992188 0 3.984376-.789063 5.460938-2.359375 2.839844-3.015625 2.695312-7.761719-.320312-10.601563-.601563-.5625-26.433594-24.875-55.804688-52.519531l50.664062-47.683594 108.46875 102.085938v17.039062l-45.3125 45.308594h-63.078124c-.027344 0-.050782-.003906-.078126-.003906-.027343 0-.050781.003906-.078124.003906h-212.183594l-45.308594-45.308594v-25.8125zm-116.746094 156.90625 24.09375 24.09375h-24.09375zm75.332032-283.957031c5 0 9.066406 4.070312 9.066406 9.066406 0 5-4.066406 9.066406-9.066406 9.066406h-33.136719c-13.269531 0-24.066407 10.796875-24.066407 24.066406 0 13.269532 10.796876 24.066407 24.066407 24.066407h66.269531c5 0 9.066406 4.066406 9.066406 9.066406s-4.066406 9.066406-9.066406 9.066406h-108.464844v-84.398437zm-75.332032-66.265625h24.09375l-24.09375 24.09375zm382.597656 440.582031h-399.164062v-51.265625h266.632812v25.628906c0 4.144531 3.355469 7.5 7.5 7.5h91.117188c4.140625 0 7.5-3.355469 7.5-7.5v-25.628906h26.414062zm0 0"/><path d="m73.761719 463.863281h-24.847657c-4.140624 0-7.5 3.359375-7.5 7.5 0 4.144531 3.359376 7.5 7.5 7.5h24.851563c4.140625 0 7.5-3.355469 7.5-7.5-.003906-4.140625-3.359375-7.5-7.503906-7.5zm0 0"/><path d="m379.46875 156.601562c0-22.40625-18.230469-40.632812-40.636719-40.632812s-40.632812 18.226562-40.632812 40.632812 18.230469 40.632813 40.632812 40.632813c22.40625 0 40.636719-18.226563 40.636719-40.632813zm-66.269531 0c0-14.132812 11.5-25.632812 25.632812-25.632812 14.136719 0 25.636719 11.5 25.636719 25.632812 0 14.132813-11.5 25.632813-25.636719 25.632813-14.132812 0-25.632812-11.5-25.632812-25.632813zm0 0"/></svg>