<?xml version="1.0" encoding="iso-8859-1"?>
<!-- Generator: Adobe Illustrator 19.0.0, SVG Export Plug-In . SVG Version: 6.00 Build 0)  -->
<svg version="1.1" id="Capa_1" xmlns="http://www.w3.org/2000/svg" xmlns:xlink="http://www.w3.org/1999/xlink" x="0px" y="0px"
	 viewBox="0 0 512 512" style="enable-background:new 0 0 512 512;" xml:space="preserve">
<rect x="15.515" y="7.507" style="fill:#F3F2ED;" width="464.454" height="384.375"/>
<polygon style="fill:#81DADD;" points="15.515,311.805 95.593,231.726 191.687,303.797 383.875,119.617 479.969,223.718 
	479.969,391.883 15.515,391.883 "/>
<circle style="fill:#FFE340;" cx="191.687" cy="127.625" r="48.047"/>
<rect x="15.515" y="7.507" style="fill:#E7E5DA;" width="24.023" height="384.375"/>
<path style="fill:#FFDA00;" d="M167.664,127.625c0-22.388,15.312-41.199,36.035-46.533c-3.839-0.988-7.864-1.513-12.012-1.513
	c-26.536,0-48.047,21.511-48.047,48.047s21.511,48.047,48.047,48.047c4.148,0,8.173-0.526,12.012-1.513
	C182.976,168.824,167.664,150.012,167.664,127.625z"/>
<path style="fill:#43C8CB;" d="M39.539,287.781v104.102H15.515v-80.078"/>
<path style="fill:#F3F2ED;" d="M176.172,416.407c0,0,64.063-88.086,160.156-88.086s160.156,88.086,160.156,88.086
	s-64.063,88.086-160.156,88.086S176.172,416.407,176.172,416.407z"/>
<path style="fill:#E7E5DA;" d="M352.344,488.477c-96.094,0-160.156-88.086-160.156-88.086s4.309-5.919,12.35-14.678
	c-18.234,16.771-28.366,30.694-28.366,30.694s64.063,88.086,160.156,88.086c71.201,0,124.806-48.352,147.806-73.408
	C456.498,456.506,410.24,488.477,352.344,488.477z"/>
<circle style="fill:#809292;" cx="336.329" cy="416.407" r="64.063"/>
<path style="fill:#6C8181;" d="M360.352,464.454c-35.381,0-64.063-28.682-64.063-64.063c0-17.019,6.65-32.476,17.475-43.948
	c-24.246,9.128-41.499,32.527-41.499,59.964c0,35.381,28.682,64.063,64.063,64.063c18.362,0,34.907-7.737,46.587-20.115
	C375.896,462.997,368.295,464.454,360.352,464.454z"/>
<circle style="fill:#F9F8F6;" cx="351.844" cy="399.891" r="16.016"/>
<path d="M191.687,183.179c30.633,0,55.554-24.921,55.554-55.554S222.32,72.07,191.687,72.07s-55.554,24.921-55.554,55.554
	S161.054,183.179,191.687,183.179z M191.687,87.085c22.354,0,40.54,18.186,40.54,40.54s-18.187,40.54-40.54,40.54
	s-40.54-18.186-40.54-40.54S169.333,87.085,191.687,87.085z"/>
<path d="M199.195,47.546V31.531c0-4.147-3.361-7.507-7.507-7.507s-7.507,3.36-7.507,7.507v16.016c0,4.147,3.361,7.507,7.507,7.507
	S199.195,51.693,199.195,47.546z"/>
<path d="M151.655,65.783c5.693,0,9.325-6.36,6.494-11.262l-8.008-13.87c-2.073-3.592-6.665-4.819-10.255-2.748
	c-3.591,2.073-4.821,6.665-2.748,10.255l8.008,13.87C146.537,64.437,149.061,65.783,151.655,65.783z"/>
<path d="M126.091,81.084l-13.87-8.008c-3.592-2.072-8.182-0.844-10.255,2.748c-2.073,3.591-0.843,8.182,2.748,10.255l13.87,8.008
	c3.637,2.099,8.372,0.701,10.366-2.964C130.851,87.63,129.528,83.068,126.091,81.084z"/>
<path d="M88.086,127.625c0,4.147,3.361,7.507,7.507,7.507h16.016c4.146,0,7.507-3.36,7.507-7.507c0-4.147-3.361-7.507-7.507-7.507
	H95.593C91.447,120.117,88.086,123.478,88.086,127.625z"/>
<path d="M118.584,161.162l-13.87,8.008c-3.265,1.886-4.642,6.051-3.126,9.508c1.772,4.041,6.803,5.706,10.633,3.495l13.87-8.008
	c3.591-2.073,4.821-6.665,2.748-10.255C126.765,160.319,122.174,159.091,118.584,161.162z"/>
<path d="M145.147,193.221l-8.008,13.87c-1.886,3.265-0.994,7.561,2.047,9.797c3.56,2.619,8.751,1.531,10.957-2.289l8.008-13.87
	c2.073-3.591,0.843-8.182-2.748-10.255C151.811,188.4,147.22,189.629,145.147,193.221z"/>
<path d="M184.18,207.703v16.016c0,4.091,3.416,7.507,7.507,7.507s7.507-3.416,7.507-7.507v-16.016c0-4.147-3.361-7.507-7.507-7.507
	S184.18,203.556,184.18,207.703z"/>
<path d="M227.973,190.473c-3.59,2.073-4.821,6.665-2.748,10.255l8.008,13.87c2.206,3.822,7.395,4.909,10.957,2.289
	c3.04-2.236,3.932-6.531,2.047-9.797l-8.008-13.87C236.155,189.63,231.562,188.401,227.973,190.473z"/>
<path d="M257.283,174.165l13.87,8.008c3.831,2.21,8.862,0.546,10.633-3.495c1.516-3.456,0.139-7.622-3.126-9.508l-13.87-8.008
	c-3.592-2.072-8.183-0.845-10.255,2.748C252.463,167.501,253.693,172.092,257.283,174.165z"/>
<path d="M264.258,127.625c0,4.147,3.36,7.507,7.507,7.507h16.016c4.147,0,7.507-3.36,7.507-7.507c0-4.147-3.36-7.507-7.507-7.507
	h-16.016C267.618,120.117,264.258,123.478,264.258,127.625z"/>
<path d="M271.154,73.076l-13.87,8.008c-3.265,1.886-4.642,6.052-3.126,9.508c1.771,4.04,6.804,5.707,10.633,3.495l13.87-8.008
	c3.591-2.073,4.821-6.665,2.748-10.255C279.336,72.233,274.742,71.005,271.154,73.076z"/>
<path d="M231.719,65.783c2.595,0,5.118-1.346,6.508-3.755l8.008-13.87c2.073-3.591,0.843-8.182-2.748-10.255
	c-3.592-2.072-8.182-0.844-10.255,2.748l-8.008,13.87C222.395,59.422,226.026,65.783,231.719,65.783z"/>
<path d="M502.556,411.991c-0.382-0.526-5.709-7.787-15.378-18.032c0.19-0.661,0.297-1.355,0.297-2.077V7.507
	c0-4.147-3.36-7.507-7.507-7.507H15.514c-4.145,0-7.506,3.36-7.506,7.507v56.388c0,4.147,3.361,7.507,7.507,7.507
	s7.507-3.36,7.507-7.507V15.015h449.439v189.503l-83.07-89.993c-2.809-3.044-7.722-3.195-10.71-0.328L191.094,293.968
	l-90.996-68.248c-2.989-2.242-7.172-1.944-9.813,0.697L23.023,293.68V95.593c0-4.147-3.361-7.507-7.507-7.507
	s-7.507,3.36-7.507,7.507v216.209c0,0.001,0,0.003,0,0.005v80.075c0,4.147,3.361,7.507,7.507,7.507h164.982
	c-6.507,7.299-10.087,12.175-10.397,12.601c-1.915,2.633-1.915,6.198,0,8.831c0.679,0.934,16.957,23.123,45.476,45.53
	C253.584,496.215,295.339,512,336.329,512s82.745-15.785,120.752-45.648c28.519-22.409,44.797-44.598,45.476-45.53
	C504.471,418.189,504.471,414.624,502.556,411.991z M23.023,314.915l73.276-73.276l90.885,68.164
	c2.941,2.204,7.045,1.958,9.698-0.586l186.664-178.888l88.916,96.324v152.848c-4.639-4.233-9.769-8.631-15.381-13.041
	c-38.007-29.862-79.763-45.648-120.752-45.648s-82.745,15.785-120.752,45.648c-8.047,6.322-15.118,12.627-21.14,18.442
	c-0.853-0.336-1.778-0.527-2.75-0.527H23.023V314.915z M336.329,496.985c-47.334,0-86.564-22.934-111.137-42.174
	c-19.682-15.41-33.415-31.002-39.47-38.401c14.314-17.446,71.594-80.583,150.606-80.583c47.334,0,86.564,22.934,111.137,42.174
	c19.684,15.411,33.417,31.004,39.471,38.401C472.621,433.849,415.34,496.985,336.329,496.985z"/>
<path d="M336.329,344.837c-39.464,0-71.57,32.106-71.57,71.57s32.106,71.57,71.57,71.57s71.57-32.106,71.57-71.57
	S375.792,344.837,336.329,344.837z M336.329,472.962c-31.184,0-56.555-25.371-56.555-56.555s25.371-56.555,56.555-56.555
	s56.555,25.371,56.555,56.555S367.513,472.962,336.329,472.962z"/>
<path d="M351.844,376.368c-12.971,0-23.523,10.552-23.523,23.523c0,12.971,10.552,23.523,23.523,23.523s23.523-10.552,23.523-23.523
	C375.367,386.92,364.814,376.368,351.844,376.368z M351.844,408.399c-4.692,0-8.508-3.817-8.508-8.508
	c0-4.692,3.817-8.508,8.508-8.508s8.508,3.817,8.508,8.508C360.352,404.582,356.534,408.399,351.844,408.399z"/>
<g>
</g>
<g>
</g>
<g>
</g>
<g>
</g>
<g>
</g>
<g>
</g>
<g>
</g>
<g>
</g>
<g>
</g>
<g>
</g>
<g>
</g>
<g>
</g>
<g>
</g>
<g>
</g>
<g>
</g>
</svg>
