<?xml version="1.0" encoding="iso-8859-1"?>
<!-- Generator: Adobe Illustrator 19.0.0, SVG Export Plug-In . SVG Version: 6.00 Build 0)  -->
<svg version="1.1" id="Layer_1" xmlns="http://www.w3.org/2000/svg" xmlns:xlink="http://www.w3.org/1999/xlink" x="0px" y="0px"
	 viewBox="0 0 512 512" style="enable-background:new 0 0 512 512;" xml:space="preserve">
<g>
	<polygon style="fill:#F0C419;" points="0,450.209 512,450.209 512,61.795 0,61.795 	"/>
	<g>
		<path style="fill:#BA9213;" d="M0,74.274l68.793,68.793c1.721,1.721,3.981,2.586,6.241,2.586s4.52-0.865,6.241-2.586
			c3.452-3.452,3.452-9.031,0-12.482L12.482,61.792H0V74.274z"/>
		<path style="fill:#BA9213;" d="M512,61.791h-12.482l-67.505,67.496c-3.443,3.452-3.443,9.039,0,12.491
			c1.73,1.721,3.99,2.586,6.241,2.586c2.26,0,4.52-0.865,6.25-2.586L512,74.273V61.791z"/>
		<path style="fill:#BA9213;" d="M512,437.722l-82.035-82.035c-3.452-3.452-9.031-3.452-12.482,0c-3.452,3.452-3.452,9.031,0,12.482
			l82.035,82.035H512V437.722z"/>
		<path style="fill:#BA9213;" d="M68.793,368.929L0,437.722v12.482h12.482l68.793-68.793c3.452-3.452,3.452-9.031,0-12.482
			C77.824,365.478,72.245,365.478,68.793,368.929"/>
	</g>
	<polygon style="fill:#ECF0F1;" points="52.966,397.244 459.034,397.244 459.034,114.761 52.966,114.761 	"/>
	<path style="fill:#F18D46;" d="M414.897,335.446c-21.372-32.062-50.644-79.448-114.759-79.448
		c-47.078,0-98.18,30.976-114.759,61.793l17.655,52.966l203.034-8.828L414.897,335.446z"/>
	<path style="fill:#177F41;" d="M459.034,291.308c-53.433,53.433-132.414,61.793-211.862,61.793L256,397.239h203.034V291.308z"/>
	<path style="fill:#BDC3C7;" d="M282.483,220.687c-4.873,0-8.828-3.955-8.828-8.828c0-13.859,12.623-26.483,26.483-26.483h9.843
		c4.467-19.368,23.013-35.31,43.123-35.31c23.102,0,44.138,21.036,44.138,44.138c0,4.873-3.955,8.828-8.828,8.828
		s-8.828-3.955-8.828-8.828c0-13.365-13.118-26.483-26.483-26.483s-26.483,13.118-26.483,26.483c0,4.873-3.955,8.828-8.828,8.828
		h-17.655c-4.211,0-8.828,4.617-8.828,8.828C291.31,216.733,287.356,220.687,282.483,220.687"/>
	<g>
		<path style="fill:#24AE5F;" d="M211.862,203.032c0,29.255-23.711,52.966-52.966,52.966s-52.966-23.711-52.966-52.966
			s23.711-52.966,52.966-52.966S211.862,173.778,211.862,203.032"/>
		<path style="fill:#24AE5F;" d="M291.31,397.239c-73.039-88.567-117.628-115.933-238.345-123.586v123.586H291.31z"/>
	</g>
	<path style="fill:#805333;" d="M182.793,196.791c-3.452-3.452-9.031-3.452-12.482,0l-11.414,11.414l-11.414-11.414
		c-3.452-3.452-9.031-3.452-12.482,0c-3.452,3.452-3.452,9.031,0,12.482l15.069,15.069v128.759c0,4.873,3.955,8.828,8.828,8.828
		c4.873,0,8.828-3.955,8.828-8.828V224.342l15.069-15.069C186.244,205.822,186.244,200.243,182.793,196.791"/>
</g>
<g>
</g>
<g>
</g>
<g>
</g>
<g>
</g>
<g>
</g>
<g>
</g>
<g>
</g>
<g>
</g>
<g>
</g>
<g>
</g>
<g>
</g>
<g>
</g>
<g>
</g>
<g>
</g>
<g>
</g>
</svg>
