<?xml version="1.0" encoding="iso-8859-1"?>
<!-- Generator: Adobe Illustrator 19.0.0, SVG Export Plug-In . SVG Version: 6.00 Build 0)  -->
<svg version="1.1" id="Capa_1" xmlns="http://www.w3.org/2000/svg" xmlns:xlink="http://www.w3.org/1999/xlink" x="0px" y="0px"
	 viewBox="0 0 480 480" style="enable-background:new 0 0 480 480;" xml:space="preserve">
<path style="fill:#A97C50;" d="M8,460h464V156H8V460z M40,410.272V188h400v240H40V410.272z"/>
<path style="fill:#FCC470;" d="M440,316H328l-24-32l-25.144,30.856L304,340l-25.144-25.144L256,332l-16-8l-16,8l-24-16l-44,44
	l8.72,8.72L184,388l-19.28-19.28L136,388l-16-16l-16,16l-19.296-16.848c-22.232,20-44.704,40-44.704,39.12V428h400V316z"/>
<g>
	<path style="fill:#CCE5F7;" d="M200,316l24,16l16-8l16,8l22.856-17.144L240,276L200,316z"/>
	<path style="fill:#CCE5F7;" d="M84.704,371.152L104,388l16-16l16,16l28.72-19.28L156,360l-28-28
		C128,332,106.464,351.576,84.704,371.152z"/>
</g>
<path style="fill:#FFEB99;" d="M40,188v222.272c0,0.872,22.472-19.128,44.704-39.12C106.464,351.576,128,332,128,332l28,28l44-44
	l40-40l38.856,38.856L304,284l24,32h112V188H40z M128,260c-8.837,0-16-7.163-16-16c0-8.837,7.163-16,16-16s16,7.163,16,16
	C144,252.837,136.837,260,128,260z"/>
<circle style="fill:#F15A29;" cx="128" cy="244" r="16"/>
<path style="fill:#FF9275;" d="M240,52c8.788-0.048,15.873-7.211,15.825-15.999s-7.211-15.873-15.999-15.825
	s-15.873,7.211-15.825,15.999c0.014,2.5,0.616,4.961,1.759,7.185C228.543,48.653,234.02,51.976,240,52z"/>
<g>
	<path style="fill:#353535;" d="M475.632,148.976l0.04-0.088L263.624,39.2c0.193-1.058,0.319-2.126,0.376-3.2
		c0-13.255-10.745-24-24-24c-13.255,0-24,10.745-24,24c0.056,1.074,0.184,2.143,0.384,3.2L4.328,148.888v0.088
		C1.686,150.325,0.017,153.034,0,156v304c0,4.418,3.582,8,8,8h464c4.418,0,8-3.582,8-8V156
		C479.976,153.025,478.289,150.313,475.632,148.976z M223.632,53.472c9.174,8.703,23.554,8.703,32.728,0L439.112,148H40.888
		L223.632,53.472z M240,28c4.445,0.012,8.038,3.625,8.026,8.07c-0.003,1.224-0.286,2.432-0.826,3.53
		c-2.404,3.968-7.569,5.236-11.537,2.832c-1.132-0.685-2.085-1.628-2.783-2.752c-0.577-1.141-0.879-2.401-0.88-3.68
		C232,31.582,235.582,28,240,28L240,28z M464,452H16V164h448V452z"/>
	<path style="fill:#353535;" d="M40,436h400c4.418,0,8-3.582,8-8V188c0-4.418-3.582-8-8-8H40c-4.418,0-8,3.582-8,8v240
		C32,432.418,35.582,436,40,436z M48,420v-6.104c6.344-4.76,17.128-14.176,36.88-32L98.736,394c3.17,2.769,7.944,2.608,10.92-0.368
		L120,383.312l10.344,10.344c2.703,2.701,6.939,3.113,10.112,0.984l23.256-15.616l14.632,14.632c1.5,1.5,3.534,2.344,5.656,2.344h48
		v-16h-44.688l-20-20l33.704-33.704l18.544,12.36c2.387,1.579,5.433,1.77,8,0.504l12.44-6.216l12.424,6.216
		c1.112,0.551,2.335,0.839,3.576,0.84c1.731,0,3.415-0.561,4.8-1.6l17.304-12.984l20.24,20.24c1.5,1.5,3.534,2.344,5.656,2.344h64
		v-16h-60.688L289.6,314.312l14.112-17.328L321.6,320.8c1.511,2.014,3.882,3.2,6.4,3.2h104v96L48,420z M152.184,367.496
		l-15.2,10.192l-11.344-11.344c-3.124-3.123-8.188-3.123-11.312,0l-10.712,10.712l-6.808-5.944c8.84-8,18.976-17.208,30.912-28.064
		L152.184,367.496z M212.56,314.752l27.44-27.44l26.68,26.68l-11.52,8.64l-11.584-5.832c-2.251-1.125-4.901-1.125-7.152,0
		l-11.848,5.928L212.56,314.752z M432,196v112H332l-21.6-28.8c-1.477-1.97-3.778-3.15-6.24-3.2c-2.456,0.023-4.784,1.095-6.4,2.944
		l-19.552,24l-32.592-32.592c-3.124-3.123-8.188-3.123-11.312,0L156,348.688l-22.344-22.344c-3.019-3.021-7.88-3.137-11.04-0.264
		c-22.864,20.8-56.592,51.2-74.616,67.096V196L432,196z"/>
	<path style="fill:#353535;" d="M408,236c0-13.255-10.745-24-24-24v16c4.418,0,8,3.582,8,8s-3.582,8-8,8h-48v16h48
		C397.255,260,408,249.255,408,236z"/>
	<path style="fill:#353535;" d="M128,268c13.255,0,24-10.745,24-24c0-13.255-10.745-24-24-24s-24,10.745-24,24
		C104,257.255,114.745,268,128,268z M128,236c4.418,0,8,3.582,8,8s-3.582,8-8,8s-8-3.582-8-8S123.582,236,128,236z"/>
</g>
<g>
</g>
<g>
</g>
<g>
</g>
<g>
</g>
<g>
</g>
<g>
</g>
<g>
</g>
<g>
</g>
<g>
</g>
<g>
</g>
<g>
</g>
<g>
</g>
<g>
</g>
<g>
</g>
<g>
</g>
</svg>
