<svg height="471pt" viewBox="-3 1 471 471.99829" width="471pt" xmlns="http://www.w3.org/2000/svg"><path d="m.5 104h464v368h-464zm0 0" fill="#a65a14"/><path d="m32.5 120h400v336h-400zm0 0" fill="#ffcdbf"/><path d="m344.5 128c-2.121094-.003906-4.15625-.84375-5.65625-2.347656l-106.34375-106.34375-106.34375 106.34375c-3.140625 3.035156-8.128906 2.992187-11.214844-.09375-3.085937-3.085938-3.128906-8.078125-.097656-11.214844l112-112c3.125-3.125 8.1875-3.125 11.3125 0l112 112c2.285156 2.285156 2.96875 5.726562 1.730469 8.714844-1.234375 2.988281-4.152344 4.9375-7.386719 4.941406zm0 0" fill="#e6e6e6"/><path d="m432.5 136 32-32h-464l32 32zm0 0" fill="#763a02"/><path d="m80.5 472c0-35.347656 28.652344-64 64-64h176c35.34375 0 64 28.652344 64 64zm0 0" fill="#6cbbc7"/><g fill="#ffdaaa"><path d="m200.5 376h64v32c0 17.671875-14.328125 32-32 32-17.675781 0-32-14.328125-32-32zm0 0"/><path d="m152.5 280h-24c-8.835938 0-16 7.160156-16 16 0 8.835938 7.164062 16 16 16h24zm0 0"/><path d="m312.5 280h24c8.835938 0 16 7.160156 16 16 0 8.835938-7.164062 16-16 16h-24zm0 0"/></g><path d="m.5 472 32-32h400l32 32zm0 0" fill="#763a02"/><path d="m320.5 216v88c0 48.597656-39.398438 88-88 88s-88-39.402344-88-88v-88zm0 0" fill="#ffe9cc"/><path d="m216.5 304h-16v-8c0-4.421875-3.582031-8-8-8s-8 3.578125-8 8v8h-16v-8c0-13.257812 10.746094-24 24-24s24 10.742188 24 24zm0 0" fill="#592c02"/><path d="m296.5 304h-16v-8c0-4.421875-3.582031-8-8-8s-8 3.578125-8 8v8h-16v-8c0-13.257812 10.746094-24 24-24s24 10.742188 24 24zm0 0" fill="#592c02"/><path d="m208.5 328h48v8c0 13.253906-10.746094 24-24 24s-24-10.746094-24-24zm0 0" fill="#ff421d"/><path d="m144.5 216v16h176c26.507812 0 48-21.492188 48-48v-16h-176c-26.511719 0-48 21.488281-48 48zm0 0" fill="#ffa900"/></svg>