<svg height="511pt" viewBox="-44 1 511 511.999" width="511pt" xmlns="http://www.w3.org/2000/svg"><path d="m47.179688 55.378906v401.242188h328.339843v-401.242188zm111.019531 152.3125h-.007813s0 0-.011718 0c0 0 0 0-.011719 0 0 0 0 0-.007813 0-.191406-.011718-.390625-.019531-.589844-.03125.1875.011719.378907.019532.558594.019532.171875.011718.351563.011718.53125.019531m11.820313-.550781v-.007813h.007812zm.078125-.007813h-.007813v-.011719h.019531s0 .011719-.011718.011719zm.082031-.011719s0 0-.011719 0c0 0 0 0-.007812 0v-.007812h.007812.019532c0 .007812 0 .007812-.007813.007812zm.078125-.007812h-.019531c-.007813 0-.007813 0-.007813 0v-.011719h.007813.011719.007812.011719s0 .011719-.011719.011719zm.0625-.011719h-.023438c-.007812 0-.007812 0-.007812 0h-.011719v-.007813h.011719.03125.007812c0 .007813 0 .007813-.007812.007813zm.058594-.007813c-.011719 0-.011719 0-.011719 0s0 0-.007813 0v-.011718h.007813.019531s0 .011718-.007812.011718zm.070312-.011718s0 0-.011718 0h-.007813c-.011719 0-.011719 0-.011719 0v-.011719h.039063c-.007813.011719-.007813.011719-.007813.011719zm.53125-.058594v-.011719h.007813s0 0-.007813.011719zm.078125-.011719h-.019531c-.011719 0-.011719 0-.011719 0v-.007812h.019531.023438s0 .007812-.011719.007812zm.628907-.089843h-.007813c-.0625.011718-.109375.011718-.171875.019531.0625-.007813.109375-.019531.171875-.027344h.019531c-.011718 0-.011718.007813-.011718.007813zm.0625-.007813v-.011719h.007812s0 .011719-.007812.011719zm.070312-.011719c-.011719 0-.011719 0-.011719 0v-.011718h.019531zm.058594-.011718v-.007813m45.058594-12.601563s0 0-.007813-.007812h.007813.011718c.03125.039062.070313.070312.097656.109375-.027343-.03125-.066406-.070313-.109374-.101563zm0 0" fill="#f5dcb4"/><path d="m155.320312 219.761719v51.699219c-14.269531 0-25.851562-11.570313-25.851562-25.851563s11.582031-25.847656 25.851562-25.847656zm0 0" fill="#f2bb88"/><path d="m284.078125 245.609375c0 14.28125-11.570313 25.851563-25.847656 25.851563v-51.699219c14.277343 0 25.847656 11.566406 25.847656 25.847656zm0 0" fill="#f2bb88"/><path d="m375.519531 397v83.5625h-328.339843v-83.5625l78.71875-54.460938 27.5-19.027343 9.410156-6.511719c0 21.308594 21.75 32.191406 43.972656 32.648438 23.1875.492187 46.898438-10.398438 46.898438-32.648438l9.070312 5.949219 33.128906 21.761719zm0 0" fill="#736572"/><path d="m155.902344 342.539062 12.570312-8.699218c-3.5625-4.605469-5.664062-10.21875-5.664062-16.839844l-9.410156 6.511719-27.5 19.027343-78.71875 54.460938v83.5625h30v-77.667969c0-3.691406 1.8125-7.148437 4.851562-9.246093zm0 0" fill="#605260"/><path d="m155.320312 203.460938v9.539062h102.910157v-9.539062zm11 4.078124c2.089844-.148437 4.140626-.367187 6.140626-.660156-2 .292969-4.050782.519532-6.140626.660156zm0 0" fill="#76a199"/><path d="m219.238281 100.550781h-24.929687c-26.070313 0-47.199219 21.128907-47.199219 47.199219v55.710938h119.332031v-55.710938c0-26.070312-21.132812-47.199219-47.203125-47.199219zm-4.828125 90.730469c.449219.457031.929688.949219 1.4375 1.46875-.519531-.519531-1-1.011719-1.4375-1.46875zm2.238282 2.269531c.492187.480469 1.011718.980469 1.550781 1.5-.550781-.511719-1.058594-1.011719-1.550781-1.5zm41.582031 2.019531-1.8125-.320312h1.8125zm0 0" fill="#736572"/><path d="m246.652344 193.550781c.488281.488281 1 .988281 1.550781 1.5-.542969-.519531-1.0625-1.019531-1.550781-1.5zm0 0" fill="#658a83"/><path d="m244.410156 191.28125c.441406.457031.921875.949219 1.441406 1.46875-.511718-.519531-.988281-1.011719-1.441406-1.46875zm0 0" fill="#658a83"/><path d="m221.777344 100.621094c-.84375-.046875-1.6875-.070313-2.539063-.070313h-24.929687c-26.070313 0-47.199219 21.128907-47.199219 47.199219v55.710938h30.003906v-55.710938c0-25.21875 19.773438-45.8125 44.664063-47.128906zm0 0" fill="#605260"/><path d="m275.121094 390 14.667968 34.328125-20.96875 30v2.292969h-57.890624l12.699218-32.761719 13.832032-35.6875 25.289062-65.222656 33.128906 21.761719 5.910156 44.820312zm0 0" fill="#605260"/><path d="m153.878906 456.621094v-2.292969l-20.96875-30 14.667969-34.328125-26.667969-.46875 6-45.53125-1.011718-1.460938 27.5-19.027343 20.992187 56.539062 3.347656 9.050781 12.492188 33.648438 12.570312 33.871094zm0 0" fill="#605260"/><path d="m222.257812 375.75-7.949218 13.78125h-15.917969l-7.949219-13.78125 7.949219-13.78125h15.917969zm0 0" fill="#ee7124"/><path d="m223.628906 423.859375-12.699218 32.761719h-8.128907l-12.570312-33.871094.210937-.078125 10.238282-32.671875h11.339843l10.238281 33.328125zm0 0" fill="#e05922"/><g fill="#e6e6f0"><path d="m237.460938 388.171875-13.832032 35.6875-1.371094-.53125-10.238281-33.328125v-.46875h2.289063l7.949218-13.78125-7.949218-13.78125h-15.917969l-.441406-.320312 8.832031-12zm0 0"/><path d="m212.019531 389.53125v.46875h-11.339843l-10.238282 32.671875-.210937.078125-9.851563-26.539062-2.640625-7.109376 20.210938-27.453124.441406.320312-7.949219 13.78125 7.949219 13.78125zm0 0"/><path d="m262.75 322.949219-3.539062 9.128906-1.78125 4.601563-15.96875 41.191406-4 10.300781-30.679688-38.523437c.128906.011718.269531.011718.410156.011718.347656.011719.699219.011719 1.058594.011719 7.089844 0 14.191406-1.0625 20.597656-3.191406.320313-.109375.640625-.21875.960938-.332031h.011718c.890626-.308594 1.757813-.648438 2.621094-1.007813.097656-.039063.199219-.082031.289063-.121094.570312-.230469 1.128906-.480469 1.679687-.738281.6875-.320312 1.359375-.660156 2.019532-1 .480468-.261719.960937-.519531 1.417968-.792969h.011719c.550781-.316406 1.089844-.648437 1.621094-.988281 2.140625-1.359375 4.089843-2.898438 5.820312-4.601562.769531-.75 1.488281-1.539063 2.160157-2.359376.359374-.429687.699218-.878906 1.027343-1.328124.28125-.382813.550781-.769532.8125-1.160157.648438-1 1.238281-2.039062 1.757813-3.128906.222656-.460937.429687-.933594.621094-1.410156.410156-1 .761718-2.03125 1.039062-3.089844.140625-.523437.269531-1.050781.378906-1.582031.121094-.570313.222656-1.148438.300782-1.738282.179687-1.320312.28125-2.691406.28125-4.101562zm0 0"/><path d="m206.78125 349.648438-8.832031 12-20.210938 27.453124-24.339843-65.589843 9.410156-6.511719c0 .371094.011718.738281.019531 1.101562.019531.617188.0625 1.226563.121094 1.828126.121093 1.199218.308593 2.371093.570312 3.5.019531.109374.050781.21875.078125.332031.171875.699219.363282 1.386719.59375 2.058593.058594.199219.128906.390626.199219.589844.097656.300782.207031.589844.328125.890625.109375.269531.222656.527344.339844.800781.121094.269532.242187.546876.371094.820313.351562.726563.71875 1.429687 1.128906 2.109375.152344.25.300781.5.460937.738281.121094.199219.238281.390625.371094.570313.46875.710937.980469 1.390625 1.519531 2.050781.140625.179687.289063.347656.4375.53125.121094.136719.242188.277344.363282.417969.179687.199218.359374.398437.539062.589844.53125.570312 1.078125 1.121093 1.660156 1.660156.210938.191406.417969.378906.628906.558594.210938.179687.421876.363281.628907.542968.132812.117188.261719.230469.402343.328125.21875.179688.4375.359375.660157.519531.738281.582032 1.5 1.132813 2.300781 1.652344.417969.277344.847656.546875 1.289062.808594.109376.078125.230469.148438.359376.210938.417968.257812.859374.507812 1.300781.75.058593.039062.128906.070312.1875.097656.550781.300781 1.121093.589844 1.691406.871094.53125.261718 1.070313.511718 1.621094.75.039062.019531.078125.039062.117187.050781.59375.269531 1.191406.519531 1.800782.75 1.199218.480469 2.441406.917969 3.710937 1.308593h.011719c.628906.199219 1.269531.390626 1.917968.5625.011719.007813.019532.007813.03125.007813.640626.179687 1.277344.339844 1.9375.5.640626.160156 1.300782.300781 1.960938.429687.039062.011719.082031.019532.128906.03125.621094.128907 1.25.25 1.882813.351563.058593.019531.109375.027344.167969.027344.570312.101562 1.152343.191406 1.730468.269531.109375.019531.230469.042969.351563.050781.597656.089844 1.21875.160157 1.828125.230469.691406.078125 1.371094.140625 2.0625.191406.667968.058594 1.359375.097656 2.039062.136719h.058594c.679688.042969 1.371094.0625 2.0625.070313zm0 0"/></g><path d="m258.230469 213v72.726562c0 33.847657-23.039063 61.273438-51.449219 61.273438-28.421875 0-51.460938-27.425781-51.460938-61.273438v-72.726562zm0 0" fill="#f2bb88"/><path d="m245.570312 263.871094c0 1.398437-.070312 2.789062-.199218 4.160156-2.089844 20.910156-19.730469 37.21875-41.179688 37.21875-20.710937 0-37.851562-15.199219-40.890625-35.050781-.332031-2.058594-.492187-4.179688-.492187-6.328125 0-12.671875 5.691406-24 14.660156-31.589844 7.199219-6.109375 16.53125-9.792969 26.722656-9.792969 1.238282 0 2.46875.050781 3.679688.160157 10.4375.921874 19.757812 5.722656 26.519531 12.941406 6.9375 7.398437 11.179687 17.339844 11.179687 28.28125zm0 0" fill="#b1f192"/><path d="m193.300781 270.199219c-.328125-2.058594-.488281-4.179688-.488281-6.328125 0-12.671875 5.6875-24 14.660156-31.589844 3.460938-2.9375 7.417969-5.308594 11.722656-6.980469-3.5625-1.390625-7.363281-2.300781-11.324218-2.652343-1.210938-.109376-2.441406-.160157-3.679688-.160157-10.191406 0-19.523437 3.683594-26.722656 9.792969-8.96875 7.589844-14.660156 18.917969-14.660156 31.589844 0 2.148437.160156 4.269531.492187 6.328125 3.039063 19.851562 20.179688 35.050781 40.890625 35.050781 5.289063 0 10.347656-.996094 15.003906-2.808594-13.550781-5.269531-23.628906-17.464844-25.894531-32.242187zm0 0" fill="#a1d685"/><path d="m207.757812 194.679688s-.339843.210937-.988281.570312c-2.511719 1.421875-9.660156 5.179688-19.378906 8.210938-9.011719 2.808593-20.25 4.980468-32.070313 4.058593-2.171874-.160156-4.371093-.441406-6.570312-.828125-30.441406-5.441406-51.21875-31.703125-51.21875-31.703125s22.917969-13.976562 49.578125-13c3.101563.113281 6.261719.433594 9.441406 1 30.4375 5.441407 51.207031 31.691407 51.207031 31.691407zm0 0" fill="#a1d685"/><path d="m269.578125 175.101562c-1.046875-.191406-2.097656-.351562-3.136719-.480468-28.820312-3.710938-55.101562 12.058594-55.75 12.457031h-.011718s2.761718 3.480469 7.730468 8.171875c2.660156 2.511719 5.949219 5.359375 9.789063 8.210938 4.558593 3.378906 9.898437 6.75 15.871093 9.539062 4.390626 2.050781 9.128907 3.78125 14.160157 4.96875 1.167969.28125 2.359375.53125 3.558593.742188 30.371094 5.417968 58.902344-11.980469 58.902344-11.980469s-20.742187-26.199219-51.113281-31.628907zm0 0" fill="#a1d685"/><path d="m8 7.5v497h406.699219v-497zm39.179688 449.121094v-401.242188h328.339843v401.242188zm0 0" fill="#b07d55"/><path d="m8 7.5v497l39.179688-47.878906v-401.242188zm0 0" fill="#a26349"/><path d="m414.699219 7.5v497l-39.179688-47.878906v-401.242188zm0 0" fill="#a26349"/><path d="m420.769531 508.890625c.054688-.074219.109375-.144531.160157-.21875.082031-.117187.148437-.242187.222656-.363281.050781-.089844.109375-.175782.15625-.269532.058594-.105468.105468-.21875.160156-.328124.054688-.109376.109375-.222657.15625-.335938.039062-.097656.070312-.191406.105469-.289062.050781-.136719.101562-.265626.144531-.40625.027344-.085938.042969-.175782.066406-.265626.039063-.148437.082032-.292968.109375-.441406.023438-.113281.035157-.226562.054688-.335937.019531-.128907.042969-.253907.054687-.386719.027344-.246094.039063-.492188.039063-.738281 0-.003907 0-.007813 0-.011719v-497c0-.003906 0-.007812 0-.011719 0-.246093-.015625-.492187-.039063-.738281-.011718-.132812-.035156-.257812-.054687-.382812-.019531-.113282-.03125-.226563-.054688-.339844-.027343-.148438-.070312-.292969-.109375-.441406-.023437-.089844-.039062-.179688-.066406-.265626-.042969-.136718-.09375-.269531-.144531-.40625-.035157-.09375-.066407-.191406-.105469-.289062-.046875-.113281-.101562-.226562-.15625-.335938-.050781-.109374-.101562-.222656-.160156-.328124-.046875-.09375-.105469-.179688-.15625-.269532-.074219-.121094-.144532-.246094-.222656-.363281-.050782-.074219-.105469-.144531-.160157-.21875-.089843-.125-.175781-.25-.273437-.367187-.070313-.085938-.148438-.160157-.21875-.242188-.089844-.101562-.175782-.203125-.273438-.300781-.171875-.171875-.355468-.339844-.546875-.496094-.003906-.003906-.003906-.003906-.007812-.007813-.042969-.035156-.09375-.066406-.136719-.101562-.148438-.113281-.296875-.230469-.453125-.335938-.082031-.050781-.164063-.097656-.242187-.144531-.128907-.082031-.257813-.160156-.394532-.230469-.09375-.054687-.195312-.097656-.292968-.144531-.121094-.058593-.242188-.117187-.367188-.171875-.109375-.042968-.222656-.082031-.332031-.121094-.121094-.042968-.238281-.085937-.359375-.125-.121094-.035156-.242188-.0625-.367188-.09375-.113281-.027343-.226562-.058593-.34375-.082031-.140625-.027343-.28125-.0468748-.421875-.066406-.105469-.0117188-.203125-.03125-.308593-.0429688-.183594-.015625-.371094-.0234374-.554688-.0273437-.058594 0-.117188-.0078125-.175781-.0078125h-406.667969c-.003906 0-.003906 0-.007812 0h-.023438c-.050781 0-.101562.0078125-.152344.0078125-.195312.0039063-.386718.0117187-.582031.0273437-.09375.0117188-.1875.0273438-.28125.0429688-.148437.0195312-.296875.039063-.445313.066406-.109374.023438-.214843.050781-.324218.078125-.128906.035156-.257813.0625-.386719.101563-.117187.035156-.226563.078125-.339844.117187-.117187.042969-.234375.082032-.351562.128906-.121094.046876-.234375.105469-.351563.160157-.105468.050781-.207031.097656-.3125.152343-.128906.066407-.25.144532-.375.222657-.085937.050781-.171875.097656-.253906.15625-.15625.101562-.304688.214843-.453125.332031-.042969.035156-.09375.0625-.140625.101562 0 .003907-.003906.007813-.007812.007813-.191407.15625-.371094.324219-.546876.496094-.097656.097656-.183593.199219-.273437.300781-.074219.082031-.148437.15625-.214844.242188-.101562.117187-.1875.242187-.277343.367187-.054688.074219-.109376.144531-.160157.21875-.078125.117187-.148437.242187-.222656.363281-.050781.089844-.109375.175782-.15625.269532-.058594.105468-.109375.21875-.160156.328124-.054688.113282-.109375.222657-.15625.335938-.039063.097656-.070313.195312-.109375.292969-.046875.132812-.097656.265625-.140625.402343-.027344.085938-.042969.175782-.070313.265626-.039062.148437-.078125.292968-.109375.441406-.019531.113281-.03125.226562-.050781.339844-.019531.125-.042969.25-.058594.382812-.023437.246094-.035156.492188-.035156.738281v.011719 497 .011719c0 .246093.011719.492187.035156.738281.015625.132812.039063.257812.058594.386719.015625.109375.027344.222656.050781.335937.03125.148438.070313.292969.109375.441406.023438.089844.042969.179688.070313.265626.042969.136718.09375.269531.140625.402343.035156.097657.066406.195313.109375.292969.046875.113281.101562.222656.152343.335938.054688.109374.105469.222656.160157.328124.050781.09375.105469.179688.160156.269532.070313.121094.140625.246094.21875.363281.050781.074219.109375.144531.160156.21875.089844.125.179688.25.277344.367187.070313.085938.144531.160157.214844.242188.089843.101562.179687.203125.277343.300781.171876.171875.355469.339844.546876.496094 0 .003906.003906.003906.007812.007813.007812.003906.015625.007812.023438.015624.316406.257813.65625.484376 1.011718.691407.03125.015625.058594.035156.085938.050781.332031.183594.683594.335938 1.042968.46875.0625.023438.125.046875.183594.070312.347656.113282.699219.207032 1.066406.269532.070313.015625.136719.023437.207032.035156.363281.054688.734375.089844 1.113281.089844.003906 0 .007813.003906.011719.003906h.003906 406.695312.003907c.003906 0 .011719-.003906.015625-.003906.375 0 .746094-.035156 1.109375-.089844.070312-.011719.140625-.019531.210937-.035156.363282-.0625.71875-.15625 1.058594-.269532.066406-.023437.125-.046874.1875-.070312.359375-.132812.710938-.285156 1.042969-.46875.027343-.015625.058593-.039062.089843-.054688.355469-.203124.695313-.433593 1.007813-.6875.007813-.007812.015625-.011718.023437-.015624.003907-.003907.007813-.007813.007813-.007813.191406-.15625.375-.324219.546875-.496094.097656-.097656.183594-.199219.273438-.300781.074218-.082031.148437-.15625.21875-.242188.101562-.117187.1875-.242187.277343-.367187zm-48.804687-461.011719h-321.230469l-26.90625-32.878906h375.042969zm-332.285156 10.175782v112.792968c0 4.140625 3.355468 7.5 7.5 7.5 4.140624 0 7.5-3.359375 7.5-7.5v-107.96875h313.339843v320.226563l-13.484375-8.855469c-3.460937-2.273438-8.113281-1.308594-10.386718 2.152344-2.273438 3.460937-1.3125 8.113281 2.152343 10.386718l21.71875 14.261719v48.074219h-85.652343l13.585937-19.601562c1.46875-2.121094 1.746094-4.847657.730469-7.21875l-10.285156-24.085938 15.519531-.269531c2.136719-.039063 4.15625-.984375 5.550781-2.605469 1.398438-1.617188 2.035156-3.753906 1.753906-5.875l-3.898437-29.585938 15.980469 10.492188c3.460937 2.273438 8.113281 1.3125 10.386718-2.152344 2.273438-3.460937 1.3125-8.113281-2.152344-10.386718l-62.6875-41.164063c-.023437-.015625-.046874-.027344-.066406-.042969l-8.988281-5.898437c-.921875-.609375-1.953125-.980469-3.007813-1.140625 6.71875-8.871094 10.976563-19.695313 11.785157-31.453125 14.867187-3.359375 26.003906-16.660157 26.003906-32.527344 0-7.121094-2.246094-13.71875-6.0625-19.140625 21.675781-2.886719 38.148437-12.769531 39.074219-13.335938.042968-.027343.082031-.058593.125-.082031.144531-.09375.285156-.191406.421875-.292969.070312-.050781.136719-.101562.199219-.152343.140624-.109375.273437-.222657.402343-.34375.050781-.042969.101563-.089844.152344-.132813.351563-.34375.671875-.71875.953125-1.125.035156-.046875.0625-.09375.09375-.140625.105469-.160156.203125-.324219.296875-.492187.035156-.058594.066406-.121094.097656-.183594.085938-.15625.160157-.320312.234375-.488281.027344-.066407.058594-.132813.085938-.203125.066406-.167969.125-.34375.179687-.519532.019531-.066406.042969-.128906.0625-.195312.070313-.238281.128907-.480469.171875-.730469.046875-.265625.078125-.527343.097656-.785156.003907-.046875 0-.09375.003907-.140625.011719-.214844.019531-.429688.011719-.644531-.003907-.050781-.007813-.105469-.011719-.15625-.011719-.207031-.027344-.414063-.054688-.613281-.011719-.066407-.023437-.125-.035156-.1875-.03125-.191407-.0625-.378907-.109375-.5625-.019531-.078126-.042969-.152344-.0625-.230469-.046875-.164063-.097656-.332031-.152344-.492188-.03125-.089843-.066406-.175781-.101562-.261719-.058594-.148437-.117188-.292968-.183594-.433593-.046875-.09375-.09375-.1875-.140625-.28125-.070313-.128907-.140625-.257813-.214844-.382813-.058593-.09375-.117187-.1875-.179687-.28125-.078125-.121094-.164063-.238281-.25-.355468-.039063-.054688-.074219-.109376-.117188-.164063-.890625-1.125-21.519531-26.8125-52.625-33.746094v-20.578125c0-30.164062-24.539062-54.699218-54.699218-54.699218h-24.933594c-30.160156 0-54.695313 24.539062-54.695313 54.699218v6.824219c-25.003906 1.414063-44.960937 13.390625-45.984375 14.015625-.066406.039062-.128906.089844-.191406.128906-.109375.070313-.214844.140625-.316406.21875-.105469.074219-.207032.152344-.304688.234375-.097656.078125-.191406.160157-.285156.242188-.09375.085937-.1875.171875-.277344.257812-.09375.09375-.183594.191407-.269531.289063-.078125.085937-.160156.171875-.234375.261718-.09375.113282-.179688.234376-.269531.355469-.058594.082031-.121094.160157-.175781.246094-.09375.140625-.179688.285156-.265626.433594-.042968.070312-.085937.140625-.125.214843-.089843.167969-.167968.339844-.242187.511719-.027344.0625-.058594.121094-.085937.183594-.074219.1875-.140626.382813-.203126.582031-.015624.054688-.035156.101563-.050781.15625-.074219.25-.132812.503906-.179687.769532-.046875.261718-.078125.523437-.097656.78125-.003907.046874 0 .09375-.003907.140624-.011719.214844-.019531.429688-.011719.644532.003907.054687.007813.105468.011719.15625.011719.207031.027344.414062.054688.617187.011719.0625.023437.125.035156.1875.03125.1875.0625.375.109375.558594.019531.078125.042969.15625.0625.230469.046875.167968.09375.332031.152344.492187.03125.089844.066406.175781.101562.265625.058594.144532.117188.289063.183594.429688l.140625.28125c.070313.128906.140625.257812.214844.382812.058593.09375.117187.1875.179687.28125.078125.121094.164063.238282.25.355469.039063.054687.074219.113281.117188.167969.671875.847656 12.550781 15.625 31.667968 25.851562h-7.640624c-4.140626 0-7.5 3.355469-7.5 7.5 0 4.140625 3.359374 7.5 7.5 7.5h17.730468c-7 6.117188-11.4375 15.101563-11.4375 25.105469 0 15.738281 11.179688 29.140625 26.007813 32.527344.808593 11.835937 5.121093 22.722656 11.917969 31.628906-.828126.21875-1.632813.5625-2.359376 1.066406l-103.859374 71.859375v-182.933594c0-4.144531-3.359376-7.5-7.5-7.5-4.144532 0-7.5 3.355469-7.5 7.5v254.1875l-24.179688 29.546876v-454.984376zm182.199218 391.066406 44.507813-114.808594 22.375 14.695312 4.492187 34.089844-18.261718.320313c-2.496094.042969-4.808594 1.324219-6.164063 3.421875-1.359375 2.09375-1.585937 4.726562-.605469 7.023437l13.039063 30.519531-17.148438 24.738282zm-63.160156 0-17.277344-24.753906 13.03125-30.503907c.980469-2.296875.753906-4.929687-.601562-7.023437-1.359375-2.097656-3.667969-3.378906-6.164063-3.421875l-18.265625-.320313 4.902344-37.289062 15.382812-10.640625 20.839844 56.089843c.101563.339844.21875.671876.367188.996094l21.128906 56.867188zm-104.039062 0v-48.1875l63.023437-43.609375-4.230469 32.148437c-.277344 2.117188.359375 4.253906 1.753906 5.871094 1.394532 1.621094 3.414063 2.566406 5.550782 2.605469l15.523437.269531-10.289062 24.082031c-1.015625 2.382813-.734375 5.117188.746093 7.238281l13.667969 19.582032zm83.289062-203.511719c0-7.449219 4.464844-13.859375 10.855469-16.734375v33.457031c-6.378907-2.894531-10.855469-9.339843-10.855469-16.722656zm65.316406-5.0625c.84375.308594 1.710938.457031 2.5625.457031 3.0625 0 5.941406-1.890625 7.050782-4.9375.582031-1.601562 1.113281-3.183594 1.625-4.753906 14.152343 4.066406 24.542968 17.117188 24.542968 32.558594 0 18.683594-15.199218 33.882812-33.882812 33.882812-18.679688 0-33.878906-15.199218-33.878906-33.882812 0-16.539063 11.921874-30.34375 27.621093-33.289063-.042969.117188-.082031.230469-.125.351563-1.417969 3.890625.589844 8.195312 4.484375 9.613281zm24.398438-20.046875h15.78125c2.644531 1.171875 5.402344 2.230469 8.261718 3.148438v25.304687c-3.964843-12.339844-12.707031-22.550781-24.042968-28.453125zm-8.066406-15c0-.007812.003906-.015625.003906-.027344.007812.011719.019531.019532.03125.027344zm-15.054688 0h-.46875c.160156-.074219.328125-.148438.484375-.21875-.003906.070312-.011719.144531-.015625.21875zm-40.738281 15h18.867187c-7.726562 4.023438-14.242187 10.042969-18.867187 17.375zm41.359375 92.253906c21.300781 0 39.453125-13.699218 46.132812-32.746094-2.910156 21.4375-21.320312 38.015626-43.539062 38.015626-14.523438 0-27.417969-7.082032-35.425782-17.96875 8.683594 7.886718 20.207032 12.699218 32.832032 12.699218zm2.59375 20.269532c14.613281 0 27.996094-5.359376 38.308594-14.199219-1.136719 11.570312-13.082032 23.34375-37.839844 23.34375-24.125 0-36.085938-11.175781-37.734375-22.453125 10.164062 8.3125 23.140625 13.308594 37.265625 13.308594zm2.199218 49.011718h-7.253906l-3.625-6.28125 3.625-6.28125h7.253906l3.625 6.28125zm-3.785156 15.464844h.324219l8.652344 27.4375-8.214844 21.191406-8.683594-23.371094zm-17.777344-10.25 3.414063 5.914062-2.082031 6.648438-3.546875-9.546875zm35.425782 15.3125-2.964844-9.40625 4.609375-7.984375 3.429687 4.304687zm11.351562-29.277344-13.742187-17.253906c8.261719-1.441406 15.84375-4.230469 22.070312-8.210938.722657-.460937 1.414063-.941406 2.097657-1.429687zm31.535156-144.410156c6.390626 2.875 10.855469 9.285156 10.855469 16.734375 0 7.445313-4.464843 13.855469-10.855469 16.730469zm-2.621093-17.550781c-5.539063-.988281-10.75-2.773438-15.539063-4.984375-.15625-.082032-.308594-.15625-.46875-.226563-4.453125-2.09375-8.527344-4.550781-12.152344-7.078125l58.910157 10.523438c-8.996094 2.347656-19.777344 3.726562-30.75 1.765625zm-25.597657-27.070313c8.996094-2.351562 19.777344-3.726562 30.75-1.769531 10.902344 1.949219 20.527344 6.972656 28.160157 12.292969zm21.433594-17.683594c-19.203125-.359374-36.210937 6.171876-45.277344 10.476563-.902343-1.765625-1.613281-2.773437-1.785156-3.003906l-7.925781 5.859375c-9.59375-8.800782-25.757813-20.660156-46.085937-24.292969-1.085938-.195313-2.171876-.359375-3.257813-.503906v-7.355469c0-21.890625 17.808594-39.695312 39.699219-39.695312h24.933594c21.886718 0 39.695312 17.808593 39.695312 39.695312v18.820312zm-103.707031 3.804688c10.953125 1.957031 20.621094 7.011719 28.28125 12.359375l-59.09375-10.554687c9.035156-2.367188 19.855469-3.757813 30.8125-1.804688zm25.640625 27.125c-9.035156 2.363281-19.855469 3.757812-30.808594 1.804688-10.957031-1.957032-20.625-7.011719-28.285156-12.359376zm-8.910156 150.320312c5.726562 3.65625 12.589844 6.308594 20.078125 7.835938l-13.09375 17.792969-10.429688-28.074219c1.09375.855469 2.238281 1.671875 3.445313 2.445312zm-122.230469 116.300782h104.066406c.003907 0 .007813.003906.015625.003906 0 0 .003906-.003906.007813-.003906h113.203125s.003906.003906.007812.003906.007813-.003906.011719-.003906h103.917969l26.90625 32.878906h-375.042969zm332.285156-10.175782v-57.023437c0-.007813 0-.011719 0-.015625v-338.851562l24.179688-29.546876v454.984376zm0 0"/></svg>