<svg height="512pt" viewBox="-45 0 512 512.001" width="512pt" xmlns="http://www.w3.org/2000/svg"><path d="m7.5 7.5h406.695312v497h-406.695312zm0 0" fill="#b07d55"/><path d="m7.5 7.5v497l39.175781-47.878906-1.695312-403.316406zm0 0" fill="#a26349"/><path d="m46.675781 55.378906h328.34375v401.242188h-328.34375zm0 0" fill="#f5dcb4"/><path d="m375.015625 206.699219v184.601562c-12.039063-8.769531-31.75-14.5-46.628906-15.28125 1.242187-15.949219-.488281-32.128906-5.128907-47.441406-3.949218-13.019531-9.929687-25.339844-14.171874-38.269531-3.71875-11.359375-6.058594-23.046875-7.699219-34.886719l.109375-.023437c10.550781-7.289063 27.03125-5.386719 35.5625 4.171874-5.5-19.21875 3.539062-51.449218 37.898437-52.871093zm0 0" fill="#b1f192"/><path d="m375.015625 423.238281v33.382813h-156.777344v-1.941406c2.507813 0 5.019531-.101563 7.527344-.300782 10.683594-.867187 21.0625-3.730468 30.921875-7.949218 8.339844-3.558594 16.320312-8.101563 23.800781-13.199219 16.339844-11.160157 31.019531-25.332031 45.199219-39.121094 18.980469 9.109375 37.511719 20.652344 49.328125 29.128906zm0 0" fill="#ff636f"/><path d="m218.238281 454.679688v1.941406h-151.128906c6.738281-44.640625 27.757813-63.429688 54.15625-79.910156 2.410156-1.511719 4.871094-2.992188 7.363281-4.480469-1.261718 1.300781-2.5 2.628906-3.710937 3.980469-7.128907 7.9375-15.359375 17.148437-15.929688 28.367187-.730469 14.351563 15.089844 24.230469 26.089844 30.203125 8.660156 4.699219 17.878906 8.167969 27.339844 10.859375 8.660156 2.488281 17.519531 4.328125 26.328125 5.890625 9.742187 1.71875 19.621094 3.148438 29.492187 3.148438zm0 0" fill="#ff636f"/><path d="m375.015625 391.300781v31.9375c-11.816406-8.476562-30.347656-20.019531-49.328125-29.128906 1.328125-5.949219 2.230469-12.007813 2.699219-18.089844 14.878906.78125 34.589843 6.511719 46.628906 15.28125zm0 0" fill="#ff485a"/><path d="m256.6875 446.429688c-9.859375 4.21875-20.238281 7.082031-30.921875 7.949218-2.507813.199219-5.019531.300782-7.527344.300782-9.871093 0-19.75-1.429688-29.492187-3.148438-8.808594-1.5625-17.667969-3.402344-26.328125-5.890625-9.460938-2.691406-18.679688-6.160156-27.339844-10.859375-11-5.972656-26.820313-15.851562-26.089844-30.203125.570313-11.21875 8.800781-20.429687 15.929688-28.367187 1.210937-1.351563 2.449219-2.679688 3.710937-3.980469.007813 0 .007813-.011719.019532-.011719 6.429687-6.640625 13.5-12.660156 21.070312-17.949219 9.949219-6.960937 22.820312-10.320312 27.230469-22.730469 3.628906-10.238281-1.222657-24.078124-1.792969-34.6875 3.730469.738282 7.519531 1.128907 11.320312 1.128907 20.832032.007812 45.742188-16.410157 58.28125-33.050781.539063 3.558593 1.308594 7.089843 2.359376 10.589843 2.550781 8.519531 4.5 17.671875 9.859374 24.78125 28.78125 38.199219 4.839844 107.550781-.289062 146.128907zm0 0" fill="#f2bb88"/><path d="m192.417969 445.640625c-9.457031-2.691406-18.679688-6.160156-27.339844-10.859375-11-5.972656-26.820313-15.851562-26.089844-30.203125.570313-11.21875 8.800781-20.429687 15.929688-28.367187 1.210937-1.351563 2.453125-2.679688 3.710937-3.980469.011719 0 .011719-.011719.019532-.011719 6.429687-6.640625 13.5-12.660156 21.070312-17.949219 9.949219-6.960937 22.820312-10.320312 27.230469-22.730469 3.546875-10.003906-.988281-23.433593-1.734375-33.941406-.527344-.925781-1.015625-1.871094-1.476563-2.828125-5.835937 2.035157-11.691406 3.214844-17.261719 3.210938-3.796874 0-7.589843-.390625-11.316406-1.128907.566406 10.609376 5.417969 24.449219 1.789063 34.6875-4.410157 12.410157-17.28125 15.769532-27.230469 22.730469-7.570312 5.289063-14.640625 11.308594-21.070312 17.949219-.011719 0-.011719.011719-.019532.011719-1.261718 1.300781-2.5 2.628906-3.710937 3.980469-7.128907 7.9375-15.359375 17.148437-15.929688 28.367187-.730469 14.351563 15.089844 24.230469 26.089844 30.203125 8.660156 4.699219 17.878906 8.167969 27.339844 10.859375 8.660156 2.488281 17.519531 4.328125 26.332031 5.890625 9.738281 1.71875 19.617188 3.148438 29.488281 3.148438 2.511719 0 5.019531-.101563 7.53125-.300782 2.160157-.175781 4.300781-.453125 6.4375-.785156-4.503906-.558594-8.996093-1.277344-13.457031-2.0625-8.808594-1.5625-17.671875-3.402344-26.332031-5.890625zm0 0" fill="#e3a76f"/><path d="m246.15625 169.238281c-2.480469-12.257812-8.296875-24.449219-18.648438-31.457031-13.429687-9.101562-33.621093-9.300781-41.679687-23.382812-3.609375-6.308594-4.210937-14.519532-3.730469-22.078126h-.011718c-.4375 7.007813-3.027344 14.269532-6.949219 19.871094-4.710938 6.738282-11.089844 12.160156-17.847657 16.847656-8.070312 5.601563-16.960937 10.332032-26.640624 12.011719l-.652344-.050781c-.035156.453125-.070313.925781-.109375 1.414062l.28125.015626c-1.730469 16.058593-3.460938 32.171874-4.351563 48.289062-.71875 12.992188-.898437 25.992188-.109375 38.980469.808594 13.289062 2.75 26.871093 9.160157 38.539062 8.191406 14.933594 23.570312 25.320313 40.289062 28.613281 3.730469.738282 7.519531 1.128907 11.320312 1.128907 20.832032.007812 45.742188-16.410157 58.28125-33.050781-3.621093-23.628907 2.710938-48.441407 3.210938-72.71875v-.351563c.140625-7.621094-.300781-15.160156-1.8125-22.621094zm0 0" fill="#f2bb88"/><path d="m164.871094 268.238281c-6.410156-11.667969-8.351563-25.25-9.160156-38.539062-.792969-12.988281-.613282-25.988281.109374-38.980469.839844-15.226562 2.429688-30.441406 4.0625-45.617188.175782-1.640624 1.226563-3.054687 2.742188-3.703124 5.414062-2.296876 18.375-7.992188 24.664062-12.359376 2.582032-1.792968 5.105469-3.691406 7.507813-5.730468-3.640625-2.242188-6.761719-5.050782-8.96875-8.910156-3.613281-6.308594-4.210937-14.519532-3.730469-22.078126h-.011718c-.4375 7.007813-3.03125 14.269532-6.949219 19.871094-4.710938 6.738282-11.089844 12.160156-17.851563 16.847656-8.070312 5.601563-16.957031 10.332032-26.636718 12.011719l-.652344-.050781c-.035156.453125-.074219.925781-.109375 1.414062l.28125.015626c-1.730469 16.058593-3.460938 32.171874-4.351563 48.289062-.71875 12.992188-.898437 25.992188-.109375 38.980469.808594 13.289062 2.75 26.871093 9.160157 38.539062 8.1875 14.933594 23.570312 25.320313 40.289062 28.613281 3.730469.738282 7.519531 1.128907 11.320312 1.128907 4.589844 0 9.378907-.796875 14.1875-2.214844-14.941406-4.140625-28.34375-13.945313-35.792968-27.527344zm0 0" fill="#e3a76f"/><path d="m130.914062 141c9.578126-1.722656 18.378907-6.410156 26.375-11.960938 6.757813-4.6875 13.136719-10.109374 17.847657-16.847656 3.921875-5.601562 6.511719-12.859375 6.949219-19.871094.089843-1.417968.089843-2.839843 0-4.21875-18.878907-3.742187-37.097657 8.917969-50.097657 23.121094-7.832031 8.558594-14.660156 17.964844-20.457031 27.976563l-.203125-.011719c-21.410156 38.210938-28.8125 86.996094-17.128906 129.316406 3.507812 12.726563 8.566406 25.40625 13.398437 38.128906 8.089844 21.257813 15.558594 42.609376 14.21875 64.398438-.109375 1.890625-.289062 3.78125-.550781 5.679688 2.410156-1.507813 4.871094-2.988282 7.363281-4.480469.007813 0 .007813-.007813.019532-.007813 6.429687-6.640625 13.5-12.660156 21.070312-17.949218 9.949219-6.960938 22.820312-10.320313 27.230469-22.730469 3.628906-10.242188-1.222657-24.082031-1.792969-34.691407-16.71875-3.289062-32.097656-13.679687-40.289062-28.609374-6.410157-11.671876-8.351563-25.25-9.160157-38.539063-.789062-12.992187-.609375-25.992187.109375-38.980469.878906-15.886718 3.367188-33.835937 5.097656-49.722656zm0 0" fill="#88544f"/><path d="m328.386719 376.019531c-.46875 6.082031-1.371094 12.140625-2.699219 18.089844-14.179688 13.789063-28.859375 27.960937-45.199219 39.121094-7.480469 5.097656-15.460937 9.640625-23.800781 13.199219 5.128906-38.578126 29.070312-107.929688.289062-146.128907-5.359374-7.109375-7.308593-16.261719-9.859374-24.78125-1.050782-3.5-1.820313-7.03125-2.359376-10.589843-3.621093-23.628907 2.710938-48.441407 3.210938-72.71875v-.351563c.140625-7.621094-.300781-15.160156-1.8125-22.621094-2.480469-12.257812-8.296875-24.449219-18.648438-31.457031-13.429687-9.101562-33.621093-9.300781-41.679687-23.382812-3.609375-6.308594-4.210937-14.519532-3.730469-22.078126.089844-1.429687.21875-2.832031.371094-4.199218 7.589844-3.390625 16.617188-4.890625 25.507812-4.890625 5.28125 0 10.511719.53125 15.351563 1.5 25.917969 5.191406 46.46875 26.21875 57.578125 50.210937 11.109375 23.988282 14.191406 50.820313 16.339844 77.160156 1.179687 14.429688 2.152344 28.976563 4.140625 43.320313 1.640625 11.839844 3.980469 23.527344 7.699219 34.886719 4.242187 12.929687 10.222656 25.25 14.171874 38.269531 4.640626 15.3125 6.371094 31.492187 5.128907 47.441406zm0 0" fill="#88544f"/><path d="m121.816406 371.03125c-.109375 1.890625-.289062 3.777344-.550781 5.679688-26.398437 16.480468-47.417969 35.269531-54.15625 79.910156h-20.433594v-45.320313c19.402344-20.03125 47.710938-35.222656 75.140625-40.269531zm0 0" fill="#ff485a"/><path d="m121.816406 371.03125c-27.429687 5.046875-55.738281 20.238281-75.140625 40.269531v-74.269531c12.621094-12.640625 29-5.03125 31.652344 5.917969 0-29.539063 21.578125-34.757813 29.269531-36.320313 8.089844 21.261719 15.558594 42.609375 14.21875 64.402344zm0 0" fill="#b1f192"/><path d="m52.6525 7.5h406.695313v497h-406.695313zm0 0" fill="none" stroke="#000" stroke-miterlimit="10" transform="translate(-45.1525)"/><path d="m420.269531 508.886719c.050781-.070313.109375-.140625.15625-.214844.082031-.121094.152344-.246094.226563-.371094.050781-.085937.105468-.167969.152344-.257812.0625-.113281.113281-.226563.164062-.339844.054688-.109375.109375-.214844.152344-.328125.042968-.097656.074218-.199219.109375-.300781.050781-.128907.097656-.257813.140625-.390625.027344-.09375.046875-.191406.070312-.285156.039063-.140626.078125-.28125.105469-.425782.027344-.121094.039063-.242187.054687-.359375.019532-.121093.042969-.242187.054688-.363281.027344-.246094.039062-.492188.039062-.742188 0-.003906 0-.003906 0-.007812v-497c0-.003906 0-.007812 0-.007812 0-.25-.015624-.496094-.039062-.742188-.011719-.121094-.035156-.242188-.054688-.363281-.015624-.117188-.027343-.238281-.054687-.359375-.027344-.144532-.066406-.285156-.105469-.429688-.023437-.09375-.042968-.1875-.070312-.28125-.042969-.132812-.089844-.261718-.140625-.394531-.035157-.097656-.066407-.199219-.109375-.296875-.046875-.113281-.097656-.222656-.152344-.328125-.050781-.113281-.101562-.230469-.164062-.339844-.046876-.089843-.101563-.175781-.152344-.261719-.074219-.121093-.144532-.25-.226563-.367187-.046875-.074219-.105469-.144531-.15625-.21875-.089843-.125-.179687-.25-.277343-.371094-.070313-.085937-.148438-.164062-.222657-.246093-.089843-.097657-.171875-.199219-.265625-.292969-.175781-.175781-.359375-.339844-.550781-.496094-.003906-.003906-.003906-.007813-.007813-.007813-.039062-.03125-.078124-.058593-.121093-.089843-.152344-.121094-.308594-.238281-.472657-.347657-.078124-.050781-.160156-.097656-.238281-.144531-.128906-.082031-.257812-.160156-.390625-.230469-.101562-.054687-.199218-.097656-.300781-.148437-.121094-.054687-.242187-.117187-.363281-.167969-.109375-.042968-.222656-.082031-.335938-.121094-.121094-.042968-.234375-.085937-.355468-.125-.121094-.035156-.246094-.0625-.367188-.09375-.117188-.027343-.226562-.058593-.34375-.082031-.140625-.027343-.28125-.042969-.417969-.066406-.105469-.0117188-.207031-.03125-.3125-.0429688-.179687-.015625-.355469-.0234374-.535156-.0273437-.066406 0-.128906-.0078125-.195313-.0078125h-406.660156c-.007812 0-.011718 0-.015625 0h-.019531c-.042969 0-.082031.0078125-.125.0078125-.203125 0-.40625.0078125-.609375.0273437-.09375.0117188-.183594.0273438-.273437.0390626-.152344.0234374-.304688.0390622-.457032.0703122-.109375.019531-.210937.050781-.320312.078125-.128906.03125-.261719.058594-.390625.097656-.113281.035157-.226563.078126-.339844.121094-.117187.039063-.234375.078125-.351563.128906-.117187.046876-.230468.105469-.347656.160157-.105468.050781-.210937.097656-.3125.152343-.132812.070313-.257812.148438-.382812.226563-.082032.050781-.167969.09375-.25.148437-.160156.109376-.316406.226563-.46875.347657-.039063.03125-.082032.058593-.121094.089843-.003906.003907-.003906.003907-.007812.007813-.191407.15625-.375.324219-.550782.496094-.09375.09375-.175781.195312-.265625.292969-.074219.082031-.152343.160156-.222656.246093-.101563.121094-.1875.246094-.277344.371094-.050781.074219-.109375.144531-.160156.21875-.078125.121094-.148437.246094-.222656.367187-.050781.089844-.105469.171876-.15625.261719-.058594.109375-.109375.226563-.160157.339844-.054687.105469-.109374.214844-.152343.328125-.042969.097656-.074219.199219-.109375.296875-.050782.132813-.097656.261719-.140625.394531-.027344.09375-.046875.1875-.070313.28125-.039062.144532-.078125.285156-.105468.429688-.027344.117187-.039063.238281-.0585942.359375-.015625.121093-.0390626.242187-.0507813.363281-.0273437.246094-.0390625.492188-.0390625.742188v.007812 497 .007812c0 .25.0117188.496094.0390625.742188.0117187.121094.0351563.242188.0507813.363281.0195312.121094.0312502.242188.0585942.359375.027343.144532.066406.285156.105468.429688.023438.09375.042969.1875.070313.28125.042969.132812.089843.261718.140625.394531.035156.097656.066406.199219.109375.296875.046875.113281.097656.222656.152343.328125.050782.113281.101563.230469.160157.339844.050781.089843.105469.175781.15625.261719.074219.121093.144531.25.222656.367187.050781.074219.109375.144531.160156.21875.089844.125.179688.25.277344.371094.070313.085937.148437.164062.222656.246093.089844.097657.171875.199219.265625.292969.175782.175781.359375.339844.550782.496094.003906.003906.003906.007813.007812.007813.003906.003906.011719.007812.019531.011718.316407.257813.65625.488282 1.015625.695313.027344.015625.058594.035156.085938.050781.332031.183594.683594.339844 1.042968.46875.0625.023438.121094.046875.1875.070312.34375.117188.695313.207032 1.058594.273438.070313.011719.140625.023438.210938.03125.363281.054688.730468.09375 1.109375.09375h.015625.003906 406.695312.003907.015625c.378906 0 .746094-.039062 1.109375-.09375.070312-.011719.140625-.019531.210937-.03125.363282-.066406.71875-.15625 1.058594-.273438.066406-.019531.125-.042968.1875-.066406.359375-.132812.710938-.289062 1.042969-.472656.027343-.015625.054687-.035156.085937-.050781.355469-.207031.699219-.4375 1.015625-.695313.007813-.003906.015625-.007812.019531-.011718.003907 0 .003907-.003907.007813-.007813.191406-.15625.375-.320313.550781-.496094.09375-.09375.175782-.195312.265625-.292969.074219-.082031.152344-.160156.222657-.246093.097656-.121094.1875-.25.277343-.375zm-366.09375-59.765625v-34.6875c11.070313-10.867188 24.753907-20.050782 39.390625-26.640625-15.320312 13.871093-27.203125 32.132812-32.769531 61.328125zm290.09375-191.613282c-2.363281-8.257812-1.605469-20.953124 5.425781-30.695312 4.316407-5.980469 10.292969-9.859375 17.824219-11.601562v163.132812c-10.125-4.703125-21.585937-7.710938-31.273437-9.066406.347656-14.464844-1.589844-28.960938-5.808594-42.878906-2.21875-7.308594-5.035156-14.375-7.761719-21.210938-2.351562-5.894531-4.574219-11.464844-6.457031-17.214844-3-9.15625-5.066406-18.675781-6.601562-28.34375 7.324218-2.613281 16.796874-.726562 21.84375 4.933594 1.464843 1.640625 3.515624 2.511719 5.601562 2.511719 1.234375 0 2.476562-.304688 3.617188-.933594 3.0625-1.6875 4.554687-5.269531 3.589843-8.632813zm-9.21875 126.726563c11.574219 1.691406 23.945313 5.890625 32.464844 11.09375v13.753906c-10.597656-6.855469-22.261719-13.558593-33.355469-19.15625.335938-1.890625.632813-3.789062.890625-5.691406zm-33.085937-91.585937c2.03125 6.195312 4.445312 12.246093 6.777344 18.097656 2.730468 6.84375 5.308593 13.308594 7.339843 20.003906 5.847657 19.296875 6.773438 39.847656 2.726563 59.582031-12.710938 12.363281-27.011719 26.09375-42.546875 36.699219-3.257813 2.226562-6.507813 4.265625-9.753907 6.125.824219-4.324219 1.738282-8.859375 2.683594-13.523438 2.320313-11.472656 4.957032-24.476562 6.78125-37.480468.574219-4.101563-2.285156-7.894532-6.386718-8.46875-4.105469-.578125-7.894532 2.28125-8.46875 6.382812-1.765626 12.558594-4.238282 24.777344-6.628907 36.589844-1.761719 8.710938-3.4375 17.007812-4.601562 24.445312-8.355469 3.199219-16.621094 5.144532-24.730469 5.804688-11.773438.953125-23.828125-.765625-35.101562-2.761719-5.273438-.933593-10.824219-2.007812-16.476563-3.335937.984375-1.804688 1.953125-3.585938 2.855469-5.269532 1.960937-3.648437.59375-8.195312-3.058594-10.152343-3.648438-1.960938-8.195312-.59375-10.15625 3.054687-1.15625 2.160156-2.425781 4.480469-3.691406 6.800782-.265625.480468-.527344.964843-.789063 1.445312-6.84375-2.238281-13.636719-4.996094-20.082031-8.496094-9.757812-5.296875-22.675781-13.46875-22.179688-23.226562.441407-8.632813 7.65625-16.65625 14.019532-23.738282 7.007812-7.796874 14.921875-14.796874 23.523437-20.8125 2.417969-1.6875 5.117188-3.1875 7.976563-4.773437 8.375-4.648437 17.871094-9.917969 22.015625-21.585937 3.117187-8.777344 1.460937-18.683594 0-27.421876-.066407-.410156-.132813-.808593-.199219-1.214843.886719.035156 1.773438.058593 2.660156.0625h.03125c19.011719-.003907 39.824219-11.566407 54.230469-25.03125.128906.449219.261719.894531.390625 1.347656 2.128906 7.480469 4.542969 15.960937 9.859375 23.019531 7.964844 10.574219 12.015625 24.785156 12.382813 43.441406.082031 4.089844 3.421874 7.351563 7.496093 7.351563h.152344c4.140625-.082031 7.433594-3.503906 7.351563-7.644531-.433594-21.925782-5.472657-38.988282-15.402344-52.175782-3.636719-4.824218-5.472656-11.269531-7.414063-18.097656-.414062-1.449218-.824219-2.894531-1.25-4.324218-.929687-3.09375-1.617187-6.230469-2.109375-9.402344-.007812-.066406-.019531-.132813-.03125-.199219-2.117187-13.847656-.542968-28.394531 1.113282-43.625 1.859374-17.140625 3.78125-34.867187.238281-52.386719-3.238281-16-10.980469-28.851562-21.800781-36.183594-5.9375-4.023437-12.605469-6.390624-19.050782-8.679687-8.980468-3.191406-16.734375-5.941406-20.324218-12.214844-2.265626-3.957031-3.199219-9.75-2.792969-17.242187 9.300781-3.019532 21.257812-3.566406 32.308593-1.351563 21.355469 4.285157 40.890626 21.484375 52.25 46.011719 10.722657 23.144531 13.621094 49.554688 15.675782 74.625.207031 2.539062.40625 5.082031.609375 7.628906 1.898437 23.96875 3.863281 48.757813 11.578125 72.300782zm-164.769532-145.390626c7.800782-2.15625 15.824219-6.128906 24.363282-12.054687 7.824218-5.425781 13.640625-10.730469 18.109375-16.519531 6.421875 10.664062 17.855469 14.746094 27.972656 18.339844 5.8125 2.0625 11.304687 4.011718 15.65625 6.960937 10.1875 6.902344 14.089844 19.714844 15.511719 26.742187 3.082031 15.238282 1.367187 31.050782-.449219 47.792969-1.578125 14.546875-3.195313 29.464844-1.457031 44.253907-14.3125 17.394531-36.464844 27.703124-50.402344 27.703124-.003906 0-.011719 0-.015625 0-18.46875-.011718-36.570313-10.398437-45.042969-25.84375-6.039062-11-7.558594-24.0625-8.246094-35.390624-1.660156-27.203126 1.109376-54.996094 4-81.984376zm31.796876-39.363281c-3.609376 5.160157-8.691407 9.921875-15.984376 14.984375-8.636718 5.992188-16.371093 9.523438-23.640624 10.785156-3.027344.527344-5.3125 2.804688-6 5.613282-.335938.726562-.566407 1.511718-.65625 2.347656-3.097657 28.863281-6.304688 58.710938-4.488282 88.53125.746094 12.226562 2.5625 28.015625 10.066406 41.691406 8.316407 15.152344 23.046876 26.324219 39.960938 31.085938.285156 2.058594.628906 4.128906.96875 6.167968 1.214844 7.285157 2.476562 14.816407.660156 19.929688-2.136718 6.019531-7.15625 9.046875-15.160156 13.492188-3.066406 1.699218-6.238281 3.460937-9.292969 5.59375-5.644531 3.949218-11.015625 8.285156-16.078125 12.957031-1.058594-21.351563-8.9375-41.964844-16.613281-62.035157-4.101563-10.714843-8.339844-21.796874-11.304687-32.539062-14.261719-51.6875-.09375-110.652344 36.097656-150.214844 7.46875-8.160156 21.421875-20.769531 36.714844-21.324218-.777344 4.550781-2.613282 9.160156-5.25 12.933593zm-66.015626 207.746094c6.210938 16.761719 11.320313 32.996094 11.5 49.269531-21.433593 4.988282-42.816406 15.507813-60.300781 29.492188v-53.949219c3.175781-2.292969 6.660157-3.039063 10.023438-2.09375 3.402343.957031 6.148437 3.507813 6.835937 6.351563.820313 3.398437 3.863282 5.742187 7.285156 5.738281.292969 0 .589844-.015625.890626-.050781 3.773437-.449219 6.613281-3.648438 6.613281-7.449219 0-17.476563 8.589843-24.265625 17.152343-27.308594zm-1.070312 84.953125c-.191406 1.179688-.347656 2.371094-.410156 3.601562-1.039063 20.328126 21.515625 32.570313 30.003906 37.175782 5.640625 3.066406 11.453125 5.605468 17.304688 7.75h-72.714844c4.769531-22.402344 13.859375-37.074219 25.816406-48.527344zm182.8125 38.828125c15.6875-10.710937 29.789062-24.015625 42.398438-36.246094 15.578124 7.839844 30.335937 16.996094 40.398437 23.960938v21.988281h-98.992187c5.398437-2.796875 10.800781-6.023438 16.195312-9.703125zm86.746094-391.542969h-263.863282c-4.144531 0-7.5 3.355469-7.5 7.5 0 4.140625 3.355469 7.5 7.5 7.5h259.917969v137.046875c-15.640625 2.5625-24.851562 11-29.984375 18.109375-5.59375 7.746094-8.847656 17.507813-9.40625 27.285156-6.582031-2.132812-13.824218-2.417968-20.507812-.734374-.933594-8.488282-1.613282-17.011719-2.277344-25.425782-.203125-2.558594-.40625-5.117187-.617188-7.671875-2.160156-26.410156-5.257812-54.324219-17.011718-79.699219-13.363282-28.851562-36.882813-49.195312-62.910156-54.417968-14.992188-3.003906-30.980469-1.859375-43.3125 3.027344-17.90625-2.628907-37.363282 6.449218-55.03125 25.761718-39.59375 43.28125-55.09375 107.785156-39.492188 164.332032 2.898438 10.488281 6.8125 20.96875 10.703125 31.15625-14.101563 5.195312-20.988281 14.84375-24.214844 24.367187-1.632812-.875-3.378906-1.585937-5.203125-2.097656-4.714844-1.324219-9.511718-1.28125-14.074218.035156v-261.074219h21.179687c4.140625 0 7.5-3.359375 7.5-7.5 0-4.144531-3.359375-7.5-7.5-7.5h-25.128906l-26.902344-32.878906h375.039063zm-332.289063 10.175782v395.890624l-24.175781 29.546876v-454.984376zm11.054688 406.066406h16.875c.003906 0 .007812.003906.011719.003906.007812 0 .015624-.003906.023437-.003906h304.324219l26.902344 32.878906h-375.039063zm332.289062-10.175782v-395.890624l24.175781-29.546876v454.984376zm0 0"/><path d="m145.21875 199.117188c1.882812-.191407 3.988281-.679688 6.21875-1.195313 2.410156-.558594 7.21875-1.675781 9.230469-1.402344.457031.972657 1.511719 4.210938 1.152343 12.957031-.304687 7.457032-1.503906 16.023438-2.46875 22.90625-.4375 3.121094-.816406 5.8125-1.078124 8.121094-.351563 3.113282.714843 6.164063 2.925781 8.378906 1.941406 1.941407 4.53125 3.003907 7.242187 3.003907.386719 0 .777344-.023438 1.167969-.066407 3.28125-.367187 6.613281-.449218 9.902344-.238281 4.152343.265625 7.703125-2.871093 7.964843-7.007812.265626-4.132813-2.871093-7.695313-7.003906-7.960938-2.175781-.140625-4.363281-.179687-6.550781-.117187.089844-.65625.183594-1.332032.28125-2.03125 3.316406-23.660156 5.117187-42.351563-4.144531-49.804688-6.222656-5.007812-14.972656-2.980468-22.003906-1.351562-1.6875.386718-3.429688.792968-4.382813.890625-4.121094.429687-7.117187 4.113281-6.6875 8.234375s4.121094 7.117187 8.234375 6.683594zm0 0"/><path d="m192.847656 199.597656c4.332032 3.800782 10.140625 5.886719 16.222656 5.886719.800782 0 1.613282-.035156 2.421876-.109375 6.941406-.632812 13.246093-3.929688 17.296874-9.050781 2.570313-3.25 2.015626-7.964844-1.230468-10.535157-3.25-2.570312-7.964844-2.019531-10.535156 1.230469-1.511719 1.910157-4.023438 3.15625-6.890626 3.417969-2.871093.261719-5.5625-.511719-7.394531-2.117188-3.117187-2.730468-7.855469-2.421874-10.585937.695313-2.730469 3.113281-2.421875 7.851563.695312 10.582031zm0 0"/><path d="m178.582031 261.882812c-1.09375 1.25-2.964843 2.03125-5.003906 2.089844-2.042969.058594-3.953125-.621094-5.113281-1.808594-2.894532-2.960937-7.644532-3.015624-10.605469-.121093-2.960937 2.898437-3.015625 7.644531-.121094 10.605469 3.949219 4.042968 9.605469 6.328124 15.601563 6.328124.214844 0 .433594-.003906.652344-.011718 6.234374-.171875 12.023437-2.796875 15.878906-7.199219 2.726562-3.117187 2.410156-7.855469-.707032-10.585937-3.117187-2.726563-7.855468-2.414063-10.582031.703124zm0 0"/></svg>