<svg height="512pt" viewBox="0 -47 512 512" width="512pt" xmlns="http://www.w3.org/2000/svg"><path d="m0 402.242188v-385.511719c0-9.238281 7.488281-16.72656275 16.730469-16.72656275h478.539062c9.242188 0 16.730469 7.48828175 16.730469 16.72656275v385.511719c0 9.242187-7.488281 16.730468-16.730469 16.730468h-478.539062c-9.242188 0-16.730469-7.488281-16.730469-16.730468zm0 0" fill="#e3e1c1"/><path d="m476.867188 28.753906v361.46875h-441.734376v-361.46875zm0 0" fill="#a5cdff"/><path d="m215.472656 235.316406c-9.976562-4.011718-18.355468 6.722656-19.996094 13.558594-2.78125 11.582031 4.476563 26.230469 16.382813 26.492188 9.445313.210937 16.648437-8.015626 22.398437-15.503907 7.351563 15.175781 27.089844 22.988281 42.835938 16.945313 15.746094-6.039063 25.195312-25.046875 20.507812-41.246094 9.949219-6.691406 17.734376-16.984375 20.070313-28.742188 2.339844-11.757812-1.28125-24.851562-10.273437-32.78125-5.984376-5.277343-13.851563-8.027343-21.75-9.136718-20.386719-2.855469-41.984376 5.203125-55.515626 20.71875s-18.578124 38.007812-12.972656 57.816406" fill="#c4deff"/><path d="m134.132812 91.140625c-7.269531-6.921875-23.753906-8.972656-30.238281-1.3125-6.488281 7.660156-5.027343 20.691406 3 26.722656-16.574219 3.449219-30.734375 18.730469-30.285156 35.652344.453125 16.925781 17.925781 32.097656 34.328125 27.910156 9.585938-2.445312 17.023438-10.371093 21.296875-19.292969 4.273437-8.925781 5.855469-18.859374 7.382813-28.632812 9.105468 8.949219 22.265624 13.601562 34.972656 12.359375 12.707031-1.242187 24.71875-8.351563 31.917968-18.890625 4.328126-6.335938 6.972657-14.09375 5.945313-21.695312-1.023437-7.601563-6.21875-14.835938-13.574219-17.003907-7.355468-2.167969-14.234375 3.957031-18.5625 9.214844 4.640625-7.726563.292969-18.726563-7.722656-22.84375s-18.167969-2.222656-25.558594 2.933594-12.402344 13.078125-16.167968 21.265625" fill="#c4deff"/><path d="m35.132812 28.753906h36.855469v361.46875h-36.855469zm0 0" fill="#8cb4eb"/><path d="m205.332031 330.722656c-25.269531 5.890625-49.960937 19.878906-74.859375 12.875-.277344-.238281-.558594-.464844-.835937-.691406-9.425781-7.4375-30.386719 1.378906-42.066407 4.128906l-5.355468-6.882812c-1.585938-11.105469-11.980469-11.46875-1.222656-36.074219.167968-.378906-.578126-.585937-.875-.875 16.050781-18.554687 42.84375-28.9375 67.097656-25.261719 24.257812 3.679688 46.378906 20.851563 56.214844 43.328125zm0 0" fill="#b07d55"/><path d="m113.125 340.152344c-1.589844-11.105469-11.074219-14.214844-.328125-34.6875 6.628906-12.636719 23.738281-22.988282 39.664063-26.5-1.738282-.40625-3.484376-.753906-5.246094-1.023438-24.253906-3.675781-51.046875 6.707032-67.097656 25.261719.296874.289063 1.042968.496094.875.875-10.757813 24.605469-.363282 24.96875 1.222656 36.074219l5.355468 6.882812c6.816407-1.605468 16.792969-5.269531 25.792969-6.570312zm0 0" fill="#a26349"/><path d="m462.675781 323.691406 22.539063 77.925782-339.019532-10.996094-1.484374-12.03125c-41.59375-17.027344-30.121094-16.769532-14.238282-34.992188 23.128906-8.632812 47.800782-15.949218 73.070313-21.839844 22.335937-5.203124 45.144531-9.304687 67.765625-12.230468 19.449218-2.535156 38.765625-4.183594 57.515625-4.933594-2.308594 11.144531-3.769531 19.65625-3.769531 23.3125 0 17.203125 14.523437 31.140625 32.449218 31.140625.164063 0 .332032 0 .484375-.011719 13.535157-.183594 25.0625-8.320312 29.730469-19.765625 5.191406 3.378907 11.457031 5.355469 18.203125 5.355469 16.503906 0 30.132813-11.816406 32.183594-27.125 9.21875-3.6875 19.625-4.007812 24.570312 6.191406zm0 0" fill="#88544f"/><path d="m350.261719 354.394531v26.386719c0 9.945312 15.453125 9.960938 15.453125 0 0-8.796875 0-17.59375 0-26.386719 0-9.945312-15.453125-9.960937-15.453125 0zm0 0" fill="#b07d55"/><path d="m398.199219 334.859375v45.921875c0 9.945312 15.453125 9.960938 15.453125 0 0-15.308594 0-30.617188 0-45.921875-.003906-9.945313-15.453125-9.960937-15.453125 0zm0 0" fill="#b07d55"/><path d="m144.710938 378.589844v.023437l-128.929688 33.542969 33.542969-117.523438c10.703125-3.460937 22.707031.71875 30.792969 8.570313.296874.289063.585937.574219.875.875 7.746093 8.066406 11.777343 19.089844 13.363281 30.195313.070312.464843.132812.9375.195312 1.402343.359375-.09375.730469-.1875 1.089844-.28125 11.683594-2.75 24.570313.074219 33.996094 7.511719.277343.226562.558593.453125.835937.691406 9.210938 7.878906 14.578125 22.972656 14.238282 34.992188zm0 0" fill="#a1d685"/><path d="m49.324219 40.363281v338.25l-43.988281 35.992188c-3.285157-3.015625-5.335938-7.34375-5.335938-12.15625v-385.925781c0-4.808594 2.050781-9.136719 5.335938-12.15625zm0 0" fill="#eb9664"/><path d="m506.664062 4.367188-43.988281 35.996093h-413.351562l-43.988281-35.996093c2.9375-2.71875 6.871093-4.367188 11.1875-4.367188h478.953124c4.316407 0 8.25 1.648438 11.1875 4.367188zm0 0" fill="#ffac73"/><path d="m512 16.523438v385.925781c0 4.8125-2.050781 9.140625-5.335938 12.15625l-43.988281-35.992188v-338.25l43.988281-35.996093c3.285157 3.019531 5.335938 7.347656 5.335938 12.15625zm0 0" fill="#eb9664"/><path d="m506.664062 414.605469c-2.9375 2.71875-6.871093 4.367187-11.1875 4.367187h-478.953124c-4.316407 0-8.25-1.648437-11.1875-4.367187l43.988281-35.992188h413.351562zm0 0" fill="#ffac73"/><path d="m389.957031 327.90625c0 17.199219-14.53125 31.144531-32.453125 31.144531s-32.449218-13.945312-32.449218-31.144531c0-14.539062 23.1875-106.050781 30.359374-134.011719.558594-2.160156 3.625-2.160156 4.179688 0 7.171875 27.960938 30.363281 119.472657 30.363281 134.011719zm0 0" fill="#8fb777"/><path d="m355.960938 327.90625c0-8.871094 8.636718-46.40625 17-80.675781-5.34375-21.882813-10.570313-42.4375-13.367188-53.335938-.554688-2.160156-3.621094-2.160156-4.175781 0-7.175781 27.960938-30.363281 119.472657-30.363281 134.011719 0 17.199219 14.53125 31.144531 32.453124 31.144531 5.59375 0 10.855469-1.359375 15.453126-3.753906-10.125-5.269531-17-15.558594-17-27.390625zm0 0" fill="#7a9965"/><path d="m438.375 313.484375c0 17.199219-14.527344 31.144531-32.449219 31.144531s-32.453125-13.945312-32.453125-31.144531c0-14.316406 22.488282-173.714844 30.023438-226.738281.398437-2.808594 4.457031-2.808594 4.855468 0 7.539063 53.023437 30.023438 212.421875 30.023438 226.738281zm0 0" fill="#a1d685"/></svg>