<?xml version="1.0" encoding="iso-8859-1"?>
<!-- Generator: Adobe Illustrator 19.0.0, SVG Export Plug-In . SVG Version: 6.00 Build 0)  -->
<svg version="1.1" id="Layer_1" xmlns="http://www.w3.org/2000/svg" xmlns:xlink="http://www.w3.org/1999/xlink" x="0px" y="0px"
	 viewBox="0 0 512.004 512.004" style="enable-background:new 0 0 512.004 512.004;" xml:space="preserve">
<g>
	<g>
		<path style="fill:#F9EBB0;" d="M432.545,132.414c-1.774,0-3.558-0.53-5.12-1.642c-0.98-0.697-98.931-70.471-149.831-102.524
			c-4.122-2.595-5.367-8.042-2.763-12.173c2.595-4.122,8.033-5.358,12.173-2.763c51.324,32.318,149.689,102.382,150.678,103.089
			c3.964,2.825,4.89,8.342,2.057,12.314C438.018,131.125,435.299,132.414,432.545,132.414"/>
		<path style="fill:#F9EBB0;" d="M79.459,132.414c-2.754,0-5.473-1.289-7.194-3.699c-2.834-3.972-1.907-9.49,2.057-12.314
			C75.31,115.694,173.676,45.63,225,13.312c4.14-2.586,9.578-1.359,12.173,2.763c2.604,4.131,1.359,9.578-2.763,12.173
			C183.51,60.301,85.559,130.074,84.579,130.772C83.017,131.884,81.234,132.414,79.459,132.414"/>
	</g>
	<polygon style="fill:#805333;" points="0.002,512.004 512.002,512.004 512.002,123.591 0.002,123.591 	"/>
	<g>
		<path style="fill:#51301A;" d="M0.002,136.069l68.793,68.793c1.721,1.721,3.981,2.586,6.241,2.586s4.52-0.865,6.241-2.586
			c3.452-3.452,3.452-9.031,0-12.482l-68.793-68.793H0.002V136.069z"/>
		<path style="fill:#51301A;" d="M512.002,123.586H499.52l-67.505,67.496c-3.443,3.452-3.443,9.039,0,12.491
			c1.73,1.721,3.99,2.587,6.241,2.587c2.26,0,4.52-0.865,6.25-2.587l67.496-67.505V123.586z"/>
		<path style="fill:#51301A;" d="M512.002,499.517l-82.035-82.035c-3.452-3.452-9.031-3.452-12.482,0s-3.452,9.031,0,12.482
			l82.035,82.035h12.482V499.517z"/>
		<path style="fill:#51301A;" d="M68.796,430.724L0.002,499.518V512h12.482l68.793-68.793c3.452-3.452,3.452-9.031,0-12.482
			C77.826,427.273,72.247,427.273,68.796,430.724"/>
	</g>
	<polygon style="fill:#ECF0F1;" points="52.968,459.039 459.037,459.039 459.037,176.556 52.968,176.556 	"/>
	<path style="fill:#FAC176;" d="M337.368,406.07h-54.89c0,0,26.553-10.478,26.553-35.681c0-16.702,11.988-17.284,22.89-17.284h1.836
		c13.118,0,23.755,9.931,23.755,23.049l0,0C357.512,387.876,359.887,406.07,337.368,406.07"/>
	<path style="fill:#E64C3C;" d="M282.478,406.069c-38.938,0-79.448-14.027-79.448-52.966c0-19.474-15.837-35.31-35.31-35.31
		c-43.802,0-70.621-35.646-70.621-79.448h17.655c0,24.338,28.628,44.138,52.966,44.138c38.938,0,70.621,31.682,70.621,70.621
		C238.34,372.577,263.004,406.069,282.478,406.069"/>
	<path style="fill:#4482C3;" d="M459.037,220.897L339.149,353.735c10.514,2.304,18.361,11.158,18.361,22.422
		c0,0.971,0.018,2.004,0.035,3.054l2.242-1.827l99.249-89.653V220.897z"/>
	<path style="fill:#805333;" d="M256.002,88.276c-24.338,0-44.138-19.8-44.138-44.138S231.665,0,256.002,0
		c24.338,0,44.138,19.8,44.138,44.138S280.34,88.276,256.002,88.276"/>
</g>
<g>
</g>
<g>
</g>
<g>
</g>
<g>
</g>
<g>
</g>
<g>
</g>
<g>
</g>
<g>
</g>
<g>
</g>
<g>
</g>
<g>
</g>
<g>
</g>
<g>
</g>
<g>
</g>
<g>
</g>
</svg>
