<svg viewBox="0 0 512 512" xmlns="http://www.w3.org/2000/svg"><path d="m146.605469 177.605469-21.210938-21.210938 98.789063-100.789062 21.210937 21.210937zm0 0" fill="#68544f"/><path d="m365.394531 177.605469-98.789062-100.789063 21.210937-21.210937 98.789063 100.789062zm0 0" fill="#53433f"/><path d="m0 152h512v360h-512zm0 0" fill="#ffbd86"/><path d="m256 152h256v360h-256zm0 0" fill="#f6a96c"/><path d="m482 182v221.101562l-52 35.097657h-300l-99-34.5v-221.699219zm0 0" fill="#68544f"/><path d="m482 182v221.101562l-52 35.097657h-174v-256.199219zm0 0" fill="#53433f"/><path d="m280.902344 335.601562-24.902344 36.597657-60 88.199219-138.898438-60.300782 138.898438-166.5 60 72.003906zm0 0" fill="#a8d32a"/><path d="m280.902344 335.601562-24.902344 36.597657v-66.597657zm0 0" fill="#93bf00"/><path d="m256 0c-24.902344 0-45 20.097656-45 45 0 24.898438 20.097656 45 45 45s45-20.101562 45-45c0-24.902344-20.097656-45-45-45zm0 0" fill="#e2e2e7"/><path d="m427.898438 402.800781-23.398438 18.597657-148.5 12.601562-41.101562 3.597656-23.398438-18.898437 64.5-80.699219 60-75zm0 0" fill="#b9dd39"/><path d="m406 302c-24.8125 0-45-20.1875-45-45s20.1875-45 45-45 45 20.1875 45 45-20.1875 45-45 45zm0 0" fill="#f6a96c"/><path d="m427.898438 402.800781-23.398438 18.597657-148.5 12.601562v-96l60-75zm0 0" fill="#a8d32a"/><path d="m256 90v-90c24.902344 0 45 20.097656 45 45 0 24.898438-20.097656 45-45 45zm0 0" fill="#babac0"/><path d="m256 60c-8.269531 0-15-6.730469-15-15s6.730469-15 15-15 15 6.730469 15 15-6.730469 15-15 15zm0 0" fill="#68544f"/><path d="m271 45c0-8.269531-6.730469-15-15-15v30c8.269531 0 15-6.730469 15-15zm0 0" fill="#53433f"/><path d="m482 403.101562v78.898438h-451v-78.300781c6.597656-3.601563 13.5-6.300781 20.398438-8.101563 26.402343-7.5 54.902343-3.296875 78.601562 12.601563 22.5 14.699219 51 14.699219 73.5 0 15.902344-10.800781 34.5-16.199219 52.5-16.199219 18.898438 0 37.5 5.398438 54 16.199219 22.5 14.699219 51 14.699219 73.5 0 29.398438-19.800781 67.597656-21.300781 98.5-5.097657zm0 0" fill="#73bcff"/><path d="m482 403.101562v78.898438h-226v-90c18.898438 0 37.5 5.398438 54 16.199219 22.5 14.699219 51 14.699219 73.5 0 29.398438-19.800781 67.597656-21.300781 98.5-5.097657zm0 0" fill="#3aaaff"/></svg>