<?xml version="1.0" encoding="iso-8859-1"?>
<!-- Generator: Adobe Illustrator 19.0.0, SVG Export Plug-In . SVG Version: 6.00 Build 0)  -->
<svg version="1.1" id="Layer_1" xmlns="http://www.w3.org/2000/svg" xmlns:xlink="http://www.w3.org/1999/xlink" x="0px" y="0px"
	 viewBox="0 0 512 512" style="enable-background:new 0 0 512 512;" xml:space="preserve">
<g>
	<path style="fill:#805333;" d="M499.641,463.183c2.18-3.849,3.531-8.236,3.531-12.977c0-11.52-7.389-21.213-17.655-24.867V86.652
		c10.266-3.646,17.655-13.347,17.655-24.858c0-4.749-1.351-9.137-3.531-12.985C507.048,44.111,512,35.902,512,26.483
		C512,11.855,500.145,0,485.517,0c-9.419,0-17.638,4.952-22.334,12.359c-3.849-2.189-8.236-3.531-12.977-3.531
		c-11.511,0-21.213,7.389-24.859,17.655H86.652C83.006,16.216,73.304,8.828,61.793,8.828c-4.74,0-9.128,1.342-12.977,3.531
		C44.12,4.952,35.902,0,26.483,0C11.855,0,0,11.855,0,26.483c0,9.419,4.952,17.629,12.359,22.325
		c-2.18,3.849-3.531,8.236-3.531,12.985c0,11.511,7.389,21.213,17.655,24.858V425.34c-10.266,3.655-17.655,13.347-17.655,24.867
		c0,4.74,1.351,9.128,3.531,12.977C4.952,467.88,0,476.098,0,485.517C0,500.145,11.855,512,26.483,512
		c9.419,0,17.638-4.952,22.334-12.359c3.849,2.18,8.236,3.531,12.977,3.531c11.511,0,21.213-7.398,24.858-17.655h338.697
		c3.646,10.258,13.347,17.655,24.859,17.655c4.74,0,9.128-1.351,12.977-3.531C467.88,507.048,476.098,512,485.517,512
		C500.145,512,512,500.145,512,485.517C512,476.098,507.048,467.88,499.641,463.183"/>
	<polygon style="fill:#ECF0F1;" points="61.793,450.209 450.207,450.209 450.207,61.795 61.793,61.795 	"/>
	<path style="fill:#805333;" d="M256,349.225c-6.268,0-12.217-1.863-17.655-4.793v114.6h35.31V344.273
		C268.306,347.301,262.374,349.225,256,349.225"/>
	<path style="fill:#24AE5F;" d="M406.069,234.081c0-21.327-13.939-39.389-33.201-45.612c3.699-6.797,5.809-14.592,5.809-22.881
		c0-26.474-21.469-47.943-47.943-47.943c-11.538,0-22.113,4.078-30.385,10.867c-6.744-18.317-24.302-31.409-44.959-31.409
		c-24.867,0-45.303,18.926-47.704,43.167c-4.414-1.342-9.084-2.074-13.939-2.074c-26.474,0-47.943,21.46-47.943,47.943
		c0,0.185,0.026,0.362,0.026,0.538c-23.234,3.319-39.901,27.507-39.901,51.668c0,19.624,10.584,32.203,27.471,39.627
		c-0.812,3.505-1.289,7.142-1.289,10.902c0,26.474,21.46,47.943,47.943,47.943c13.647,0,25.512-4.537,34.242-13.7
		c2.754,20.021,20.93,38.815,41.702,38.815s37.729-18.794,40.483-38.815c8.73,9.163,20.595,13.7,34.251,13.7
		c26.474,0,47.943-21.469,47.943-47.943c0-3.761-0.477-7.398-1.298-10.902C394.266,270.548,406.069,253.705,406.069,234.081"/>
	<g>
		<path style="fill:#177F41;" d="M366.37,261.721c-3.399,0-6.638-1.969-8.086-5.279c-1.969-4.467,0.062-9.666,4.529-11.635
			c5.208-2.295,8.033-7.989,6.682-13.55c-0.918-3.884-4.281-7.186-8.766-8.633l-13.63-4.405
			c-6.665-2.154-11.988-7.133-14.592-13.647c-2.595-6.515-2.154-13.78,1.201-19.933l7.353-13.497c0.9-1.66,1.359-3.416,1.386-5.376
			c0.088-5.932-4.758-11.361-10.575-11.847c-3.178-0.274-6.117,0.6-8.554,2.604c-3.778,3.081-9.331,2.525-12.42-1.236
			c-3.09-3.769-2.542-9.331,1.227-12.42c5.941-4.864,13.471-7.133,21.222-6.541c14.98,1.254,26.977,14.583,26.756,29.714
			c-0.079,4.811-1.271,9.366-3.531,13.542l-7.362,13.506c-1.139,2.092-0.68,3.999-0.3,4.943c0.38,0.953,1.359,2.657,3.628,3.39
			l13.63,4.396c10.293,3.328,18.15,11.502,20.506,21.319c3.337,13.859-3.708,28.098-16.764,33.836
			C368.763,261.483,367.553,261.721,366.37,261.721"/>
		<path style="fill:#177F41;" d="M330.733,318.248c-8.783,0-15.784-2.675-20.807-7.945c-3.363-3.531-3.24-9.119,0.3-12.482
			c3.513-3.363,9.11-3.231,12.473,0.3c0.644,0.671,2.357,2.472,8.033,2.472c6.453,0,11.714-5.261,11.714-11.723
			c0-0.794-0.115-1.686-0.353-2.692c-1.095-4.749,1.863-9.49,6.612-10.593c4.705-1.086,9.49,1.845,10.593,6.603
			c0.538,2.339,0.803,4.52,0.803,6.683C360.102,305.068,346.931,318.248,330.733,318.248"/>
		<path style="fill:#177F41;" d="M173.224,194.269h-0.3c-4.882-0.168-8.695-4.246-8.527-9.128
			c0.538-15.907,13.427-28.381,29.352-28.381c2.904,0,5.791,0.433,8.58,1.289c4.661,1.43,7.283,6.365,5.853,11.026
			c-1.421,4.652-6.329,7.283-11.026,5.853c-7.071-2.136-14.866,3.416-15.122,10.814
			C181.875,190.508,177.955,194.269,173.224,194.269"/>
		<path style="fill:#177F41;" d="M180.052,318.248c-16.199,0-29.369-13.18-29.369-29.378c0-2.216,0.265-4.414,0.821-6.727
			c1.112-4.74,5.87-7.68,10.62-6.559c4.749,1.13,7.68,5.888,6.55,10.637c-0.221,0.953-0.335,1.827-0.335,2.648
			c0,6.462,5.261,11.723,11.714,11.723c5.676,0,7.389-1.801,8.033-2.472c3.372-3.531,8.951-3.655,12.482-0.3
			c3.531,3.363,3.655,8.951,0.291,12.482C195.836,315.573,188.835,318.248,180.052,318.248"/>
		<path style="fill:#177F41;" d="M197.569,233.235c-0.477,0-0.953-0.035-1.448-0.115c-4.811-0.803-8.06-5.341-7.265-10.152
			c3.761-22.81,22.502-39.927,45.577-41.622c4.97-0.3,9.092,3.302,9.446,8.157c0.362,4.864-3.293,9.101-8.157,9.454
			c-14.901,1.095-27.012,12.156-29.458,26.889C205.549,230.171,201.807,233.235,197.569,233.235"/>
		<path style="fill:#177F41;" d="M248.535,282.812c-3.981,0-7.592-2.719-8.572-6.762c-1.148-4.732,1.766-9.507,6.515-10.646
			c14.521-3.505,24.673-16.384,24.673-31.329c0-4.873,3.946-8.828,8.828-8.828c4.873,0,8.828,3.955,8.828,8.828
			c0,23.128-15.713,43.061-38.197,48.49C249.912,282.733,249.223,282.812,248.535,282.812"/>
	</g>
</g>
<g>
</g>
<g>
</g>
<g>
</g>
<g>
</g>
<g>
</g>
<g>
</g>
<g>
</g>
<g>
</g>
<g>
</g>
<g>
</g>
<g>
</g>
<g>
</g>
<g>
</g>
<g>
</g>
<g>
</g>
</svg>
