<svg height="511pt" viewBox="1 -42 511.99995 511" width="511pt" xmlns="http://www.w3.org/2000/svg"><path d="m8.535156 418.632812h494.929688v-409.597656h-494.929688zm25.597656-384h443.734376v358.402344h-443.734376zm0 0" fill="#603913"/><path d="m59.734375 290.632812c0-56.554687 45.84375-102.398437 102.398437-102.398437 56.554688 0 102.398438 45.84375 102.398438 102.398437v34.132813c0-47.128906 38.207031-85.332031 85.335938-85.332031h17.066406c47.128906 0 85.332031 38.203125 85.332031 85.332031v68.269531h25.601563v-358.402344h-443.734376v358.402344h25.601563zm341.246094-149.332031-29.558594 17.066407zm-139.09375 126.121094c6.363281 2.957031 13.167969 4.855469 20.140625 5.632813-6.972656-.777344-13.777344-2.675782-20.140625-5.632813zm92.246093-172.96875-17.066406 29.558594zm-110.933593 29.558594-17.066407-29.558594zm46.933593 13.023437c37.703126 0 68.265626 30.5625 68.265626 68.265625.042968 11.996094-3.140626 23.785157-9.214844 34.132813 6.074218-10.347656 9.257812-22.136719 9.214844-34.132813 0-37.703125-30.5625-68.265625-68.265626-68.265625-37.703124 0-68.265624 30.5625-68.265624 68.265625-.015626.710938.015624 1.425781.085937 2.132813-.074219-.707032-.101563-1.421875-.085937-2.132813 0-37.703125 30.5625-68.265625 68.265624-68.265625zm-81.289062 21.332032-29.558594-17.066407zm0 0" fill="#00d7df"/><path d="m358.398438 205.300781c0 37.703125-30.5625 68.265625-68.265626 68.265625-37.703124 0-68.265624-30.5625-68.265624-68.265625s30.5625-68.265625 68.265624-68.265625c37.703126 0 68.265626 30.5625 68.265626 68.265625zm0 0" fill="#ff9811"/><path d="m264.535156 290.632812c0-56.554687-45.847656-102.398437-102.402344-102.398437-56.554687 0-102.398437 45.84375-102.398437 102.398437v102.402344h204.800781zm0 0" fill="#c2fb3b"/><path d="m366.933594 239.433594h-17.066406c-47.128907 0-85.332032 38.203125-85.332032 85.332031v68.269531h187.730469v-68.269531c0-47.128906-38.203125-85.332031-85.332031-85.332031zm0 0" fill="#c2fb3b"/><g fill="#231f20"><path d="m503.464844.5h-494.929688c-4.714844 0-8.535156 3.820312-8.535156 8.535156v409.597656c0 4.714844 3.820312 8.535157 8.535156 8.535157h494.929688c4.714844 0 8.535156-3.820313 8.535156-8.535157v-409.597656c0-4.714844-3.820312-8.535156-8.535156-8.535156zm-8.53125 409.601562h-477.867188v-392.535156h477.867188zm0 0"/><path d="m34.132812 401.566406h443.734376c4.710937 0 8.53125-3.820312 8.53125-8.53125v-358.402344c0-4.710937-3.820313-8.53125-8.53125-8.53125h-443.734376c-4.710937 0-8.53125 3.820313-8.53125 8.53125v358.402344c0 4.710938 3.820313 8.53125 8.53125 8.53125zm309.648438-170.359375c-25.195312 1.621094-48.671875 13.355469-65.089844 32.539063-3.335937-.640625-6.609375-1.578125-9.78125-2.800782-6.355468-22.761718-19.808594-42.90625-38.398437-57.496093 1.835937-32.941407 30.027343-58.152344 62.964843-56.3125 31.082032 1.730469 55.621094 27.042969 56.390626 58.164062-.023438 8.988281-2.101563 17.847657-6.085938 25.90625zm-87.78125 59.425781v93.867188h-187.734375v-93.867188c0-51.839843 42.027344-93.867187 93.867187-93.867187 51.84375 0 93.867188 42.027344 93.867188 93.867187zm17.066406 93.867188v-59.734375c.050782-42.394531 34.40625-76.746094 76.800782-76.796875h17.066406c42.394531.050781 76.746094 34.402344 76.800781 76.796875v59.734375zm-230.398437-341.332031h426.664062v341.332031h-8.53125v-59.734375c-.0625-51.816406-42.050781-93.804687-93.867187-93.867187h-4.566406c14.21875-39.894532-6.597657-83.761719-46.492188-97.984376-39.898438-14.21875-83.765625 6.597657-97.984375 46.496094-1.554687 4.367188-2.714844 8.863282-3.457031 13.441406-53.96875-28.925781-121.164063-8.621093-150.085938 45.347657-8.640625 16.125-13.160156 34.136719-13.148437 52.433593v93.867188h-8.53125zm0 0"/><path d="m281.601562 77.300781h17.066407v34.132813h-17.066407zm0 0"/><path d="m218.734375 98.722656 14.78125-8.53125 17.066406 29.558594-14.78125 8.53125zm0 0"/><path d="m175.011719 148.6875 8.53125-14.78125 29.5625 17.066406-8.535157 14.78125zm0 0"/><path d="m384 196.765625h34.132812v17.066406h-34.132812zm0 0"/><path d="m367.160156 150.992188 29.5625-17.0625 8.53125 14.78125-29.5625 17.0625zm0 0"/><path d="m329.679688 119.730469 17.0625-29.5625 14.78125 8.53125-17.0625 29.5625zm0 0"/></g></svg>