<svg height="512pt" viewBox="-47 0 512 512" width="512pt" xmlns="http://www.w3.org/2000/svg"><path d="m22.886719 1.0625h373.195312c12.160157 0 22.015625 9.859375 22.015625 22.019531v465.835938c0 12.160156-9.855468 22.015625-22.015625 22.015625h-373.195312c-12.160157 0-22.015625-9.855469-22.015625-22.015625v-465.835938c0-12.160156 9.855468-22.019531 22.015625-22.019531zm0 0" fill="#e3e1c1"/><path d="m382.972656 468.011719h-346.980468v-424.023438h346.980468zm0 0" fill="#faebc8"/><path d="m35.992188 43.988281h30.910156v424.023438h-30.910156zm0 0" fill="#ebc9a0"/><path d="m221.351562 108.878906h-23.734374c-2.683594 0-4.855469-2.175781-4.855469-4.855468 0-2.683594 2.171875-4.859376 4.855469-4.859376h23.734374c2.679688 0 4.855469 2.175782 4.855469 4.859376 0 2.679687-2.175781 4.855468-4.855469 4.855468zm0 0" fill="#e3e1c1"/><path d="m209.484375 412.835938c67.386719 0 48.480469-21.101563 45.085937-36.65625-3.394531-15.550782-4.847656-37.328126-.96875-66.210938 3.878907-28.882812 0-32.882812 0-32.882812 12.121094-21.332032-3.394531-55.105469-3.394531-55.105469 4.363281-11.996094-36.359375-83.542969-27.632812-93.316407 8.726562-9.777343-.40625-23.472656-.40625-23.472656h-25.371094s-9.128906 13.695313-.402344 23.472656c8.726563 9.773438-31.996093 81.320313-27.632812 93.316407 0 0-15.515625 33.773437-3.394531 55.105469 0 0-3.878907 4 0 32.882812 3.878906 28.882812 2.421874 50.660156-.96875 66.210938-3.394532 15.554687-22.300782 36.65625 45.085937 36.65625" fill="#aab2a0"/><path d="m209.488281 412.835938c-67.394531 0-48.480469-21.097657-45.089843-36.65625 3.398437-15.554688 4.851562-37.320313.96875-66.207032-3.554688-26.476562-.589844-32.050781-.074219-32.792968l.074219.042968h88.234374l.070313-.042968c.527344.742187 3.492187 6.316406-.070313 32.792968-3.875 28.886719-2.421874 50.652344.964844 66.207032 3.402344 15.554687 22.304688 36.65625-45.078125 36.65625zm0 0" fill="#a5cdff"/><path d="m253.671875 277.179688-.070313.042968h.097657c-.007813-.015625-.019531-.03125-.027344-.042968zm0 0" fill="#658a83"/><path d="m185 376.179688c3.402344-15.554688 4.855469-37.320313.96875-66.207032-3.5-26.070312-.675781-31.871094-.097656-32.75h-20.503906l-.074219-.042968c-.515625.742187-3.480469 6.316406.074219 32.792968 3.882812 28.886719 2.429687 50.652344-.96875 66.210938-3.390626 15.554687-22.304688 36.652344 45.089843 36.652344 3.691407 0 7.109375-.066407 10.300781-.1875-55.050781-2.113282-37.992187-21.765626-34.789062-36.46875zm0 0" fill="#8cb4eb"/><path d="m253.671875 277.179688-.070313.042968h.097657c-.007813-.015625-.019531-.03125-.027344-.042968zm0 0" fill="#658a83"/><path d="m250.210938 221.984375h-81.445313c-4.371094-12.003906 36.355469-83.546875 27.628906-93.324219-6.203125-6.945312-3.390625-15.867187-1.234375-20.449218.71875.421874 1.5625.667968 2.460938.667968h23.734375c.898437 0 1.730469-.246094 2.453125-.667968 2.152344 4.585937 4.964844 13.503906-1.238282 20.449218-8.726562 9.777344 31.996094 81.320313 27.640626 93.324219zm0 0" fill="#a5cdff"/><path d="m223.808594 108.210938c-.722656.421874-1.558594.667968-2.453125.667968h2.753906c-.101563-.226562-.203125-.457031-.300781-.667968zm0 0" fill="#658a83"/><path d="m217 128.660156c-5.917969-6.625-3.628906-15.039062-1.539062-19.78125h-17.84375c-.894532 0-1.738282-.246094-2.460938-.667968-2.152344 4.585937-4.964844 13.503906 1.234375 20.449218 8.726563 9.777344-31.996094 81.320313-27.628906 93.324219h20.605469c-4.367188-12.003906 36.359374-83.546875 27.632812-93.324219zm0 0" fill="#8cb4eb"/><path d="m226.207031 104.015625c0 1.351563-.546875 2.566406-1.421875 3.441406-.289062.289063-.617187.546875-.976562.753907-.722656.421874-1.558594.667968-2.453125.667968h-23.734375c-.898438 0-1.742188-.246094-2.460938-.667968-1.433594-.835938-2.402344-2.402344-2.402344-4.195313 0-1.339844.546876-2.554687 1.421876-3.429687s2.09375-1.421876 3.441406-1.421876h23.734375c2.679687 0 4.851562 2.175782 4.851562 4.851563zm0 0" fill="#a5cdff"/><path d="m253.601562 277.085938s.027344.03125.070313.09375l-.070313.042968h-88.234374l-.074219-.042968c.042969-.0625.074219-.09375.074219-.09375-12.117188-21.332032 3.398437-55.101563 3.398437-55.101563h81.445313s15.515624 33.769531 3.390624 55.101563zm0 0" fill="#ff646f"/><path d="m185.96875 277.085938c-12.113281-21.332032 3.402344-55.101563 3.402344-55.101563h-20.605469s-15.515625 33.769531-3.402344 55.101563c0 0-.03125.03125-.070312.09375l.070312.042968h20.605469l-.070312-.042968c.039062-.0625.070312-.09375.070312-.09375zm0 0" fill="#fe4455"/><path d="m418.964844 14.925781v482.148438c0 3.894531-1.496094 7.4375-3.945313 10.105469l-39.890625-48.757813c2.164063-2.351563 3.484375-5.472656 3.484375-8.914063v-387.015624c0-3.679688-1.503906-7.007813-3.9375-9.386719l40.300781-48.324219c2.484376 2.667969 3.988282 6.230469 3.988282 10.144531zm0 0" fill="#a26349"/><path d="m414.976562 4.78125-40.300781 48.324219c-2.378906-2.339844-5.632812-3.78125-9.230469-3.78125h-311.917968c-3.636719 0-6.921875 1.472656-9.3125 3.851562l-40.238282-48.394531c2.730469-2.9375 6.625-4.78125 10.949219-4.78125h389.113281c4.324219 0 8.21875 1.84375 10.9375 4.78125zm0 0" fill="#b07d55"/><path d="m44.277344 458.875-40.300782 48.355469c-2.460937-2.667969-3.976562-6.230469-3.976562-10.15625v-482.148438c0-3.914062 1.503906-7.476562 3.976562-10.144531l40.238282 48.398438c-2.378906 2.386718-3.851563 5.675781-3.851563 9.3125v387.019531c0 3.664062 1.492188 6.980469 3.914063 9.363281zm0 0" fill="#a26349"/><path d="m415.019531 507.179688c-2.71875 2.957031-6.636719 4.820312-10.984375 4.820312h-389.109375c-4.316406 0-8.207031-1.835938-10.949219-4.769531l40.300782-48.355469c2.378906 2.347656 5.644531 3.800781 9.25 3.800781h311.917968c3.832032 0 7.285157-1.640625 9.683594-4.257812zm0 0" fill="#b07d55"/></svg>