<svg viewBox="1 1 511.99999 511.99999" xmlns="http://www.w3.org/2000/svg"><g fill-rule="evenodd"><path d="m234.988281 30.984375c0 11.597656 9.402344 21 21 21 11.597657 0 21-9.402344 21-21 0-1.273437-.113281-2.515625-.332031-3.726563-1.757812-9.820312-10.34375-17.273437-20.667969-17.273437-10.328125 0-18.910156 7.453125-20.671875 17.273437-.214844 1.207032-.328125 2.453126-.328125 3.726563zm0 0" fill="#3d5385"/><path d="m434.097656 164.988281h-356.222656c-.566406-1.554687-1.242188-3.058593-2.015625-4.5-5.894531-11.011719-17.507813-18.5-30.871094-18.5-19.332031 0-35 15.667969-35 35 0 15.113281 9.578125 27.988281 23 32.886719v224.222656c-13.421875 4.898438-23 17.773438-23 32.886719 0 19.332031 15.667969 35 35 35 15.113281 0 27.988281-9.582031 32.886719-23h356.222656c4.898438 13.417969 17.773438 23 32.886719 23 19.332031 0 35-15.667969 35-35 0-15.113281-9.578125-27.988281-23-32.886719v-224.222656c13.421875-4.898438 23-17.773438 23-32.886719 0-19.332031-15.667969-35-35-35-13.363281 0-24.976563 7.488281-30.871094 18.5-.773437 1.441407-1.449219 2.945313-2.015625 4.5zm-369.109375 32h382v249.996094h-382zm0 0" fill="#7c594e"/><path d="m216.914062 258.980469c5.78125-23.761719 7.332032-45.285157-1.164062-61.996094h-150.761719v63.257813c39.597657-18.496094 94.460938-12.679688 151.925781-1.261719zm0 0" fill="#53c9d8"/><path d="m216.914062 258.980469c-57.464843-11.417969-112.328124-17.234375-151.929687 1.261719v97.015624c27.101563-21.335937 69.71875-11.507812 119.445313 4.59375 8.917968-34.109374 24.617187-70.5625 32.484374-102.871093zm0 0" fill="#ffcf33"/><path d="m184.429688 361.851562c-49.726563-16.101562-92.34375-25.929687-119.445313-4.59375v89.726563h124.765625c-16.136719-22.605469-13.769531-52.820313-5.320312-85.132813zm0 0" fill="#ffeeda"/><path d="m184.429688 361.851562c-8.449219 32.3125-10.816407 62.527344 5.320312 85.132813h97.015625c-15.949219-13.257813-14.484375-32.1875-6.003906-54.492187-33.472657-8.824219-66.207031-20.882813-96.332031-30.640626zm0 0" fill="#53c9d8"/><path d="m184.429688 361.851562c30.125 9.757813 62.859374 21.816407 96.332031 30.640626 12.070312-31.746094 38.347656-70.320313 48.878906-109.109376-36.316406-7.03125-75.078125-16.921874-112.726563-24.402343-7.867187 32.308593-23.566406 68.761719-32.484374 102.871093zm0 0" fill="#fd4848"/><path d="m216.914062 258.980469c37.648438 7.480469 76.410157 17.371093 112.726563 24.402343 8.054687-29.664062 6.894531-59.449218-16.875-86.398437h-97.015625c8.496094 16.710937 6.945312 38.234375 1.164062 61.996094zm0 0" fill="#ffeeda"/><path d="m312.765625 196.988281c23.769531 26.945313 24.929687 56.730469 16.875 86.398438 45.199219 8.753906 86.605469 13.085937 117.34375 2.855469v-89.253907zm0 0" fill="#53c9d8"/><path d="m446.984375 286.242188c-30.738281 10.230468-72.144531 5.898437-117.34375-2.859376-10.53125 38.789063-36.808594 77.367188-48.878906 109.109376 56.289062 14.839843 114.660156 20.535156 166.222656-9.234376zm0 0" fill="#ffcf33"/><path d="m446.984375 383.257812c-51.5625 29.769532-109.933594 24.074219-166.222656 9.234376-8.480469 22.304687-9.945313 41.238281 6.003906 54.492187h160.21875zm0 0" fill="#ffeeda"/></g><path d="m489 427.738281v-211.476562c13.996094-7.871094 23-22.867188 23-39.261719 0-24.8125-20.1875-45-45-45-12.542969 0-24.257812 5.285156-32.597656 14.03125l-148.839844-124.363281c-3.96875-12.546875-15.71875-21.667969-29.5625-21.667969s-25.59375 9.121094-29.5625 21.667969l-148.832031 124.355469c-8.339844-8.746094-20.0625-14.019532-32.605469-14.019532-24.8125 0-45 20.183594-45 45 0 16.394532 9.003906 31.390625 23 39.257813v211.480469c-13.996094 7.867187-23 22.863281-23 39.257812 0 24.8125 20.1875 45 45 45 16.394531 0 31.394531-9.003906 39.261719-23h343.476562c7.867188 13.996094 22.867188 23 39.261719 23 24.8125 0 45-20.1875 45-45 0-16.394531-9.003906-31.390625-23-39.261719zm-233-407.738281c6.066406 0 11 4.933594 11 11s-4.933594 11-11 11-11-4.933594-11-11 4.933594-11 11-11zm211 472c-10.464844 0-19.90625-6.601562-23.496094-16.429688-1.4375-3.945312-5.191406-6.570312-9.394531-6.570312h-356.21875c-4.203125 0-7.957031 2.625-9.394531 6.570312-3.589844 9.828126-13.03125 16.429688-23.496094 16.429688-13.785156 0-25-11.214844-25-25 0-10.464844 6.601562-19.90625 16.429688-23.492188 3.945312-1.441406 6.570312-5.195312 6.570312-9.394531v-224.222656c0-4.203125-2.625-7.957031-6.570312-9.394531-9.828126-3.585938-16.429688-13.027344-16.429688-23.496094 0-13.785156 11.214844-25 25-25 10.464844 0 19.90625 6.601562 23.496094 16.429688.019531.058593.046875.109374.070312.164062.074219.203125.160156.398438.246094.589844.054688.121094.113281.238281.171875.355468.082031.164063.171875.324219.265625.484376.078125.136718.160156.273437.246094.402343.082031.128907.167968.253907.257812.378907.105469.148437.210938.292968.324219.433593.085937.105469.171875.203125.257813.304688.125.144531.253906.289062.386718.425781.089844.09375.183594.179688.277344.269531.140625.132813.277344.257813.417969.378907.109375.09375.222656.179687.332031.269531.136719.105469.273438.207031.414062.304687.132813.09375.273438.183594.410157.269532.125.078124.253906.160156.382812.230468.160157.09375.320313.175782.484375.257813.121094.058593.238282.117187.363282.171875.171874.078125.347656.148437.527343.214844.125.050781.25.097656.375.140624.171875.058594.34375.105469.519531.15625.148438.039063.292969.078126.441407.113282.15625.035156.3125.066406.472656.09375.175781.03125.351563.058594.53125.082031.136719.015625.273437.027344.410156.039063.203125.015624.410157.027343.613281.03125.066407 0 .128907.011718.195313.011718h31.03125c5.523437 0 10-4.480468 10-10 0-5.523437-4.476563-10-10-10h-10.867187l130.707031-109.214844c5.257812 9.648438 15.496093 16.210938 27.238281 16.210938s21.980469-6.5625 27.238281-16.210938l130.707031 109.210938h-236.058593c-5.519531 0-10 4.476562-10 10s4.480469 10 10 10h256.222656c4.203125 0 7.957031-2.625 9.394531-6.570312 3.589844-9.828126 13.03125-16.429688 23.496094-16.429688 13.785156 0 25 11.214844 25 25 0 10.46875-6.601562 19.910156-16.429688 23.496094-3.945312 1.4375-6.570312 5.191406-6.570312 9.394531v224.21875c0 4.203125 2.625 7.957031 6.570312 9.394531 9.828126 3.585938 16.429688 13.03125 16.429688 23.496094 0 13.785156-11.214844 25-25 25zm0 0"/><path d="m457 197c0-5.523438-4.476562-10-10-10h-382c-5.523438 0-10 4.476562-10 10v250c0 5.523438 4.476562 10 10 10h272c5.523438 0 10-4.476562 10-10s-4.476562-10-10-10h-46.253906c-7.367188-7.886719-7.71875-18.585938-3.5-32.566406 13.71875 3.359375 27.566406 6.140625 41.332031 7.925781 11.675781 1.515625 22.875 2.273437 33.652344 2.273437 27.582031 0 52.324219-4.984374 74.769531-15.039062v37.40625h-31.035156c-5.519532 0-10 4.476562-10 10s4.480468 10 10 10h41.035156c5.523438 0 10-4.476562 10-10zm-20 81.722656c-25.671875 6.34375-58.691406 3.386719-95.257812-3.21875 4.582031-23.03125 3.308593-46.339844-9.457032-68.503906h104.714844zm-162.132812 101.816406c-20.527344-5.753906-40.8125-12.601562-60.40625-19.214843-6.023438-2.03125-11.96875-4.039063-17.828126-5.984375 3.867188-13.308594 8.585938-26.96875 13.269532-40.5 5.222656-15.097656 10.34375-29.914063 14.316406-44.160156 15.101562 3.132812 30.355469 6.585937 45.507812 10.015624 15.976563 3.617188 31.746094 7.1875 47.125 10.347657-6.375 18.683593-16.019531 37.398437-25.433593 55.652343-6.03125 11.695313-11.867188 23.019532-16.550781 33.84375zm-199.867188-113.675781c34.222656-13.296875 80.429688-9.242187 129.496094-.082031-3.804688 13.5-8.675782 27.59375-13.496094 41.523438-4.707031 13.609374-9.457031 27.34375-13.421875 40.886718-39.980469-12.445312-75.199219-19.75-102.578125-9.03125zm199.140625-5.671875c-15.046875-3.40625-30.191406-6.835937-45.234375-9.960937 3.117188-15.894531 3.984375-30.800781.945312-44.230469h78.269532c14.65625 18.332031 19.113281 39.019531 14.019531 64.714844-15.597656-3.191406-31.6875-6.832032-48-10.523438zm-65.046875-54.191406c3.679688 11.175781 3.066406 25.046875.105469 40.316406-49.222657-9.25-96.367188-13.667968-134.199219-1.644531v-38.671875zm-134.09375 155.464844c22.117188-13.707032 56.703125-6.667969 97.496094 6.089844-5.59375 24.625-7.125 48.09375.65625 68.445312h-98.152344zm192.492188 74.535156h-72.230469c-9.496094-16.699219-8.800781-38.460938-3.621094-62.242188 5.394531 1.792969 10.871094 3.644532 16.421875 5.515626 18.921875 6.386718 39.128906 13.199218 59.871094 19.0625-.453125 1.554687-.882813 3.101562-1.25 4.632812-3.046875 12.617188-2.761719 23.65625.808594 33.03125zm27.023437-51.347656c4.011719-8.921875 9.023437-18.824219 14.675781-29.789063 9.777344-18.953125 20.453125-39.664062 27.410156-60.96875 24.019532 4.386719 46.816407 7.328125 67.621094 7.328125 11.589844 0 22.558594-.914062 32.777344-2.996094v78.128907c-44 23.128906-93.507812 19.984375-142.484375 8.296875zm0 0"/><path d="m137.652344 175h.269531c5.523437 0 10-4.476562 10-10s-4.476563-10-10-10h-.269531c-5.523438 0-10 4.476562-10 10s4.476562 10 10 10zm0 0"/><path d="m377.234375 437h-.269531c-5.523438 0-10 4.476562-10 10s4.476562 10 10 10h.269531c5.523437 0 10-4.476562 10-10s-4.476563-10-10-10zm0 0"/></svg>