<?xml version="1.0" encoding="iso-8859-1"?>
<!-- Generator: Adobe Illustrator 19.0.0, SVG Export Plug-In . SVG Version: 6.00 Build 0)  -->
<svg version="1.1" id="Capa_1" xmlns="http://www.w3.org/2000/svg" xmlns:xlink="http://www.w3.org/1999/xlink" x="0px" y="0px"
	 viewBox="0 0 430.08 430.08" style="enable-background:new 0 0 430.08 430.08;" xml:space="preserve">
<g>
	<polyline style="fill:#EAEAEA;" points="375.467,6.827 423.253,6.827 423.253,423.253 6.827,423.253 6.827,6.827 6.827,6.827 
		348.128,6.827 	"/>
</g>
<path style="fill:#602F75;" d="M423.253,430.08H6.827c-3.77,0-6.827-3.057-6.827-6.827V6.827C0,3.057,3.057,0,6.827,0h341.301
	c3.77,0,6.827,3.057,6.827,6.827s-3.057,6.827-6.827,6.827H13.653v402.773h402.773V13.653h-40.96c-3.77,0-6.827-3.057-6.827-6.827
	S371.697,0,375.467,0h47.787c3.77,0,6.827,3.057,6.827,6.827v416.427C430.08,427.023,427.023,430.08,423.253,430.08z"/>
<polygon style="fill:#FFFFFF;" points="54.613,54.613 375.467,54.613 375.467,375.467 54.613,375.467 "/>
<path style="fill:#602F75;" d="M382.293,382.293H47.787V47.787h334.507V382.293z M61.44,368.64h307.2V61.44H61.44V368.64z"/>
<path style="fill:#FFFFFF;" d="M128.988,248.41c-2.446,0.823-5.033,1.266-7.719,1.266c-14.74,0-26.694-13.402-26.694-29.943
	c0-16.539,11.953-29.95,26.694-29.95c5.485,0,10.581,1.853,14.824,5.04"/>
<path style="fill:#602F75;" d="M121.269,256.503c-18.483,0-33.519-16.495-33.519-36.77c0-20.279,15.037-36.777,33.519-36.777
	c6.798,0,13.341,2.215,18.924,6.407c3.016,2.265,3.623,6.543,1.36,9.557c-2.263,3.016-6.543,3.623-9.557,1.36
	c-3.198-2.401-6.907-3.671-10.725-3.671c-10.953,0-19.866,10.373-19.866,23.124c0,12.747,8.912,23.117,19.866,23.117
	c1.884,0,3.748-0.305,5.542-0.91c3.572-1.203,7.444,0.719,8.648,4.291c1.203,3.574-0.719,7.444-4.291,8.648
	C127.968,255.957,124.638,256.503,121.269,256.503z"/>
<path style="fill:#FFFFFF;" d="M300.034,194.816c4.243-3.178,9.339-5.033,14.822-5.033c14.742,0,26.694,13.411,26.694,29.95
	c0,16.541-11.953,29.943-26.694,29.943c-2.685,0-5.274-0.444-7.719-1.266"/>
<path style="fill:#602F75;" d="M314.858,256.503c-3.367,0-6.697-0.546-9.897-1.623c-3.574-1.203-5.495-5.076-4.292-8.648
	c1.203-3.574,5.074-5.495,8.648-4.292c1.794,0.604,3.657,0.91,5.54,0.91c10.955,0,19.867-10.37,19.867-23.117
	c0-12.75-8.912-23.124-19.867-23.124c-3.816,0-7.526,1.268-10.73,3.669c-3.017,2.26-7.296,1.647-9.557-1.37
	c-2.26-3.017-1.647-7.296,1.37-9.556c5.584-4.183,12.126-6.395,18.915-6.395c18.483,0,33.521,16.498,33.521,36.777
	C348.378,240.009,333.341,256.503,314.858,256.503z"/>
<path style="fill:#FFFFFF;" d="M218.068,142.573c49.918,0,90.394,40.467,90.394,90.395s-40.475,90.402-90.394,90.402
	c-49.927,0-90.404-40.475-90.404-90.402S168.141,142.573,218.068,142.573L218.068,142.573z"/>
<path style="fill:#602F75;" d="M218.068,330.197c-53.613,0-97.231-43.617-97.231-97.229c0-53.608,43.617-97.222,97.231-97.222
	c53.608,0,97.22,43.614,97.22,97.222C315.29,286.58,271.676,330.197,218.068,330.197z M218.068,149.4
	c-46.083,0-83.577,37.489-83.577,83.569c0,46.083,37.492,83.575,83.577,83.575c46.08,0,83.567-37.492,83.567-83.575
	C301.636,186.889,264.148,149.4,218.068,149.4z"/>
<path style="fill:#FFFFFF;" d="M175.35,259.427c28.467,31.095,56.943,27.621,85.419,0"/>
<path style="fill:#602F75;" d="M216.776,288.292c-0.468,0-0.935-0.007-1.403-0.02c-15.601-0.462-30.761-8.617-45.059-24.233
	c-2.546-2.782-2.355-7.1,0.427-9.644c2.78-2.546,7.098-2.355,9.644,0.425c11.711,12.793,23.619,19.456,35.393,19.806
	c12.573,0.381,26.105-6.388,40.238-20.096c2.707-2.625,7.028-2.558,9.653,0.147c2.625,2.707,2.558,7.028-0.147,9.653
	C249.122,280.235,232.73,288.292,216.776,288.292z"/>
<rect x="161.466" y="124.141" transform="matrix(-0.039 0.9992 -0.9992 -0.039 320.8755 -46.6606)" style="fill:#602F75;" width="42.819" height="13.653"/>
<rect x="191.932" y="114.662" transform="matrix(-0.0392 0.9992 -0.9992 -0.0392 343.1003 -86.9263)" style="fill:#602F75;" width="42.819" height="13.653"/>
<rect x="223.046" y="112.125" transform="matrix(-0.0424 0.9991 -0.9991 -0.0424 373.666 -120.2408)" style="fill:#602F75;" width="42.82" height="13.653"/>
<path style="fill:#602F75;" d="M193.785,220.052h-0.788c-3.77,0-6.827-3.057-6.827-6.827c0-3.77,3.057-6.827,6.827-6.827h0.788
	c3.77,0,6.827,3.057,6.827,6.827C200.612,216.996,197.555,220.052,193.785,220.052z"/>
<path style="fill:#602F75;" d="M243.132,220.052h-0.79c-3.77,0-6.827-3.057-6.827-6.827c0-3.77,3.057-6.827,6.827-6.827h0.79
	c3.77,0,6.827,3.057,6.827,6.827C249.958,216.996,246.903,220.052,243.132,220.052z"/>
<g>
	<circle style="fill:#FFE600;" cx="327.68" cy="334.507" r="27.307"/>
	<path style="fill:#FFE600;" d="M327.68,368.64c-18.821,0-34.133-15.312-34.133-34.133c0-18.821,15.312-34.133,34.133-34.133
		c18.821,0,34.133,15.312,34.133,34.133C361.813,353.328,346.501,368.64,327.68,368.64z M327.68,314.027
		c-11.293,0-20.48,9.187-20.48,20.48c0,11.293,9.187,20.48,20.48,20.48c11.293,0,20.48-9.187,20.48-20.48
		C348.16,323.214,338.973,314.027,327.68,314.027z"/>
</g>
<g>
	<circle style="fill:#00E7FF;" cx="95.573" cy="54.613" r="27.307"/>
	<path style="fill:#00E7FF;" d="M95.573,88.747c-18.821,0-34.133-15.312-34.133-34.133S76.752,20.48,95.573,20.48
		s34.133,15.312,34.133,34.133S114.394,88.747,95.573,88.747z M95.573,34.133c-11.293,0-20.48,9.187-20.48,20.48
		s9.187,20.48,20.48,20.48s20.48-9.187,20.48-20.48S106.866,34.133,95.573,34.133z"/>
</g>
<g>
	<circle style="fill:#EA3457;" cx="252.587" cy="368.64" r="27.307"/>
	<path style="fill:#EA3457;" d="M252.587,402.773c-18.821,0-34.133-15.312-34.133-34.133c0-18.821,15.312-34.133,34.133-34.133
		s34.133,15.312,34.133,34.133C286.72,387.461,271.408,402.773,252.587,402.773z M252.587,348.16c-11.293,0-20.48,9.187-20.48,20.48
		s9.187,20.48,20.48,20.48c11.293,0,20.48-9.187,20.48-20.48S263.88,348.16,252.587,348.16z"/>
	<rect x="320.853" y="61.44" style="fill:#EA3457;" width="47.787" height="47.787"/>
</g>
<rect x="61.44" y="320.853" style="fill:#00E7FF;" width="47.787" height="47.787"/>
<g>
</g>
<g>
</g>
<g>
</g>
<g>
</g>
<g>
</g>
<g>
</g>
<g>
</g>
<g>
</g>
<g>
</g>
<g>
</g>
<g>
</g>
<g>
</g>
<g>
</g>
<g>
</g>
<g>
</g>
</svg>
