<?xml version="1.0" encoding="iso-8859-1"?>
<!-- Generator: Adobe Illustrator 19.0.0, SVG Export Plug-In . SVG Version: 6.00 Build 0)  -->
<svg version="1.1" id="Layer_1" xmlns="http://www.w3.org/2000/svg" xmlns:xlink="http://www.w3.org/1999/xlink" x="0px" y="0px"
	 viewBox="0 0 512 512" style="enable-background:new 0 0 512 512;" xml:space="preserve">
<g>
	<path style="fill:#F0C419;" d="M499.641,427.873c2.18-3.849,3.531-8.236,3.531-12.977c0-11.52-7.389-21.213-17.655-24.867V121.962
		c10.266-3.646,17.655-13.347,17.655-24.858c0-4.749-1.351-9.137-3.531-12.985C507.048,79.422,512,71.212,512,61.793
		c0-14.627-11.855-26.483-26.483-26.483c-9.419,0-17.638,4.952-22.334,12.359c-3.849-2.189-8.236-3.531-12.977-3.531
		c-11.511,0-21.213,7.389-24.859,17.655H86.652c-3.646-10.266-13.347-17.655-24.858-17.655c-4.74,0-9.128,1.342-12.977,3.531
		C44.12,40.263,35.902,35.31,26.483,35.31C11.855,35.31,0,47.166,0,61.793c0,9.419,4.952,17.629,12.359,22.325
		c-2.18,3.849-3.531,8.236-3.531,12.985c0,11.511,7.398,21.213,17.655,24.858v268.067c-10.258,3.655-17.655,13.347-17.655,24.867
		c0,4.74,1.351,9.128,3.531,12.977C4.952,432.569,0,440.788,0,450.207c0,14.627,11.855,26.483,26.483,26.483
		c9.419,0,17.638-4.952,22.334-12.359c3.849,2.18,8.236,3.531,12.977,3.531c11.511,0,21.213-7.398,24.858-17.655h338.697
		c3.646,10.258,13.347,17.655,24.859,17.655c4.74,0,9.128-1.351,12.977-3.531c4.696,7.406,12.915,12.359,22.334,12.359
		c14.627,0,26.483-11.855,26.483-26.483C512,440.788,507.048,432.569,499.641,427.873"/>
	<polygon style="fill:#ECF0F1;" points="61.793,414.898 450.207,414.898 450.207,97.105 61.793,97.105 	"/>
	<path style="fill:#F18D46;" d="M353.103,308.963c-8.457-31.762-45.85-52.966-90.739-52.966c-38.886,0-72.113,18.679-85.813,44.138
		v44.138h185.379v-17.655L353.103,308.963z"/>
	<path style="fill:#177F41;" d="M450.207,247.17c-34.18,58.721-176.596,83.482-238.345,79.448l8.828,88.276h229.517V247.17z"/>
	<path style="fill:#24AE5F;" d="M61.793,255.997c99.716,6.321,178.008,85.733,238.345,158.897H61.793V255.997z"/>
	<path style="fill:#BDC3C7;" d="M273.655,203.032c-4.882,0-8.828-3.955-8.828-8.828c0-11.564,12.297-26.483,25.353-26.483h11.026
		c3.831-15.395,17.505-26.483,34.242-26.483c19.8,0,35.31,15.51,35.31,35.31c0,4.873-3.946,8.828-8.828,8.828
		c-4.882,0-8.828-3.955-8.828-8.828c0-10.063-7.583-17.655-17.655-17.655s-17.655,7.592-17.655,17.655
		c0,4.873-3.946,8.828-8.828,8.828H290.18c-2.578,0.185-7.698,6.038-7.698,8.828C282.483,199.077,278.537,203.032,273.655,203.032"
		/>
	<path style="fill:#24AE5F;" d="M194.207,194.204c0,24.373-19.765,44.138-44.138,44.138s-44.138-19.765-44.138-44.138
		s19.765-44.138,44.138-44.138S194.207,169.831,194.207,194.204"/>
	<path style="fill:#805333;" d="M173.965,200.445l-12.482-12.482l-11.414,11.414l-11.414-11.414l-12.482,12.482l15.069,15.069
		v22.828v8.828v79.448c0,4.873,3.946,8.828,8.828,8.828s8.828-3.955,8.828-8.828V247.17v-8.828v-22.828L173.965,200.445z"/>
</g>
<g>
</g>
<g>
</g>
<g>
</g>
<g>
</g>
<g>
</g>
<g>
</g>
<g>
</g>
<g>
</g>
<g>
</g>
<g>
</g>
<g>
</g>
<g>
</g>
<g>
</g>
<g>
</g>
<g>
</g>
</svg>
