<?xml version="1.0" encoding="iso-8859-1"?>
<!-- Generator: Adobe Illustrator 19.0.0, SVG Export Plug-In . SVG Version: 6.00 Build 0)  -->
<svg version="1.1" id="Capa_1" xmlns="http://www.w3.org/2000/svg" xmlns:xlink="http://www.w3.org/1999/xlink" x="0px" y="0px"
	 viewBox="0 0 512 512" style="enable-background:new 0 0 512 512;" xml:space="preserve">
<path style="fill:#FEA832;" d="M467,60h-20.2c-17.399-29.101-84.3-35.7-127.5-25.501C305.501,13.2,282.1,0,256,0
	s-49.501,13.2-63.3,34.499C149.5,24.3,82.599,30.899,65.2,60H45C20.099,60,0,81.099,0,106v301c0,24.899,20.099,45,45,45h20.2
	c17.399,29.099,84.3,35.7,127.5,25.499C206.499,498.8,229.9,512,256,512s49.501-13.2,63.3-34.501
	c43.2,10.201,110.101,3.6,127.5-25.499H467c24.901,0,45-20.101,45-45V106C512,81.099,491.901,60,467,60z"/>
<path style="fill:#FE8821;" d="M512,106v301c0,24.899-20.099,45-45,45h-20.2c-17.399,29.099-84.3,35.7-127.5,25.499
	C305.501,498.8,282.1,512,256,512V0c26.1,0,49.501,13.2,63.3,34.499C362.5,24.3,429.401,30.899,446.8,60H467
	C491.901,60,512,81.099,512,106z"/>
<path style="fill:#E5E5E5;" d="M451,136v173.699l-64.501,55.8L256,352L95.501,335.499L61,309.699V136c0-8.401,6.599-15,15-15h360
	C444.401,121,451,127.599,451,136z"/>
<path style="fill:#D9D9D9;" d="M451,136v173.699l-64.501,55.8L256,352V121h180C444.401,121,451,127.599,451,136z"/>
<path style="fill:#32D735;" d="M326.499,185.499c-5.7-5.999-15.298-5.999-20.999,0l-49.5,49.2l-30,30l-49.501-49.2
	c-5.7-5.999-15.298-5.999-20.999,0l-94.5,94.2V376c0,8.399,6.599,15,15,15h360c8.401,0,15-6.601,15-15v-66.301L326.499,185.499z"/>
<path style="fill:#11C922;" d="M451,309.699V376c0,8.399-6.599,15-15,15H256V234.699l49.501-49.2c5.7-5.999,15.298-5.999,20.999,0
	L451,309.699z"/>
<g>
</g>
<g>
</g>
<g>
</g>
<g>
</g>
<g>
</g>
<g>
</g>
<g>
</g>
<g>
</g>
<g>
</g>
<g>
</g>
<g>
</g>
<g>
</g>
<g>
</g>
<g>
</g>
<g>
</g>
</svg>
