<svg height="512pt" viewBox="-41 0 512 512" width="512pt" xmlns="http://www.w3.org/2000/svg"><path d="m54.75 512c-30.1875 0-54.75-24.558594-54.75-54.746094v-402.507812c0-30.1875 24.5625-54.746094 54.75-54.746094h321.433594c30.1875 0 54.75 24.558594 54.75 54.746094v402.503906c0 30.1875-24.5625 54.75-54.75 54.75zm0 0" fill="#deb48c"/><path d="m0 54.746094v402.503906c0 30.1875 24.558594 54.75 54.75 54.75h240.464844c-165.636719-79.699219-196.390625-277.363281-185.84375-512h-54.621094c-30.1875 0-54.75 24.558594-54.75 54.746094zm0 0" fill="#d19169"/><path d="m376.183594 34.917969h-321.433594c-10.953125 0-19.832031 8.878906-19.832031 19.832031v402.503906c0 10.949219 8.878906 19.828125 19.832031 19.828125h321.433594c10.953125 0 19.828125-8.878906 19.828125-19.828125v-402.507812c0-10.949219-8.875-19.828125-19.828125-19.828125zm0 0" fill="#739cda"/><path d="m54.75 477.082031h201.863281c-150.40625-106.316406-133.8125-358.710937-131.375-442.164062h-70.492187c-10.949219 0-19.828125 8.878906-19.828125 19.832031v402.503906c0 10.949219 8.878906 19.828125 19.832031 19.828125zm0 0" fill="#6082c4"/><path d="m396.011719 117.074219c-7.195313-1.816407-14.851563-2.800781-22.792969-2.800781-27.847656 0-52.191406 12.050781-65.453125 30.027343-3.390625-.746093-6.957031-1.152343-10.644531-1.152343-13.183594 0-24.886719 5.105468-32.226563 13-6.863281 7.375-1.546875 19.40625 8.53125 19.40625h122.585938zm0 0" fill="#fff"/><path d="m50.449219 76.386719c-5.335938 0-10.53125.480469-15.53125 1.375v55.9375h63.214843c14.191407 0 22.703126-15.914063 14.6875-27.625-12.109374-17.699219-35.503906-29.6875-62.371093-29.6875zm0 0" fill="#fff"/><path d="m291.304688 377.167969c-12.6875-7.066407-28.703126-2.511719-35.769532 10.175781-7.070312 12.6875-2.511718 28.703125 10.175782 35.773438 6.773437 3.769531 26.597656 17.769531 32.296874 53.964843h53.050782c-7.109375-65.410156-46.777344-92.683593-59.753906-99.914062zm0 0" fill="#86c9d9"/><path d="m139.628906 377.167969c12.6875-7.066407 28.703125-2.511719 35.769532 10.175781 7.066406 12.6875 2.511718 28.703125-10.175782 35.773438-6.773437 3.769531-26.601562 17.769531-32.296875 53.964843h-53.054687c7.113281-65.410156 46.777344-92.683593 59.757812-99.914062zm0 0" fill="#9cdae3"/><path d="m305.445312 477.082031v-44.804687c0-49.695313-40.285156-89.980469-89.980468-89.980469-49.695313 0-89.980469 40.285156-89.980469 89.980469v44.804687zm0 0" fill="#9cdae3"/><path d="m125.484375 477.082031h131.128906c-42.808593-30.261719-72.097656-72.355469-92.023437-119.023437-23.613282 16.21875-39.105469 43.40625-39.105469 74.21875zm0 0" fill="#86c9d9"/><path d="m250.378906 365.949219-27.480468 54.882812c-3.066407 6.121094-11.800782 6.121094-14.863282 0l-27.484375-54.882812zm0 0" fill="#fff"/><path d="m172.828125 357.402344-9.617187 33.320312c-1.347657 4.675782 3.203124 8.894532 7.765624 7.191406l44.488282-16.617187zm0 0" fill="#eeeeed"/><path d="m258.101562 357.402344 9.617188 33.320312c1.351562 4.675782-3.203125 8.894532-7.765625 7.191406l-44.488281-16.617187zm0 0" fill="#eeeeed"/><path d="m119.601562 268.757812c0 15.890626-12.882812 28.773438-28.773437 28.773438s-28.773437-12.882812-28.773437-28.773438c0-15.890624 12.882812-28.773437 28.773437-28.773437s28.773437 12.882813 28.773437 28.773437zm0 0" fill="#ebb6a9"/><path d="m368.875 268.757812c0 15.890626-12.882812 28.773438-28.773438 28.773438-15.890624 0-28.773437-12.882812-28.773437-28.773438 0-15.890624 12.882813-28.773437 28.773437-28.773437 15.890626 0 28.773438 12.882813 28.773438 28.773437zm0 0" fill="#ebb6a9"/><path d="m340.101562 268.757812c0-68.832031-55.800781-124.636718-124.636718-124.636718-68.832032 0-124.636719 55.804687-124.636719 124.636718 0 68.835938 55.804687 112.539063 124.636719 112.539063 68.835937 0 124.636718-43.703125 124.636718-112.539063zm0 0" fill="#f8cebe"/><path d="m340.101562 268.757812c0-68.832031-55.800781-124.636718-124.636718-124.636718-68.832032 0-124.636719 55.804687-124.636719 124.636718 0 68.835938 55.804687 112.539063 124.636719 112.539063 68.835937 0 124.636718-43.703125 124.636718-112.539063zm0 0" fill="#f8cebe"/><path d="m172.425781 375.15625c-29.660156-60.402344-41.871093-130.472656-46.453125-193.136719-21.75 22.4375-35.144531 53.023438-35.144531 86.738281 0 53.707032 33.972656 92.113282 81.597656 106.398438zm0 0" fill="#ebb6a9"/><path d="m169.128906 294.035156c0-11.917968-12.128906-21.578125-27.09375-21.578125s-27.097656 9.660157-27.097656 21.578125c0 11.914063 12.132812 21.574219 27.097656 21.574219s27.09375-9.660156 27.09375-21.574219zm0 0" fill="#eb8db3"/><path d="m315.992188 294.035156c0-11.917968-12.128907-21.578125-27.09375-21.578125-14.964844 0-27.09375 9.660157-27.09375 21.578125 0 11.914063 12.128906 21.574219 27.09375 21.574219 14.964843 0 27.09375-9.660156 27.09375-21.574219zm0 0" fill="#eb8db3"/><g fill="#495059"><path d="m157.824219 280.007812c-4.140625 0-7.5-3.355468-7.5-7.5v-9.566406c0-4.140625 3.359375-7.5 7.5-7.5 4.144531 0 7.5 3.359375 7.5 7.5v9.566406c0 4.144532-3.355469 7.5-7.5 7.5zm0 0"/><path d="m273.105469 280.007812c-4.140625 0-7.5-3.355468-7.5-7.5v-9.566406c0-4.140625 3.359375-7.5 7.5-7.5 4.144531 0 7.5 3.359375 7.5 7.5v9.566406c0 4.144532-3.355469 7.5-7.5 7.5zm0 0"/><path d="m237.011719 278.164062c-4.980469-4.976562-12.542969-5.789062-18.367188-2.4375-1.984375 1.140626-4.375 1.140626-6.359375 0-5.820312-3.351562-13.386718-2.539062-18.363281 2.4375-4.445313 4.449219-8.488281 8.125-12.171875 11.074219-5.613281 4.492188-2.949219 13.558594 4.207031 14.234375 6.539063.617188 13.117188.699219 18.738281.699219 3.898438 0 7.796876-1.488281 10.773438-4.460937 2.972656 2.972656 6.871094 4.460937 10.769531 4.460937 5.621094 0 12.199219-.082031 18.738281-.699219 7.15625-.675781 9.820313-9.742187 4.207032-14.234375-3.683594-2.949219-7.726563-6.625-12.171875-11.074219zm0 0"/><path d="m336.363281 245.910156c6.90625-1.246094 11.171875-8.210937 9.195313-14.941406-16.535156-56.222656-68.515625-97.273438-130.09375-97.273438-67.351563 0-123.230469 49.109376-133.792969 113.476563-1.367187 8.332031 6.148437 15.4375 14.355469 13.453125 32.238281-7.792969 55.550781-35.695312 57.722656-51.273438 18.078125 25.308594 109.144531 49.800782 182.613281 36.558594zm0 0"/></g><path d="m170.976562 397.914062 11.296876-4.21875c-4.609376-8.03125-8.863282-16.277343-12.792969-24.699218l-6.269531 21.726562c-1.347657 4.675782 3.207031 8.894532 7.765624 7.191406zm0 0" fill="#dfdfdd"/><path d="m96.027344 260.625c14.3125-3.460938 26.859375-10.886719 36.585937-19.433594-3.871093-24.953125-6.203125-49.585937-7.539062-72.96875-22.535157 20.171875-38.285157 47.769532-43.402344 78.949219-1.367187 8.332031 6.148437 15.4375 14.355469 13.453125zm0 0" fill="#3a424f"/></svg>