<?xml version="1.0" encoding="iso-8859-1"?>
<!-- Generator: Adobe Illustrator 19.0.0, SVG Export Plug-In . SVG Version: 6.00 Build 0)  -->
<svg version="1.1" id="Layer_1" xmlns="http://www.w3.org/2000/svg" xmlns:xlink="http://www.w3.org/1999/xlink" x="0px" y="0px"
	 viewBox="0 0 512 512" style="enable-background:new 0 0 512 512;" xml:space="preserve">
<path style="fill:#E6E7E8;" d="M365.17,295.456c1.683-7.775,2.565-15.789,2.565-24.044c0-61.955-50.252-112.207-112.207-112.207
	S143.32,209.457,143.32,271.412c0,13.545,2.484,26.609,6.812,38.631c-5.45,0.882-11.782,1.443-19.636,1.443
	c-41.678,0-41.678-16.03-83.354-16.03V46.997h416.77v264.489c-41.677,0-41.677-16.03-83.354-16.03c-5.851,0-10.9,0.321-15.309,0.882
	L365.17,295.456z"/>
<path style="fill:#3FA9F5;" d="M150.212,310.043c23.403-4.007,29.815-14.587,63.638-14.587c41.597,0,41.597,16.03,83.274,16.03
	c35.826,0,40.875-11.862,68.126-15.148c4.409-0.561,9.458-0.882,15.309-0.882c41.677,0,41.677,16.03,83.354,16.03v152.281H47.142
	V295.456c41.677,0,41.677,16.03,83.354,16.03c7.855,0,14.186-0.561,19.636-1.443H150.212z"/>
<path style="fill:#FFD311;" d="M367.734,271.412c0,8.255-0.882,16.27-2.565,24.044l0.08,0.882
	c-27.251,3.286-32.3,15.148-68.126,15.148c-41.677,0-41.677-16.03-83.274-16.03c-33.823,0-40.235,10.58-63.638,14.587h-0.08
	c-4.328-12.022-6.812-25.086-6.812-38.631c0-61.955,50.253-112.207,112.207-112.207S367.734,209.457,367.734,271.412z"/>
<g>
	<polygon style="fill:#A97C50;" points="503.986,6.923 503.986,503.841 463.912,463.767 463.912,311.486 463.912,46.997 	"/>
	<polygon style="fill:#A97C50;" points="47.142,295.456 47.142,463.767 7.068,503.841 7.068,6.923 47.142,46.997 	"/>
</g>
<g>
	<polygon style="fill:#8B5E3C;" points="503.986,503.841 7.068,503.841 47.142,463.767 463.912,463.767 	"/>
	<polygon style="fill:#8B5E3C;" points="503.986,6.923 463.912,46.997 47.142,46.997 7.068,6.923 	"/>
</g>
<path style="fill:#231F20;" d="M0,0v512h512V0H0z M486.255,15.081l-24.994,24.994H50.737L25.744,15.081H486.255z M150.855,312.208
	l0.089-0.03l1.012,5.916c9.704-1.662,16.64-4.339,23.348-6.93c10.055-3.882,19.551-7.549,39.017-7.549
	c19.387,0,28.857,3.646,38.883,7.506c10.885,4.19,22.141,8.524,44.391,8.524c22.2,0,33.461-4.32,44.35-8.497
	c7.291-2.797,14.179-5.439,24.728-6.711c4.282-0.545,9.112-0.821,14.356-0.821c19.439,0,28.927,3.648,38.971,7.512
	c9.581,3.686,19.455,7.48,36.843,8.338v137.382H55.155V303.818c14.536,0.815,22.78,3.981,31.43,7.308
	c10.887,4.187,22.145,8.518,44.384,8.518c7.62,0,14.436-0.504,20.84-1.539L150.855,312.208z M151.332,272.029
	c0-57.713,46.954-104.667,104.667-104.667s104.667,46.954,104.667,104.667c0,6.142-0.541,12.278-1.593,18.3
	c-9.247,1.65-15.986,4.228-22.528,6.737c-10.05,3.856-19.542,7.497-38.949,7.497c-19.448,0-28.932-3.651-38.973-7.517
	c-10.871-4.185-22.111-8.512-44.302-8.512c-22.276,0-33.548,4.352-44.449,8.562c-4.575,1.766-8.977,3.457-14.191,4.792
	C152.804,292.104,151.332,282.091,151.332,272.029z M425.415,297.051c-10.887-4.187-22.145-8.517-44.385-8.517
	c-2.205,0-4.352,0.044-6.431,0.133c0.759-5.502,1.148-11.069,1.148-16.637c0-66.029-53.719-119.748-119.748-119.748
	c-66.03,0-119.748,53.719-119.748,119.748c0,10.851,1.484,21.644,4.407,32.199c-3.064,0.224-6.28,0.335-9.69,0.335
	c-19.439,0-28.927-3.648-38.97-7.512c-9.582-3.686-19.455-7.48-36.844-8.337V55.155h401.691v249.204
	C442.309,303.544,434.066,300.379,425.415,297.051z M15.081,25.745l24.994,24.994v410.525l-24.994,24.992V25.745z M25.744,496.919
	l24.994-24.993h410.524l24.993,24.993H25.744z M496.919,486.255l-24.993-24.994V50.738l24.993-24.994V486.255z"/>
<g>
	<rect x="215.923" y="200.37" style="fill:#FFFFFF;" width="16.03" height="15.081"/>
	<rect x="199.898" y="224.419" style="fill:#FFFFFF;" width="16.03" height="15.081"/>
</g>
<rect x="231.959" y="224.419" style="fill:#231F20;" width="16.03" height="15.081"/>
<polygon style="fill:#FFFFFF;" points="80.148,135.777 95.229,135.777 95.229,95.229 135.777,95.229 135.777,80.148 80.148,80.148 
	"/>
<rect x="80.148" y="151.811" style="fill:#231F20;" width="15.081" height="16.03"/>
<rect x="416.294" y="80.148" style="fill:#FFFFFF;" width="16.03" height="15.081"/>
<g>
	<rect x="384.243" y="80.148" style="fill:#231F20;" width="16.029" height="15.081"/>
	<rect x="416.294" y="112.209" style="fill:#231F20;" width="16.03" height="15.081"/>
</g>
<rect x="95.701" y="360.667" style="fill:#FFFFFF;" width="96.174" height="15.081"/>
<g>
	<rect x="215.923" y="360.667" style="fill:#231F20;" width="16.03" height="15.081"/>
	<rect x="296.072" y="408.753" style="fill:#231F20;" width="96.174" height="15.081"/>
</g>
<g>
	<rect x="255.997" y="408.753" style="fill:#FFFFFF;" width="16.03" height="15.081"/>
	<rect x="336.146" y="352.654" style="fill:#FFFFFF;" width="72.135" height="15.081"/>
</g>
<rect x="127.762" y="416.766" style="fill:#231F20;" width="48.089" height="15.081"/>
<g>
</g>
<g>
</g>
<g>
</g>
<g>
</g>
<g>
</g>
<g>
</g>
<g>
</g>
<g>
</g>
<g>
</g>
<g>
</g>
<g>
</g>
<g>
</g>
<g>
</g>
<g>
</g>
<g>
</g>
</svg>
