<svg height="512pt" viewBox="0 -45 512.004 512" width="512pt" xmlns="http://www.w3.org/2000/svg"><path d="m7.5 397.960938v-374.21875c0-8.96875 7.269531-16.238282 16.238281-16.238282h464.523438c8.96875 0 16.238281 7.269532 16.238281 16.238282v374.21875c0 8.96875-7.269531 16.238281-16.238281 16.238281h-464.523438c-8.96875 0-16.238281-7.269531-16.238281-16.238281zm0 0" fill="#e3e1c1"/><path d="m470.394531 35.410156v350.882813h-428.789062v-350.882813zm0 0" fill="#a5cdff"/><path d="m41.605469 35.410156h40v350.882813h-40zm0 0" fill="#8cb4eb"/><path d="m386.03125 325.804688c0 16.695312-14.101562 30.230468-31.5 30.230468-17.394531 0-31.5-13.535156-31.5-30.230468 0-14.117188 22.511719-102.945313 29.472656-130.085938.539063-2.097656 3.519532-2.097656 4.054688 0 6.964844 27.140625 29.472656 115.972656 29.472656 130.085938zm0 0" fill="#8fb777"/><path d="m353.03125 325.804688c0-8.613282 8.382812-45.050782 16.5-78.3125-5.183594-21.246094-10.257812-41.195313-12.972656-51.773438-.539063-2.097656-3.515625-2.097656-4.054688 0-6.964844 27.140625-29.472656 115.96875-29.472656 130.085938 0 16.695312 14.101562 30.226562 31.5 30.226562 5.429688 0 10.539062-1.316406 15-3.640625-9.824219-5.117187-16.5-15.105469-16.5-26.585937zm0 0" fill="#7a9965"/><path d="m216.660156 235.925781c-9.683594-3.894531-17.820312 6.523438-19.414062 13.160157-2.695313 11.242187 4.347656 25.460937 15.90625 25.71875 9.167968.203124 16.160156-7.78125 21.742187-15.054688 7.136719 14.734375 26.296875 22.316406 41.582031 16.449219 15.28125-5.863281 24.457032-24.3125 19.90625-40.039063 9.65625-6.492187 17.214844-16.484375 19.484376-27.898437 2.269531-11.414063-1.246094-24.125-9.976563-31.820313-5.804687-5.121094-13.441406-7.792968-21.109375-8.867187-19.792969-2.773438-40.753906 5.046875-53.890625 20.109375-13.132813 15.058594-18.03125 36.894531-12.589844 56.121094" fill="#c4deff"/><path d="m137.703125 95.972656c-7.054687-6.71875-23.054687-8.710937-29.351563-1.277344-6.296874 7.4375-4.878906 20.085938 2.910157 25.941407-16.089844 3.347656-29.832031 18.183593-29.394531 34.609375.4375 16.429687 17.398437 31.15625 33.320312 27.09375 9.308594-2.375 16.527344-10.070313 20.671875-18.730469 4.152344-8.660156 5.683594-18.304687 7.167969-27.792969 8.835937 8.6875 21.613281 13.203125 33.945312 11.996094 12.335938-1.203125 23.996094-8.105469 30.984375-18.335938 4.199219-6.148437 6.769531-13.679687 5.773438-21.058593-.996094-7.378907-6.035157-14.402344-13.175781-16.507813-7.144532-2.101562-13.820313 3.84375-18.019532 8.945313 4.503906-7.5.285156-18.175781-7.496094-22.171875-7.78125-4-17.636718-2.160156-24.808593 2.84375-7.175781 5.007812-12.039063 12.699218-15.695313 20.644531" fill="#c4deff"/><path d="m206.816406 328.535156c-24.527344 5.71875-48.496094 19.300782-72.667968 12.496094-.269532-.230469-.539063-.449219-.808594-.667969-9.148438-7.222656-29.496094 1.335938-40.835938 4.007813l-5.195312-6.679688c-1.539063-10.78125-11.628906-11.136718-1.1875-35.019531.160156-.367187-.5625-.570313-.851563-.851563 15.582031-18.007812 41.589844-28.089843 65.128907-24.519531 23.550781 3.570313 45.023437 20.242188 54.570312 42.0625zm0 0" fill="#b07d55"/><path d="m117.308594 337.691406c-1.539063-10.78125-10.746094-13.800781-.320313-33.675781 6.4375-12.261719 23.046875-22.3125 38.503907-25.722656-1.683594-.394531-3.382813-.730469-5.09375-.992188-23.539063-3.570312-49.550782 6.511719-65.128907 24.519531.289063.28125 1.011719.480469.847657.851563-10.441407 23.882813-.351563 24.238281 1.191406 35.019531l5.195312 6.679688c6.617188-1.558594 16.300782-5.117188 25.039063-6.378906zm0 0" fill="#a26349"/><path d="m456.621094 321.710938 21.878906 75.640624-329.085938-10.671874-1.445312-11.679688c-40.371094-16.527344-29.238281-16.277344-13.820312-33.96875 22.453124-8.378906 46.402343-15.480469 70.929687-21.199219 21.683594-5.050781 43.820313-9.03125 65.78125-11.871093 18.878906-2.460938 37.628906-4.058594 55.832031-4.789063-2.242187 10.820313-3.660156 19.078125-3.660156 22.628906 0 16.699219 14.097656 30.230469 31.5 30.230469.160156 0 .320312 0 .46875-.011719 13.140625-.179687 24.328125-8.078125 28.859375-19.1875 5.039063 3.277344 11.121094 5.199219 17.671875 5.199219 16.019531 0 29.25-11.46875 31.238281-26.332031 8.949219-3.578125 19.050781-3.886719 23.851563 6.011719zm0 0" fill="#88544f"/><path d="m147.96875 375.003906v.019532l-125.152344 32.5625 32.5625-114.082032c10.390625-3.363281 22.042969.699219 29.890625 8.316406.289063.28125.570313.5625.851563.851563 7.519531 7.832031 11.429687 18.53125 12.96875 29.308594.070312.453125.128906.910156.191406 1.363281.347656-.089844.707031-.183594 1.058594-.273438 11.339844-2.667968 23.851562.070313 33 7.289063.269531.222656.539062.441406.808594.671875 8.941406 7.652344 14.152343 22.300781 13.820312 33.972656zm0 0" fill="#5cb57c"/><path d="m147.96875 375.003906v.019532l-125.152344 32.5625 32.5625-114.082032c10.390625-3.363281 22.042969.699219 29.890625 8.316406.289063.28125.570313.5625.851563.851563 7.519531 7.832031 11.429687 18.53125 12.96875 29.308594.070312.453125.128906.910156.191406 1.363281.347656-.089844.707031-.183594 1.058594-.273438 11.339844-2.667968 23.851562.070313 33 7.289063.269531.222656.539062.441406.808594.671875 8.941406 7.652344 14.152343 22.300781 13.820312 33.972656zm0 0" fill="#a1d685"/><path d="m7.5 23.546875v374.609375c0 8.863281 7.183594 16.046875 16.042969 16.046875h464.914062c8.859375 0 16.042969-7.183594 16.042969-16.046875v-374.609375c0-8.863281-7.183594-16.042969-16.042969-16.042969h-464.914062c-8.859375 0-16.042969 7.179688-16.042969 16.042969zm47.878906 344.230469v-313.847656c0-4.003907 3.246094-7.246094 7.246094-7.246094h386.75c4 0 7.246094 3.242187 7.246094 7.246094v313.847656c0 4-3.246094 7.246094-7.246094 7.246094h-386.75c-4 0-7.246094-3.246094-7.246094-7.246094zm0 0" fill="#ca2837"/><path d="m55.378906 46.683594v328.339844l-42.699218 34.9375c-3.191407-2.929688-5.179688-7.128907-5.179688-11.800782v-374.617187c0-4.671875 1.988281-8.871094 5.179688-11.800781zm0 0" fill="#eb9664"/><g fill="#ffac73"><path d="m499.320312 11.742188-42.699218 34.941406h-401.242188l-42.699218-34.941406c2.851562-2.640626 6.671874-4.238282 10.859374-4.238282h464.921876c4.1875 0 8.007812 1.597656 10.859374 4.238282zm0 0"/><path d="m504.5 23.542969v374.617187c0 4.671875-1.988281 8.871094-5.179688 11.800782l-42.699218-34.9375v-328.339844l42.699218-34.941406c3.191407 2.929687 5.179688 7.128906 5.179688 11.800781zm0 0"/><path d="m499.320312 409.960938c-2.851562 2.640624-6.671874 4.242187-10.859374 4.242187h-464.921876c-4.1875 0-8.007812-1.601563-10.859374-4.242187l42.699218-34.9375h401.242188zm0 0"/></g><path d="m433.03125 311.804688c0 16.695312-14.101562 30.230468-31.5 30.230468-17.394531 0-31.5-13.535156-31.5-30.230468 0-13.898438 21.828125-168.628907 29.144531-220.097657.386719-2.726562 4.328125-2.726562 4.714844 0 7.3125 51.46875 29.140625 206.199219 29.140625 220.097657zm0 0" fill="#a1d685"/><path d="m512 414.167969v-274.207031c0-4.140626-3.359375-7.5-7.5-7.5s-7.5 3.359374-7.5 7.5v258.410156l-32.878906-26.902344v-321.234375l32.878906-26.902344v86.609375c0 4.140625 3.359375 7.5 7.5 7.5s7.5-3.359375 7.5-7.5v-102.40625c0-.003906 0-.007812 0-.011718v-.019532c0-.042968-.007812-.089844-.007812-.132812-.003907-.199219-.011719-.398438-.027344-.601563-.011719-.09375-.027344-.183593-.039063-.277343-.023437-.152344-.039062-.300782-.070312-.453126-.023438-.105468-.050781-.214843-.078125-.320312-.03125-.128906-.0625-.261719-.101563-.390625-.035156-.113281-.078125-.226563-.117187-.339844-.042969-.117187-.082032-.234375-.128906-.347656-.050782-.121094-.109376-.242187-.167969-.359375-.046875-.101562-.089844-.203125-.144531-.304688-.070313-.132812-.152344-.261718-.234376-.394531-.046874-.078125-.09375-.15625-.144531-.234375-.113281-.171875-.234375-.335937-.363281-.496094-.023438-.03125-.046875-.066406-.070312-.097656-.003907 0-.003907-.003906-.007813-.007812-.15625-.191406-.324219-.375-.5-.550782-.085937-.085937-.179687-.164062-.269531-.246093s-.175782-.167969-.269532-.242188c-.117187-.097656-.238281-.183593-.359374-.269531-.078126-.054688-.152344-.113281-.226563-.167969-.117187-.078125-.238281-.144531-.359375-.21875-.089844-.054687-.179688-.109375-.273438-.160156-.105468-.058594-.21875-.105469-.324218-.15625-.113282-.054687-.226563-.113281-.34375-.160156-.09375-.039063-.191406-.070313-.285156-.105469-.136719-.046875-.269532-.101562-.40625-.144531-.085938-.023438-.175782-.042969-.261719-.066407-.148438-.039062-.296875-.078124-.445313-.109374-.109375-.019532-.21875-.035157-.324218-.0507818-.132813-.0195312-.261719-.0429687-.398438-.0585937-.246094-.0234375-.492188-.03515625-.738281-.03515625-.003907 0-.007813 0-.011719 0h-497c-.003906 0-.007812 0-.011719 0-.246093 0-.492187.01171875-.734375.03515625-.160156.015625-.3125.0429687-.46875.0703125-.082031.011719-.167968.019531-.253906.039063-.164062.03125-.324219.074218-.484375.117187-.074219.019531-.148437.039063-.222656.058594-.148438.042969-.292969.101562-.4375.152343-.085938.035157-.171875.058594-.257813.09375-.125.054688-.242187.113282-.363281.171876-.101563.046874-.203125.09375-.300781.144531-.105469.054687-.199219.117187-.300782.175781-.109374.066406-.222656.128906-.332031.203125-.089843.058594-.171875.125-.257812.1875-.109375.082031-.222657.160156-.332031.25-.105469.085937-.203126.183594-.304688.277344-.078125.070312-.160156.136719-.234375.210937-.175781.175782-.34375.359375-.5.554688-.003906.003906-.003906.007812-.007813.007812-.023437.03125-.046874.066406-.070312.097656-.128906.160157-.253906.324219-.367188.496094-.050781.078125-.09375.15625-.140624.234375-.082032.132813-.164063.261719-.234376.394531-.054687.101563-.097656.203126-.148437.304688-.054687.117188-.113281.238281-.164063.359375-.046874.113281-.085937.230469-.128906.347656-.039062.113281-.082031.226563-.121094.339844-.039062.128906-.066406.261719-.097656.390625-.027344.105469-.058594.210938-.078125.320312-.03125.152344-.0468748.300782-.0703122.453126-.0117188.09375-.0273438.183593-.0390626.277343-.0195312.203125-.0273437.402344-.0273437.601563 0 .042968-.0078125.089844-.0078125.132812v.019532.011718 406.632813.011719.019531c0 .046875.0078125.089843.0078125.132812.0039063.203125.0117187.402344.0273437.601563.0117188.09375.0273438.1875.0390626.28125.0234374.148437.0390622.300781.0703122.449218.023438.109376.050781.214844.078125.324219.03125.128907.0625.257813.101563.386719.035156.117188.078125.230469.117187.34375.042969.117188.082032.230469.128906.34375.050782.125.109376.242188.167969.363281.046875.097657.089844.203125.144531.300781.070313.136719.152344.265626.234376.394532.046874.078125.09375.160156.144531.238281.113281.167969.234375.332031.363281.492187.023438.035157.046875.066407.070312.097657.003907.003906.003907.003906.007813.007812.167969.207031.351563.402344.539063.589844.070312.066406.140624.125.210937.191406.121094.109375.246094.222657.375.324219.09375.074219.183594.140625.277344.207031.121093.085938.242187.171875.363281.25.097656.0625.195312.121094.292969.179688.132812.074219.269531.144531.40625.214843.09375.046876.1875.09375.28125.136719.15625.066407.316406.128907.476562.1875.082031.03125.160157.0625.242188.089844.1875.0625.375.109375.566406.15625.0625.015625.125.035156.1875.046875.21875.046875.441406.082031.667969.109375.039062.003906.074218.015625.113281.019531.261719.027344.527344.042969.796875.042969h497c.269531 0 .535156-.015625.796875-.042969.039063-.003906.078125-.015625.117187-.019531.226563-.027344.449219-.0625.664063-.109375.066406-.011719.128906-.03125.191406-.046875.191407-.046875.378907-.097656.566407-.15625.078124-.027344.160156-.058594.242187-.089844.160156-.058593.320313-.121093.476563-.1875.09375-.042969.1875-.089843.28125-.136719.136718-.066406.273437-.140624.40625-.214843.097656-.058594.195312-.117188.292968-.179688.121094-.078125.242188-.164062.363282-.25.09375-.066406.1875-.132812.277343-.207031.128907-.101562.253907-.214844.375-.324219.070313-.066406.140625-.125.210938-.191406.1875-.1875.371093-.382813.539062-.589844.003907-.003906.003907-.003906.007813-.007812.023437-.03125.046875-.0625.070312-.097657.128906-.160156.25-.324218.363282-.492187.054687-.078125.097656-.160156.144531-.238281.082031-.128906.164062-.257813.234375-.394532.054687-.097656.097656-.203124.144531-.300781.058594-.121093.117187-.238281.167969-.363281.046875-.113281.085937-.226562.128906-.34375.039062-.113281.082031-.226562.117188-.34375.039062-.128906.070312-.257812.101562-.386719.027344-.109375.054688-.214843.078125-.324219.03125-.148437.046875-.300781.070313-.449218.011718-.09375.027343-.1875.039062-.28125.019531-.199219.023438-.398438.027344-.601563 0-.042969.007812-.085937.007812-.132812v-.019531c-.003906-.003907-.003906-.007813-.003906-.011719zm-497-390.835938 32.878906 26.902344v243.339844.007812 77.886719l-32.878906 26.902344zm347.5 344.191407v-4.808594c10.023438-2 18.785156-7.710938 24.445312-15.929688 2.265626.886719 4.632813 1.578125 7.085938 2.039063v18.699219zm-207.449219 0c-.976562-7.578126-3.65625-15.949219-8.226562-23.089844 51.5-17.945313 112.582031-29.761719 170.597656-32.996094-1.65625 8.988281-1.890625 12.480469-1.890625 14.363281 0 18.480469 13.808594 33.894531 31.96875 37.105469v4.617188zm294.070313-313.339844v252.492187c-2.765625-.679687-5.769532-.867187-8.953125-.535156-2.78125-30.777344-20.761719-158.550781-28.855469-215.488281-.699219-4.917969-4.8125-8.492188-9.78125-8.492188s-9.082031 3.574219-9.78125 8.492188c-4.695312 33.039062-12.71875 89.917968-19.171875 137.867187-3.199219-12.875-6.261719-24.925781-8.753906-34.664062-1.09375-4.242188-4.914063-7.207031-9.296875-7.207031-4.378906 0-8.199219 2.964843-9.292969 7.207031-1.015625 3.949219-2.351563 9.210937-3.910156 15.351562l-.355469 1.398438c-6.527344 25.835937-15.140625 60.761719-20.476562 85.644531-36.730469 1.8125-74.789063 7.039062-111.097657 15.066406-11.535156-21.742187-33.683593-37.757812-57.867187-41.425781-23.332032-3.535156-49.335938 5.117187-66.910156 21.78125-6.648438-4.496094-14.273438-6.898437-21.738282-6.851563v-230.636718zm-46.828125 280.332031c-.25-.027344-.503907-.039063-.761719-.039063-.253906 0-.507812.011719-.757812.039063-12.882813-.382813-23.242188-10.417969-23.242188-22.710937 0-9.429688 11.632812-95.347657 24-183.214844 12.371094 87.863281 24 173.777344 24 183.214844 0 12.292968-10.355469 22.328124-23.238281 22.710937zm-47.394531 14.007813c-.097657 0-.191407.003906-.285157.007812h-.085937c-13.230469 0-24-10.195312-24-22.730469 0-1.242187.335937-5.757812 3.4375-20.753906 4.871094-23.601563 13.675781-59.523437 20.5625-86.867187 4.011718 15.929687 8.550781 34.273437 12.628906 51.539062-2.796875 21.933594-4.625 37.878906-4.625 42.085938 0 10.542968 4.5 20.085937 11.734375 26.941406-4.335937 5.960937-11.464844 9.667968-19.367187 9.777344zm-219.511719-15.9375c-8.714844-5.894532-19.515625-8.691407-30.007813-7.863282-1.972656-8.730468-5.363281-16.367187-9.980468-22.609375 14.273437-13.328125 35.15625-20.230469 53.878906-17.394531 18.277344 2.769531 35.128906 14.28125 44.886718 30.148438-20.507812 5.046874-40.292968 10.996093-58.777343 17.71875zm-72.507813 34.9375v-67.683594c6.171875-.054688 12.847656 2.84375 17.835938 8.03125 7.421875 7.722656 10.144531 18.621094 11.121094 26.40625.269531 2.152344 1.457031 4.082031 3.253906 5.292968 1.800781 1.207032 4.035156 1.582032 6.132812 1.019532 9.347656-2.511719 19.871094-.34375 27.464844 5.652344 5.367188 4.242187 9.675781 12.75 11.195312 21.28125zm346.152344-18.695313c14.664062-2.777344 26.414062-13.523437 30.203125-27.375 6.121094-1.554687 8.703125.515625 9.886719 2.21875v43.851563h-40.089844zm44.914062-309.644531h-395.890624l-29.546876-24.179688h454.984376zm-395.890624 343.339844h395.890624l29.546876 24.175781h-454.984376zm0 0"/><path d="m208.585938 228c-1.695313.363281-3.371094.941406-5.015626 1.789062-7.375 3.804688-12.226562 11.761719-13.617187 17.546876-2.085937 8.695312.039063 18.535156 5.542969 25.683593 4.496094 5.832031 10.707031 9.128907 17.492187 9.28125 8.976563.222657 16.164063-4.980469 21.328125-10.253906 7.894532 8.578125 19.585938 13.625 31.246094 13.625 4.617188 0 9.230469-.792969 13.597656-2.46875 17.171875-6.585937 27.980469-25.832031 25.535156-43.867187 9.636719-7.804688 16.292969-18.367188 18.527344-29.613282 2.878906-14.472656-1.980468-29.746094-12.371094-38.910156-2.519531-2.21875-5.410156-4.152344-8.59375-5.742188-3.703124-1.855468-8.207031-.351562-10.0625 3.355469-1.851562 3.703125-.347656 8.207031 3.355469 10.058594 2.023438 1.011719 3.835938 2.21875 5.378907 3.582031 6.359374 5.605469 9.40625 15.546875 7.578124 24.730469-1.773437 8.929687-7.71875 17.363281-16.3125 23.140625-2.703124 1.820312-3.921874 5.175781-3.019531 8.308594 3.476563 12.007812-3.714843 26.472656-15.390625 30.949218-11.667968 4.480469-26.691406-1.460937-32.140625-12.714843-1.132812-2.339844-3.398437-3.925781-5.988281-4.191407-2.589844-.269531-5.125.828126-6.710938 2.890626-4.890624 6.371093-10.144531 12.210937-15.625 12.125-2.765624-.0625-4.757812-1.90625-5.941406-3.441407-2.71875-3.53125-3.859375-8.769531-2.839844-13.027343.535157-2.21875 2.859376-6.101563 5.851563-7.683594.214844.902344.4375 1.800781.691406 2.695312.9375 3.300782 3.941407 5.457032 7.214844 5.457032.675781 0 1.363281-.089844 2.046875-.285157 3.984375-1.125 6.300781-5.273437 5.171875-9.257812-4.738281-16.742188-.40625-36.035157 11.03125-49.152344 8.261719-9.472656 20.394531-15.894531 33.289063-17.625 4.105468-.546875 6.984374-4.324219 6.4375-8.429687-.550782-4.105469-4.324219-6.988282-8.429688-6.4375-16.453125 2.203124-31.980469 10.453124-42.605469 22.632812-10.917969 12.523438-16.738281 28.839844-16.652343 45.25zm0 0"/><path d="m89.332031 183.359375c6.207031 4.691406 13.363281 7.15625 20.417969 7.15625 2.457031 0 4.90625-.300781 7.292969-.910156 10.628906-2.710938 19.953125-11.007813 25.582031-22.757813 2.753906-5.742187 4.464844-11.828125 5.707031-17.792968 8.867188 4.949218 19.207031 7.21875 29.371094 6.222656 14.566406-1.421875 28.195313-9.484375 36.449219-21.570313 5.6875-8.328125 8.175781-17.664062 7.011718-26.292969-1.449218-10.746093-8.882812-19.867187-18.488281-22.695312-4.488281-1.324219-8.675781-.777344-12.398437.722656-2.203125-5.777344-6.5-10.703125-11.808594-13.433594-9.691406-4.976562-22.460938-3.65625-32.53125 3.371094-3.820312 2.664063-7.28125 6.070313-10.429688 10.277344-4.953124-2.28125-10.792968-3.457031-16.429687-3.152344-6.910156.371094-12.753906 2.980469-16.449219 7.347656-4.332031 5.109376-6.355468 12.125-5.558594 19.246094.3125 2.753906 1.03125 5.402344 2.105469 7.84375-14.910156 7.355469-25.230469 22.632813-24.804687 38.507813.28125 10.609375 5.875 21.042969 14.960937 27.910156zm23.457031-55.378906c2.886719-.601563 5.152344-2.832031 5.792969-5.707031s-.457031-5.863282-2.8125-7.632813c-2.070312-1.554687-3.453125-4.1875-3.792969-7.21875-.339843-3.03125.425782-5.902344 2.097657-7.878906.972656-1.148438 3.144531-1.917969 5.8125-2.0625.3125-.015625.632812-.023438.953125-.023438 2.378906 0 4.863281.457031 7.035156 1.25-.050781.109375-.101562.222657-.152344.332031-1.730468 3.761719-.082031 8.21875 3.679688 9.949219 3.765625 1.730469 8.21875.082031 9.949218-3.679687 3.84375-8.363282 8.152344-14.125 13.171876-17.628906 5.484374-3.828126 12.351562-4.765626 17.089843-2.328126 2.269531 1.164063 4.152344 3.558594 4.917969 6.25.339844 1.1875.734375 3.464844-.425781 5.390626-2.019531 3.367187-1.101563 7.722656 2.105469 9.988281 3.207031 2.265625 7.617187 1.675781 10.113281-1.355469 3.886719-4.714844 7.761719-7.210938 10.113281-6.519531 3.90625 1.152343 7.210938 5.488281 7.863281 10.316406.667969 4.945313-.941406 10.566406-4.53125 15.824219-5.695312 8.335937-15.472656 14.125-25.523437 15.105468-10.054688.980469-20.757813-2.804687-27.957032-9.882812-2.007812-1.972656-4.945312-2.65625-7.613281-1.773438-2.667969.882813-4.621093 3.183594-5.054687 5.960938-1.382813 8.835938-2.8125 17.976562-6.519532 25.714844-3.652343 7.617187-9.542968 13.113281-15.761718 14.703125-4.796875 1.222656-10.25-.121094-14.960938-3.679688-5.398437-4.082031-8.851562-10.34375-9.011718-16.34375-.328126-12.171875 10.179687-24.316406 23.421874-27.070312zm0 0"/></svg>