<svg height="480pt" viewBox="0 -40 480 480" width="480pt" xmlns="http://www.w3.org/2000/svg"><path d="m472 8v384h-464v-384zm0 0" fill="#d3843d"/><path d="m440 40v320h-400v-320zm0 0" fill="#f4f4e6"/><path d="m120 88h96v128h-96zm0 0" fill="#f6bf9b"/><path d="m264 128h96v120h-96zm0 0" fill="#f6bf9b"/><path d="m434.347656 34.339844 32-32 11.316406 11.3125-32 32zm0 0" fill="#fdbd40"/><path d="m434.347656 365.664062 11.3125-11.316406 32 32.003906-11.3125 11.3125zm0 0" fill="#fdbd40"/><path d="m2.34375 13.65625 11.3125-11.3125 32 32-11.3125 11.3125zm0 0" fill="#fdbd40"/><path d="m2.347656 386.34375 32-32.003906 11.316406 11.316406-32.003906 32zm0 0" fill="#fdbd40"/><path d="m120 248h96v112h-96zm0 0" fill="#195c85"/><path d="m264 280h96v80h-96zm0 0" fill="#195c85"/><g fill="#394d5c"><path d="m152 144c-4.417969 0-8-3.582031-8-8v-16c0-4.417969 3.582031-8 8-8s8 3.582031 8 8v16c0 4.417969-3.582031 8-8 8zm0 0"/><path d="m184 144c-4.417969 0-8-3.582031-8-8v-16c0-4.417969 3.582031-8 8-8s8 3.582031 8 8v16c0 4.417969-3.582031 8-8 8zm0 0"/><path d="m296 184c-4.417969 0-8-3.582031-8-8v-16c0-4.417969 3.582031-8 8-8s8 3.582031 8 8v16c0 4.417969-3.582031 8-8 8zm0 0"/><path d="m328 184c-4.417969 0-8-3.582031-8-8v-16c0-4.417969 3.582031-8 8-8s8 3.582031 8 8v16c0 4.417969-3.582031 8-8 8zm0 0"/><path d="m168.59375 192c-8.640625-.445312-16.753906-4.28125-22.578125-10.679688-2.945313-3.292968-2.664063-8.351562.628906-11.300781 3.292969-2.945312 8.351563-2.664062 11.300781.628907 2.78125 3.015624 6.566407 4.917968 10.648438 5.351562h.070312c3.738282-.339844 7.148438-2.277344 9.351563-5.320312 2.9375-3.3125 8.007813-3.617188 11.320313-.679688s3.617187 8.007812.679687 11.320312c-5.210937 6.550782-13.054687 10.460938-21.421875 10.679688zm0 0"/><path d="m312.59375 224c-8.640625-.445312-16.753906-4.28125-22.578125-10.679688-2.945313-3.292968-2.664063-8.351562.628906-11.300781 3.292969-2.945312 8.351563-2.664062 11.300781.628907 2.78125 3.015624 6.566407 4.917968 10.648438 5.351562h.070312c3.738282-.339844 7.148438-2.277344 9.351563-5.320312 2.9375-3.3125 8.007813-3.617188 11.320313-.679688s3.617187 8.007812.679687 11.320312c-5.210937 6.550782-13.054687 10.460938-21.421875 10.679688zm0 0"/></g><path d="m80 192h16v16h-16zm0 0" fill="#fdbd40"/><path d="m64 176h16v16h-16zm0 0" fill="#fdbd40"/><path d="m384 240h16v16h-16zm0 0" fill="#fdbd40"/><path d="m400 224h16v16h-16zm0 0" fill="#fdbd40"/><path d="m152 248h32v16c0 8.835938-7.164062 16-16 16s-16-7.164062-16-16zm0 0" fill="#f6bf9b"/><path d="m312 320c-27.871094 0-56-7.425781-56-24v-16h16v15.320312c2.351562 2.785157 16.089844 8.679688 40 8.679688s37.648438-5.894531 40-8.679688v-15.320312h16v16c0 16.574219-28.128906 24-56 24zm0 0" fill="#36afad"/><path d="m472 0h-464c-4.417969 0-8 3.582031-8 8v384c0 4.417969 3.582031 8 8 8h464c4.417969 0 8-3.582031 8-8v-384c0-4.417969-3.582031-8-8-8zm-35.3125 32h-393.375l-16-16h425.375zm-84.6875 263.320312c-2.351562 2.785157-16.089844 8.679688-40 8.679688s-37.648438-5.894531-40-8.679688v-7.320312h80zm-80 18.28125c12.832031 4.554688 26.386719 6.722657 40 6.398438 13.613281.324219 27.167969-1.84375 40-6.398438v38.398438h-80zm96-33.601562c0-4.417969-3.582031-8-8-8h-96c-4.417969 0-8 3.582031-8 8v72h-32v-104c0-4.417969-3.582031-8-8-8h-96c-4.417969 0-8 3.582031-8 8v104h-64v-304h384v304h-64zm-208-24h16v8c0 4.417969-3.582031 8-8 8s-8-3.582031-8-8zm8 32c13.253906 0 24-10.746094 24-24v-8h16v96h-80v-96h16v8c0 13.253906 10.746094 24 24 24zm-136-244.6875v313.375l-16 16v-345.375zm11.3125 324.6875h393.375l16 16h-425.375zm404.6875-11.3125v-313.375l16-16v345.375zm0 0"/><path d="m216 80h-96c-4.417969 0-8 3.582031-8 8v128c0 4.417969 3.582031 8 8 8h96c4.417969 0 8-3.582031 8-8v-128c0-4.417969-3.582031-8-8-8zm-8 128h-80v-112h80zm0 0"/><path d="m360 120h-96c-4.417969 0-8 3.582031-8 8v120c0 4.417969 3.582031 8 8 8h96c4.417969 0 8-3.582031 8-8v-120c0-4.417969-3.582031-8-8-8zm-8 120h-80v-104h80zm0 0"/><path d="m152 144c4.417969 0 8-3.582031 8-8v-16c0-4.417969-3.582031-8-8-8s-8 3.582031-8 8v16c0 4.417969 3.582031 8 8 8zm0 0"/><path d="m184 144c4.417969 0 8-3.582031 8-8v-16c0-4.417969-3.582031-8-8-8s-8 3.582031-8 8v16c0 4.417969 3.582031 8 8 8zm0 0"/><path d="m296 184c4.417969 0 8-3.582031 8-8v-16c0-4.417969-3.582031-8-8-8s-8 3.582031-8 8v16c0 4.417969 3.582031 8 8 8zm0 0"/><path d="m328 184c4.417969 0 8-3.582031 8-8v-16c0-4.417969-3.582031-8-8-8s-8 3.582031-8 8v16c0 4.417969 3.582031 8 8 8zm0 0"/><path d="m146.679688 170.015625c-1.589844 1.410156-2.550782 3.394531-2.675782 5.515625s.597656 4.203125 2.011719 5.789062c5.824219 6.398438 13.9375 10.234376 22.578125 10.679688 8.355469-.230469 16.183594-4.136719 21.390625-10.679688 2.9375-3.3125 2.632813-8.382812-.679687-11.320312s-8.382813-2.632812-11.320313.679688c-2.195313 3.035156-5.59375 4.972656-9.320313 5.320312h-.070312c-4.082031-.433594-7.867188-2.335938-10.648438-5.351562-2.941406-3.273438-7.976562-3.554688-11.265624-.632813zm0 0"/><path d="m290.679688 202.015625c-1.589844 1.410156-2.550782 3.394531-2.675782 5.515625s.597656 4.203125 2.011719 5.789062c5.824219 6.398438 13.9375 10.234376 22.578125 10.679688 8.355469-.230469 16.183594-4.136719 21.390625-10.679688 2.9375-3.3125 2.632813-8.382812-.679687-11.320312s-8.382813-2.632812-11.320313.679688c-2.195313 3.035156-5.59375 4.972656-9.320313 5.320312h-.070312c-4.082031-.433594-7.867188-2.335938-10.648438-5.351562-2.941406-3.273438-7.976562-3.554688-11.265624-.632813zm0 0"/><path d="m80 192h16v16h-16zm0 0"/><path d="m64 176h16v16h-16zm0 0"/><path d="m384 240h16v16h-16zm0 0"/><path d="m400 224h16v16h-16zm0 0"/></svg>