<svg height="512pt" viewBox="0 0 512 512" width="512pt" xmlns="http://www.w3.org/2000/svg"><path d="m113.355469 149.066406-14.710938-26.132812 126.578125-71.265625 14.707032 26.132812zm0 0" fill="#ede9e8"/><path d="m398.644531 149.066406-126.574219-71.265625 14.707032-26.132812 126.578125 71.265625zm0 0" fill="#dfd7d5"/><path d="m0 121v391h512v-391zm0 0" fill="#fdbf00"/><path d="m256 121h256v391h-256zm0 0" fill="#ff9f00"/><path d="m451 181v189l-45 44.699219-150-.601563-165-.898437-30-46.5v-185.699219zm0 0" fill="#a0deb0"/><path d="m451 181v189l-45 44.699219-150-.601563v-233.097656zm0 0" fill="#80d398"/><path d="m346 264.699219-73.199219 73.5-16.800781-19.199219-75-85.800781-120 133.5v84.300781h390v-81zm0 0" fill="#804231"/><path d="m256 0c-24.902344 0-45 21.097656-45 46s20.097656 45 45 45 45-20.097656 45-45-20.097656-46-45-46zm0 0" fill="#ff9f00"/><path d="m256 91v-91c24.902344 0 45 21.097656 45 46s-20.097656 45-45 45zm0 0" fill="#ff7816"/><path d="m451 370v81h-195v-132l16.800781 19.199219 73.199219-73.5zm0 0" fill="#663325"/></svg>