<?xml version="1.0" encoding="iso-8859-1"?>
<!-- Generator: Adobe Illustrator 19.0.0, SVG Export Plug-In . SVG Version: 6.00 Build 0)  -->
<svg version="1.1" id="Capa_1" xmlns="http://www.w3.org/2000/svg" xmlns:xlink="http://www.w3.org/1999/xlink" x="0px" y="0px"
	 viewBox="0 0 511.999 511.999" style="enable-background:new 0 0 511.999 511.999;" xml:space="preserve">
<rect x="23.543" y="7.515" style="fill:#F3F2ED;" width="464.914" height="384.757"/>
<rect x="23.543" y="7.515" style="fill:#E7E5DA;" width="24.047" height="384.757"/>
<g>
	<polygon style="fill:#81DADD;" points="23.543,312.114 103.7,231.956 199.889,304.098 392.268,119.735 488.457,223.94 
		488.457,392.272 23.543,392.272 	"/>
	<polygon style="fill:#81DADD;" points="223.937,304.098 403.556,131.964 392.268,119.735 210.447,293.98 	"/>
</g>
<polyline style="fill:#43C8CB;" points="23.543,312.114 23.543,392.272 47.59,392.272 47.59,288.067 "/>
<circle style="fill:#FFE340;" cx="199.893" cy="127.751" r="48.095"/>
<path style="fill:#FFDA00;" d="M175.842,127.751c0-22.41,15.327-41.24,36.071-46.58c-3.843-0.989-7.871-1.515-12.024-1.515
	c-26.562,0-48.095,21.532-48.095,48.095s21.532,48.095,48.095,48.095c4.152,0,8.181-0.526,12.024-1.515
	C191.17,168.991,175.842,150.161,175.842,127.751z"/>
<path style="fill:#FF66B2;" d="M328.532,360.208c-56.11-104.205-168.848-20.643-96.189,64.126
	c48.095,56.11,96.189,80.158,96.189,80.158s48.095-24.047,96.189-80.158C497.38,339.566,384.643,256.004,328.532,360.208z"/>
<path style="fill:#FF3399;" d="M263.626,412.742c-35.132-40.987-26.919-81.691-2.722-101.025
	c-43.845,1.481-76.416,56.785-28.56,112.616c48.095,56.11,96.189,80.158,96.189,80.158s9.679-4.842,24.691-15.24
	C338.451,480.636,301.04,456.393,263.626,412.742z"/>
<path d="M488.457,0H23.543c-4.15,0-7.515,3.365-7.515,7.515v56.444c0,4.15,3.365,7.515,7.515,7.515s7.515-3.365,7.515-7.515V15.03
	h449.885v189.691l-83.153-90.082c-2.813-3.047-7.727-3.197-10.722-0.329L199.296,294.259l-91.086-68.314
	c-2.992-2.244-7.179-1.946-9.822,0.698l-67.329,67.329V95.688c0-4.15-3.365-7.515-7.515-7.515s-7.515,3.365-7.515,7.515v296.583
	c0,4.15,3.365,7.515,7.515,7.515h184.392c4.277,9.986,10.527,19.9,18.703,29.439c48.524,56.611,96.515,80.979,98.534,81.988
	c2.097,1.048,4.624,1.048,6.721,0c2.019-1.009,50.01-25.377,98.534-81.988c8.176-9.539,14.425-19.453,18.703-29.439h39.327
	c4.15,0,7.515-3.365,7.515-7.515V7.515C495.972,3.365,492.607,0,488.457,0z M419.016,419.444
	c-39.263,45.806-78.907,69.992-90.484,76.503c-11.586-6.517-51.226-30.703-90.484-76.503
	c-20.641-24.081-27.069-50.334-17.637-72.028c7.235-16.641,22.705-27.438,40.371-28.178c0.652-0.027,1.303-0.041,1.954-0.041
	c22.388,0,43.862,16.132,59.178,44.575c2.784,5.169,10.45,5.17,13.233,0c15.76-29.27,38.035-45.518,61.132-44.534
	c17.667,0.74,33.137,11.538,40.371,28.178C446.085,369.11,439.657,395.363,419.016,419.444z M454.068,384.757
	c3.406-14.966,2.272-29.753-3.632-43.333c-9.549-21.963-30.059-36.218-53.525-37.202c-25.776-1.074-50.21,13.836-68.378,41.333
	c-18.168-27.497-42.608-42.411-68.379-41.333c-23.466,0.984-43.977,15.239-53.525,37.202c-5.905,13.581-7.038,28.367-3.632,43.333
	H31.057v-69.531l73.348-73.348l90.975,68.231c2.943,2.208,7.051,1.959,9.708-0.586l186.85-179.065l89.003,96.42v157.879H454.068z"/>
<path d="M199.889,183.361c30.663,0,55.609-24.946,55.609-55.609s-24.946-55.609-55.609-55.609s-55.609,24.946-55.609,55.609
	S169.226,183.361,199.889,183.361z M199.889,87.171c22.376,0,40.58,18.204,40.58,40.58s-18.204,40.58-40.58,40.58
	s-40.58-18.204-40.58-40.58S177.514,87.171,199.889,87.171z"/>
<path d="M207.404,47.594V31.562c0-4.15-3.365-7.515-7.515-7.515s-7.515,3.365-7.515,7.515v16.032c0,4.15,3.365,7.515,7.515,7.515
	S207.404,51.744,207.404,47.594z"/>
<path d="M159.818,65.849c5.699,0,9.333-6.368,6.501-11.273l-8.016-13.883c-2.075-3.594-6.672-4.826-10.265-2.75
	c-3.594,2.075-4.825,6.671-2.75,10.265l8.016,13.883C154.694,64.501,157.22,65.849,159.818,65.849z"/>
<path d="M134.228,81.165l-13.883-8.016c-3.595-2.076-8.19-0.844-10.265,2.75c-2.075,3.594-0.844,8.19,2.75,10.265l13.883,8.016
	c3.834,2.214,8.871,0.545,10.644-3.499C138.874,87.222,137.498,83.051,134.228,81.165z"/>
<path d="M96.185,127.751c0,4.15,3.365,7.515,7.515,7.515h16.032c4.15,0,7.515-3.365,7.515-7.515c0-4.15-3.365-7.515-7.515-7.515
	H103.7C99.55,120.236,96.185,123.601,96.185,127.751z"/>
<path d="M126.713,161.322l-13.883,8.016c-3.269,1.887-4.646,6.057-3.129,9.518c1.772,4.044,6.81,5.713,10.644,3.499l13.883-8.016
	c3.594-2.075,4.825-6.671,2.75-10.265S130.308,159.246,126.713,161.322z"/>
<path d="M153.303,193.412l-8.016,13.883c-1.888,3.269-0.995,7.569,2.049,9.807c3.565,2.621,8.758,1.534,10.968-2.292l8.016-13.883
	c2.075-3.594,0.844-8.19-2.75-10.265C159.973,188.587,155.379,189.818,153.303,193.412z"/>
<path d="M192.375,207.909v16.032c0,4.15,3.365,7.515,7.515,7.515s7.515-3.365,7.515-7.515v-16.032c0-4.15-3.365-7.515-7.515-7.515
	S192.375,203.759,192.375,207.909z"/>
<path d="M236.211,190.662c-3.594,2.075-4.825,6.671-2.75,10.265l8.016,13.883c2.208,3.826,7.403,4.914,10.968,2.292
	c3.044-2.238,3.936-6.538,2.049-9.807l-8.016-13.883C244.401,189.817,239.805,188.587,236.211,190.662z"/>
<path d="M265.552,174.338l13.883,8.016c3.834,2.214,8.871,0.545,10.644-3.499c1.517-3.46,0.14-7.63-3.129-9.518l-13.883-8.016
	c-3.594-2.076-8.19-0.844-10.265,2.75C260.725,167.667,261.956,172.263,265.552,174.338z"/>
<path d="M272.532,127.751c0,4.15,3.365,7.515,7.515,7.515h16.032c4.15,0,7.515-3.365,7.515-7.515c0-4.15-3.365-7.515-7.515-7.515
	h-16.032C275.897,120.236,272.532,123.601,272.532,127.751z"/>
<path d="M279.435,73.149l-13.883,8.016c-3.269,1.887-4.646,6.057-3.129,9.518c1.772,4.044,6.81,5.713,10.644,3.499l13.883-8.016
	c3.594-2.075,4.826-6.671,2.75-10.265C287.625,72.304,283.028,71.073,279.435,73.149z"/>
<path d="M239.962,65.849c2.597,0,5.123-1.349,6.515-3.758l8.016-13.883c2.075-3.594,0.844-8.19-2.75-10.265
	c-3.595-2.076-8.19-0.844-10.265,2.75l-8.016,13.883C230.628,59.481,234.262,65.849,239.962,65.849z"/>
<g>
</g>
<g>
</g>
<g>
</g>
<g>
</g>
<g>
</g>
<g>
</g>
<g>
</g>
<g>
</g>
<g>
</g>
<g>
</g>
<g>
</g>
<g>
</g>
<g>
</g>
<g>
</g>
<g>
</g>
</svg>
