<?xml version="1.0" encoding="iso-8859-1"?>
<!-- Generator: Adobe Illustrator 19.0.0, SVG Export Plug-In . SVG Version: 6.00 Build 0)  -->
<svg version="1.1" id="Capa_1" xmlns="http://www.w3.org/2000/svg" xmlns:xlink="http://www.w3.org/1999/xlink" x="0px" y="0px"
	 viewBox="0 0 512 512" style="enable-background:new 0 0 512 512;" xml:space="preserve">
<rect x="32.833" y="110.581" style="fill:#B3F0FF;" width="446.336" height="278.788"/>
<g>
	<path style="fill:#FD6F71;" d="M269.666,165.947c0,0,58.333,14.971,90.833,93.47h-90.833L256,215.918L269.666,165.947z"/>
	<path style="fill:#FD6F71;" d="M242.334,165.947c0,0-58.333,14.971-90.833,93.47h90.833l13.666-43.5L242.334,165.947z"/>
</g>
<path style="fill:#E34B4C;" d="M245.791,178.59l-3.458-12.643c0,0-58.333,14.971-90.833,93.47h29.875
	C199.666,215.239,226.139,191.182,245.791,178.59z"/>
<path style="fill:#AD4F3D;" d="M262.637,158.918h-13.275c-3.882,0-7.029,3.147-7.029,7.029V317.25h27.334V165.947
	C269.666,162.065,266.519,158.918,262.637,158.918z"/>
<path style="fill:#C86D5C;" d="M360.864,284.751H151.136c-6.467,0-11.526,5.72-10.574,12.116
	c7.14,47.946,56.101,85.051,115.438,85.051s108.298-37.105,115.438-85.051C372.39,290.471,367.332,284.751,360.864,284.751z"/>
<path style="fill:#AD4F3D;" d="M171.467,296.867c-0.953-6.396,4.106-12.116,10.574-12.116h-30.905
	c-6.467,0-11.526,5.72-10.574,12.116c7.14,47.946,56.101,85.051,115.438,85.051c5.24,0,10.397-0.295,15.453-0.856
	C219.25,375.274,177.977,340.579,171.467,296.867z"/>
<path style="fill:#57D0E6;" d="M58,358.251l24.75-13.334c15.451-8.324,34.05-8.324,49.5,0l0,0c15.451,8.324,34.05,8.324,49.5,0l0,0
	c15.451-8.324,34.05-8.324,49.5,0l0,0c15.451,8.324,34.05,8.324,49.5,0l0,0c15.451-8.324,34.05-8.324,49.5,0l0,0
	c15.451,8.324,34.05,8.324,49.5,0l0,0c15.451-8.324,34.05-8.324,49.5,0l24.75,13.334l25.166,109H32.833L58,358.251z"/>
<g>
	<polygon style="fill:#C86D5C;" points="0,86.251 0,491.584 65.667,470.251 63,442.918 63,134.918 57,106.251 	"/>
	<polygon style="fill:#C86D5C;" points="512,86.251 512,491.584 446.333,470.251 449,442.918 449,134.918 455,106.251 	"/>
</g>
<path style="fill:#506366;" d="M320.963,92.455l-59.5-59.5c-3.017-3.017-7.91-3.017-10.926,0l-59.5,59.5
	c-3.017,3.017-3.017,7.91,0,10.926c3.017,3.017,7.91,3.017,10.926,0L256,49.345l54.037,54.036c1.508,1.509,3.486,2.263,5.463,2.263
	s3.955-0.754,5.463-2.263C323.981,100.363,323.981,95.471,320.963,92.455z"/>
<g>
	<polygon style="fill:#AD4F3D;" points="449,134.918 512,86.251 0,86.251 63,134.918 	"/>
	<polygon style="fill:#AD4F3D;" points="449,442.918 512,491.584 0,491.584 63,442.918 	"/>
</g>
<circle style="fill:#3A484A;" cx="256" cy="38.416" r="18"/>
<g>
</g>
<g>
</g>
<g>
</g>
<g>
</g>
<g>
</g>
<g>
</g>
<g>
</g>
<g>
</g>
<g>
</g>
<g>
</g>
<g>
</g>
<g>
</g>
<g>
</g>
<g>
</g>
<g>
</g>
</svg>
