<svg height="327.541pt" viewBox="1 1 327.541 327.541" width="327.541pt" xmlns="http://www.w3.org/2000/svg"><path d="m36.316406 55.023438 114.804688-43.722657 3.890625 10.21875-114.800781 43.71875zm0 0" fill="#fdbd40"/><path d="m172.988281 21.503906 3.890625-10.214844 114.804688 43.734376-3.894532 10.214843zm0 0" fill="#fdbd40"/><path d="m5.464844 54.667969h317.070312c3.015625 0 5.464844 2.445312 5.464844 5.464843v262.402344c0 3.015625-2.449219 5.464844-5.464844 5.464844h-317.070312c-3.015625 0-5.464844-2.449219-5.464844-5.464844v-262.402344c0-3.019531 2.449219-5.464843 5.464844-5.464843zm0 0" fill="#5f79ba"/><path d="m27.332031 82h273.335938v218.667969h-273.335938zm0 0" fill="#fff"/><path d="m161.265625 147.597656c.683594-8.277344-5.398437-15.578125-13.667969-16.398437-8.265625.820312-14.347656 8.121093-13.664062 16.398437-8.269532.820313-14.351563 8.121094-13.667969 16.402344h54.667969c.683594-8.28125-5.398438-15.578125-13.667969-16.402344zm0 0" fill="#87cee9"/><path d="m256.933594 125.734375c0-12.078125-9.789063-21.867187-21.867188-21.867187s-21.867187 9.789062-21.867187 21.867187c-12.074219 0-21.867188 9.789063-21.867188 21.863281h87.46875c0-12.074218-9.789062-21.863281-21.867187-21.863281zm0 0" fill="#87cee9"/><path d="m49.621094 278.800781h136.246094l-68.125-98.398437zm0 0" fill="#fdbd40"/><path d="m92.933594 131.199219c0 9.058593-7.34375 16.398437-16.402344 16.398437-9.054688 0-16.398438-7.339844-16.398438-16.398437 0-9.058594 7.34375-16.398438 16.398438-16.398438 9.058594 0 16.402344 7.339844 16.402344 16.398438zm0 0" fill="#e9686a"/><path d="m87.464844 251.46875h10.933594v10.929688h-10.933594zm0 0" fill="#e97424"/><path d="m109.332031 235.066406h10.933594v10.933594h-10.933594zm0 0" fill="#e97424"/><path d="m180.398438 16.398438c0 9.058593-7.339844 16.402343-16.398438 16.402343s-16.402344-7.34375-16.402344-16.402343c0-9.054688 7.34375-16.398438 16.402344-16.398438s16.398438 7.34375 16.398438 16.398438zm0 0" fill="#5f79ba"/><path d="m142.554688 278.800781h136.246093l-68.125-98.398437zm0 0" fill="#e97424"/><g fill="#fdbd40"><path d="m196.800781 246h10.933594v10.933594h-10.933594zm0 0"/><path d="m218.667969 229.601562h10.933593v10.933594h-10.933593zm0 0"/></g></svg>