<?xml version="1.0" encoding="iso-8859-1"?>
<!-- Generator: Adobe Illustrator 19.0.0, SVG Export Plug-In . SVG Version: 6.00 Build 0)  -->
<svg version="1.1" id="Capa_1" xmlns="http://www.w3.org/2000/svg" xmlns:xlink="http://www.w3.org/1999/xlink" x="0px" y="0px"
	 viewBox="0 0 512 512" style="enable-background:new 0 0 512 512;" xml:space="preserve">
<path style="fill:#BF6015;" d="M452.8,401.3l27.9-143.301c0.3-2.098,0.3-3.9,0-5.999l-27.9-141.3C470.2,99.901,481,80.7,481,60
	c0-32.999-27.001-60-60-60c-20.7,0-39.3,10.8-50.4,27.599L259.6,0.3C258.401,0,257.199,0,256,0s-2.401,0-3.6,0.3l-111,27.299
	C130.3,10.8,111.7,0,91,0C58.001,0,31,27.001,31,60c0,20.7,10.8,39.901,28.2,50.7L31.3,252.001c-0.3,2.098-0.3,3.9,0,5.999
	l27.9,143.3C41.8,412.099,31,431.3,31,452c0,32.999,27.001,60,60,60c20.7,0,39.3-10.8,50.4-27.599l111,27.299
	c1.199,0.3,2.401,0.3,3.6,0.3s2.401,0,3.6-0.3l111-27.299C381.7,501.2,400.3,512,421,512c32.999,0,60-27.001,60-60
	C481,431.3,470.2,412.099,452.8,401.3z"/>
<path style="fill:#32D736;" d="M376,90H136c-8.401,0-15,6.599-15,15v300c0,8.401,6.599,15,15,15h240c8.401,0,15-6.599,15-15V105
	C391,96.599,384.401,90,376,90z"/>
<path style="fill:#994C0F;" d="M481,452c0,32.999-27.001,60-60,60c-20.7,0-39.3-10.8-50.4-27.599l-111,27.299
	c-1.199,0.3-2.401,0.3-3.6,0.3V0c1.199,0,2.401,0,3.6,0.3l111,27.299C381.7,10.8,400.3,0,421,0c32.999,0,60,27.001,60,60
	c0,20.7-10.8,39.901-28.2,50.7l27.9,141.301c0.3,2.098,0.3,3.9,0,5.999l-27.9,143.3C470.2,412.099,481,431.3,481,452z"/>
<path style="fill:#10BB67;" d="M391,105v300c0,8.401-6.599,15-15,15H256V90h120C384.401,90,391,96.599,391,105z"/>
<path style="fill:#FEDBAB;" d="M256,150c-41.4,0-75,33.6-75,75s33.6,75,75,75s75-33.6,75-75S297.4,150,256,150z"/>
<path style="fill:#0D70B2;" d="M338.5,313.801c-6.301-3.6-15.901-7.5-22.2-9.3c-0.3,0-0.3,0-0.601,0
	c-4.799-1.501-10.499,0.298-14.099,3.9L256,353.699l-45.601-45.298c-3.9-4.2-9.6-5.402-15-3.9c-0.3,0-0.899,0.298-1.199,0.298
	c-6.899,2.401-13.801,5.402-20.099,9.6C144.401,330,121,364.501,121,405c0,8.401,6.599,15,15,15h240c8.401,0,15-6.599,15-15
	C391,366.301,370.6,332.1,338.5,313.801z"/>
<path style="fill:#FEC478;" d="M316.3,304.501c-0.3,0-0.3,0-0.601,0C305.799,301.5,295.6,300,286,300h-60
	c-9.901,0-20.099,1.5-30.601,4.501c-0.3,0-0.899,0.298-1.199,0.298c-6.899,2.401-13.801,5.402-20.099,9.6
	c2.699,2.701,68.399,68.101,71.4,71.1C248.2,388.5,252.1,390,256,390s7.8-1.5,10.499-4.501c56.1-56.1,72.001-71.699,72.001-71.699
	C332.199,310.201,322.599,306.301,316.3,304.501z"/>
<path style="fill:#095C92;" d="M391,405c0,8.401-6.599,15-15,15H256v-66.301l45.601-45.298c3.6-3.602,9.3-5.402,14.099-3.9
	c0.3,0,0.3,0,0.601,0c6.299,1.8,15.899,5.7,22.2,9.3C370.6,332.1,391,366.301,391,405z"/>
<path style="fill:#FEC478;" d="M256,300V150c41.4,0,75,33.6,75,75S297.4,300,256,300z"/>
<path style="fill:#FEB756;" d="M338.5,313.801c0,0-15.901,15.599-72.001,71.699c-2.699,3-6.599,4.5-10.499,4.5v-90h30
	c9.6,0,19.799,1.5,29.7,4.501c0.3,0,0.3,0,0.601,0C322.599,306.301,332.199,310.201,338.5,313.801z"/>
<g>
</g>
<g>
</g>
<g>
</g>
<g>
</g>
<g>
</g>
<g>
</g>
<g>
</g>
<g>
</g>
<g>
</g>
<g>
</g>
<g>
</g>
<g>
</g>
<g>
</g>
<g>
</g>
<g>
</g>
</svg>
