<?xml version="1.0" encoding="iso-8859-1"?>
<!-- Generator: Adobe Illustrator 19.0.0, SVG Export Plug-In . SVG Version: 6.00 Build 0)  -->
<svg version="1.1" id="Capa_1" xmlns="http://www.w3.org/2000/svg" xmlns:xlink="http://www.w3.org/1999/xlink" x="0px" y="0px"
	 viewBox="0 0 512 512" style="enable-background:new 0 0 512 512;" xml:space="preserve">
<path style="fill:#6D3326;" d="M466,46H298.299C292.301,28.599,275.501,16,256,16s-36.301,12.599-42.299,30H46
	C21.099,46,0,66.099,0,91v360c0,24.901,21.099,45,46,45h420c24.901,0,46-20.099,46-45V91C512,66.099,490.901,46,466,46z"/>
<path style="fill:#55271A;" d="M512,91v360c0,24.901-21.099,45-46,45H256V16c19.501,0,36.301,12.599,42.299,30H466
	C490.901,46,512,66.099,512,91z"/>
<path style="fill:#EDE9E8;" d="M451,121v240H61V121c0-8.401,6.599-15,15-15h360C444.401,106,451,112.599,451,121z"/>
<path style="fill:#E2E2E7;" d="M451,121v240H256V106h180C444.401,106,451,112.599,451,121z"/>
<path style="fill:#00AB94;" d="M331,256c-24.814,0-45-20.186-45-45s20.186-45,45-45s45,20.186,45,45S355.814,256,331,256z"/>
<g>
	<path style="fill:#E10000;" d="M181,256c-24.814,0-45-20.186-45-45s20.186-45,45-45s45,20.186,45,45S205.814,256,181,256z"/>
	<path style="fill:#E10000;" d="M451,361v60c0,8.401-6.599,15-15,15H331l-30-15h-90l-30,15H76c-8.401,0-15-6.599-15-15v-60
		c0-57.9,47.1-105,105-105c38.401,0,71.7,21,90,51.599C274.3,277,307.599,256,346,256C403.9,256,451,303.1,451,361z"/>
</g>
<path style="fill:#00AB94;" d="M451,361v60c0,8.401-6.599,15-15,15H331l-30-15h-45V307.599C274.3,277,307.599,256,346,256
	C403.9,256,451,303.1,451,361z"/>
<path style="fill:#FDBF00;" d="M286,316c0,16.5-13.5,30-30,30s-30-13.5-30-30s13.5-30,30-30S286,299.5,286,316z"/>
<path style="fill:#FF9F00;" d="M286,316c0,16.5-13.5,30-30,30v-60C272.5,286,286,299.5,286,316z"/>
<path style="fill:#FDBF00;" d="M331,421v15H181v-15c0-41.4,33.6-75,75-75S331,379.6,331,421z"/>
<path style="fill:#FF9F00;" d="M331,421v15h-75v-90C297.4,346,331,379.6,331,421z"/>
<g>
</g>
<g>
</g>
<g>
</g>
<g>
</g>
<g>
</g>
<g>
</g>
<g>
</g>
<g>
</g>
<g>
</g>
<g>
</g>
<g>
</g>
<g>
</g>
<g>
</g>
<g>
</g>
<g>
</g>
</svg>
